<svg id="Слой_1" data-name="Слой 1" xmlns="http://www.w3.org/2000/svg" viewBox="0 0 100 100"><defs><style>.cls-1{fill:#fff;}</style></defs><g id="_604_Help_Lifesaver_Support" data-name="604, Help, Lifesaver, Support"><path class="cls-1" d="M6.09,49.35A2.06,2.06,0,1,1,4,51.41,2.06,2.06,0,0,1,6.09,49.35Z"/><path class="cls-1" d="M32.21,56.32a18.52,18.52,0,0,1,0-13.94H15.75a34.45,34.45,0,0,0,0,13.94Z"/><path class="cls-1" d="M15,61.22V75.47a8.45,8.45,0,0,0,8.39,8.4H37.6A36.55,36.55,0,0,1,15,61.22Z"/><path class="cls-1" d="M37.76,14.68H23.51a8.45,8.45,0,0,0-8.39,8.39V37.32A36.89,36.89,0,0,1,37.76,14.68Z"/><path class="cls-1" d="M33,58.22H16.22A34.94,34.94,0,0,0,40.76,82.76V66A18.34,18.34,0,0,1,33,58.22Z"/><path class="cls-1" d="M56.6,31.93V15.47a34.44,34.44,0,0,0-13.94,0V31.93A18.52,18.52,0,0,1,56.6,31.93Z"/><path class="cls-1" d="M10.05,88a3,3,0,0,0,0,6,2.92,2.92,0,0,0,3-3A3,3,0,0,0,10.05,88Z"/><path class="cls-1" d="M66.25,40.48H83.19A34.9,34.9,0,0,0,58.65,15.94V32.88A18.55,18.55,0,0,1,66.25,40.48Z"/><path class="cls-1" d="M16.22,40.48H33a19.55,19.55,0,0,1,7.6-7.6V15.94A34.45,34.45,0,0,0,16.22,40.48Z"/><path class="cls-1" d="M42.66,66.77V83.23a34.45,34.45,0,0,0,13.94,0V66.77A18.48,18.48,0,0,1,42.66,66.77Z"/><path class="cls-1" d="M49.63,32.57A16.78,16.78,0,1,0,66.41,49.35,16.79,16.79,0,0,0,49.63,32.57Zm-9.82,24.7a2.06,2.06,0,1,1,2.06-2.06A2.21,2.21,0,0,1,39.81,57.27Zm9.82-16.79a8.86,8.86,0,0,0-8.87,8.87,1,1,0,0,1-1.9,0A10.94,10.94,0,0,1,49.79,38.43a1,1,0,0,1,1,1A1.33,1.33,0,0,1,49.63,40.48Z"/><path class="cls-1" d="M94.12,8.82a4,4,0,1,0-4,4A3.92,3.92,0,0,0,94.12,8.82Z"/><path class="cls-1" d="M75.75,14.68H61.5a36.63,36.63,0,0,1,22.8,22.8V23.23A8.51,8.51,0,0,0,75.75,14.68Z"/><path class="cls-1" d="M83,58.22H66.25a19.55,19.55,0,0,1-7.6,7.6V82.91A34.9,34.9,0,0,0,83,58.22Z"/><path class="cls-1" d="M61.5,84H75.75a8.46,8.46,0,0,0,8.4-8.39V61.38A36.55,36.55,0,0,1,61.5,84Z"/><path class="cls-1" d="M67.05,42.38a19.26,19.26,0,0,1,0,13.94H83.51a34.44,34.44,0,0,0,0-13.94Z"/><path class="cls-1" d="M10.05,9.77A2.06,2.06,0,1,1,8,11.83,2.06,2.06,0,0,1,10.05,9.77Z"/><path class="cls-1" d="M93.17,33.52a2.06,2.06,0,1,1-2.06,2.06A2.06,2.06,0,0,1,93.17,33.52Z"/><path class="cls-1" d="M91.27,86.87a2.06,2.06,0,1,1-2.06,2.06A2.06,2.06,0,0,1,91.27,86.87Z"/><path class="cls-1" d="M33.8,88.93A2.06,2.06,0,1,1,31.74,91,2.06,2.06,0,0,1,33.8,88.93Z"/><path class="cls-1" d="M53.59,3.75a2.06,2.06,0,1,1-2.06,2.06A2.06,2.06,0,0,1,53.59,3.75Z"/></g></svg>