<svg id="Слой_1" data-name="Слой 1" xmlns="http://www.w3.org/2000/svg" viewBox="0 0 100 100"><defs><style>.cls-1{fill:#fff;}</style></defs><g id="_172_Falling_Space_Star" data-name="172, Falling, Space, Star"><path class="cls-1" d="M39.54,75.77l11.52-8.41H36.74a1.06,1.06,0,0,1-.94-.62L31.44,53.19,27.08,66.74a.86.86,0,0,1-.93.62H11.82l11.52,8.41a1,1,0,0,1,.31,1.09L19.29,90.4,30.82,82a.74.74,0,0,1,1.09,0l11.52,8.4L39.07,76.86A1.21,1.21,0,0,1,39.54,75.77Z"/><path class="cls-1" d="M14,28a3,3,0,0,0,3-3,2.87,2.87,0,0,0-3-3A3,3,0,0,0,14,28Z"/><path class="cls-1" d="M77.22,72.65a3.9,3.9,0,1,0,3.9,3.9A4,4,0,0,0,77.22,72.65Z"/><path class="cls-1" d="M42.5,41.35a1.11,1.11,0,0,0,.62.31.78.78,0,0,0,.62-.31L63.21,21.89a1.16,1.16,0,0,0,0-1.4c-.31-.47-.94-.32-1.4,0L42.5,40A.87.87,0,0,0,42.5,41.35Z"/><path class="cls-1" d="M46.39,53a1.17,1.17,0,0,0,.62.31.82.82,0,0,0,.63-.31l36-36a1.16,1.16,0,0,0,0-1.4c-.31-.47-.94-.31-1.4,0l-35.82,36A.87.87,0,0,0,46.39,53Z"/><path class="cls-1" d="M75.51,39.33a.79.79,0,0,0,1.25,0L88.44,27.65a1.16,1.16,0,0,0,0-1.4c-.32-.47-.94-.31-1.41,0L75.35,37.93A1.48,1.48,0,0,0,75.51,39.33Z"/><path class="cls-1" d="M94.51,36.06a1.16,1.16,0,0,0-1.4,0l-35,35a1.18,1.18,0,0,0,0,1.41,1.16,1.16,0,0,0,1.4,0l35-35A1.16,1.16,0,0,0,94.51,36.06Z"/><path class="cls-1" d="M26.3,47.11,45.77,27.65a1.16,1.16,0,0,0,0-1.4c-.31-.47-.94-.31-1.4,0L24.9,45.71a1.16,1.16,0,0,0,0,1.4A.87.87,0,0,0,26.3,47.11Z"/><path class="cls-1" d="M66.48,15.19a2,2,0,1,1-2,2A2,2,0,0,1,66.48,15.19Z"/><path class="cls-1" d="M70.37,42.44a2,2,0,1,1-2,2A2,2,0,0,1,70.37,42.44Z"/><path class="cls-1" d="M31.44,9.43a2,2,0,1,1-2,2A2,2,0,0,1,31.44,9.43Z"/><path class="cls-1" d="M15.87,42.44a2,2,0,1,1-2,2A2,2,0,0,1,15.87,42.44Z"/><path class="cls-1" d="M88,60a2,2,0,1,1-2,2A2,2,0,0,1,88,60Z"/><path class="cls-1" d="M58.69,83.4a2,2,0,1,1-2,2A2,2,0,0,1,58.69,83.4Z"/><path class="cls-1" d="M8.08,79.5a2,2,0,1,1-2,2A2,2,0,0,1,8.08,79.5Z"/></g></svg>