<svg id="Слой_1" data-name="Слой 1" xmlns="http://www.w3.org/2000/svg" viewBox="0 0 100 100"><defs><style>.cls-1{fill:#fff;}</style></defs><g id="_604_Help_Lifesaver_Support" data-name="604, Help, Lifesaver, Support"><path class="cls-1" d="M6.91,50.17a2.06,2.06,0,1,1-2.06,2.06A2.06,2.06,0,0,1,6.91,50.17Z"/><path class="cls-1" d="M33,57.14a18.45,18.45,0,0,1,0-13.93H16.57a34.4,34.4,0,0,0,0,13.93Z"/><path class="cls-1" d="M15.78,62.05V76.3a8.45,8.45,0,0,0,8.39,8.39H38.42A36.51,36.51,0,0,1,15.78,62.05Z"/><path class="cls-1" d="M38.58,15.5H24.33a8.45,8.45,0,0,0-8.39,8.39V38.14A36.89,36.89,0,0,1,38.58,15.5Z"/><path class="cls-1" d="M33.83,59H17.05A34.89,34.89,0,0,0,41.59,83.58V66.8A18.27,18.27,0,0,1,33.83,59Z"/><path class="cls-1" d="M57.42,32.76V16.29a34.39,34.39,0,0,0-13.93,0V32.76A18.45,18.45,0,0,1,57.42,32.76Z"/><path class="cls-1" d="M10.87,88.81a3,3,0,1,0,0,6,2.91,2.91,0,0,0,3-3A3,3,0,0,0,10.87,88.81Z"/><path class="cls-1" d="M67.08,41.31H84A34.92,34.92,0,0,0,59.48,16.77V33.71A18.55,18.55,0,0,1,67.08,41.31Z"/><path class="cls-1" d="M17.05,41.31H33.83a19.42,19.42,0,0,1,7.6-7.6V16.77A34.42,34.42,0,0,0,17.05,41.31Z"/><path class="cls-1" d="M43.49,67.59V84.06a34.4,34.4,0,0,0,13.93,0V67.59A18.45,18.45,0,0,1,43.49,67.59Z"/><path class="cls-1" d="M50.45,33.39A16.79,16.79,0,1,0,67.23,50.17,16.79,16.79,0,0,0,50.45,33.39Zm-9.81,24.7a2.06,2.06,0,1,1,2-2.06A2.2,2.2,0,0,1,40.64,58.09Zm9.81-16.78a8.84,8.84,0,0,0-8.86,8.86,1,1,0,0,1-1.9,0A10.94,10.94,0,0,1,50.61,39.25a1,1,0,0,1,1,1A1.34,1.34,0,0,1,50.45,41.31Z"/><path class="cls-1" d="M94.94,9.64a4,4,0,1,0-4,4A3.92,3.92,0,0,0,94.94,9.64Z"/><path class="cls-1" d="M76.57,15.5H62.33a36.68,36.68,0,0,1,22.8,22.8V24.05A8.52,8.52,0,0,0,76.57,15.5Z"/><path class="cls-1" d="M83.86,59H67.08a19.55,19.55,0,0,1-7.6,7.6v17.1A34.94,34.94,0,0,0,83.86,59Z"/><path class="cls-1" d="M62.33,84.85H76.57A8.45,8.45,0,0,0,85,76.46V62.21A36.56,36.56,0,0,1,62.33,84.85Z"/><path class="cls-1" d="M67.87,43.21a19.24,19.24,0,0,1,0,13.93H84.33a34.39,34.39,0,0,0,0-13.93Z"/><path class="cls-1" d="M10.87,10.59a2.06,2.06,0,1,1-2.06,2.06A2.06,2.06,0,0,1,10.87,10.59Z"/><path class="cls-1" d="M94,34.34a2.06,2.06,0,1,1-2.06,2.06A2.06,2.06,0,0,1,94,34.34Z"/><path class="cls-1" d="M92.09,87.7A2.06,2.06,0,1,1,90,89.76,2.06,2.06,0,0,1,92.09,87.7Z"/><path class="cls-1" d="M34.62,89.76a2.06,2.06,0,1,1-2.06,2A2.05,2.05,0,0,1,34.62,89.76Z"/><path class="cls-1" d="M54.41,4.58a2.06,2.06,0,1,1-2.06,2.06A2.06,2.06,0,0,1,54.41,4.58Z"/></g></svg>