<svg id="Слой_1" data-name="Слой 1" xmlns="http://www.w3.org/2000/svg" viewBox="0 0 100 100"><defs><style>.cls-1{fill:#fff;}</style></defs><g id="_858-Brilliant_Diamond_Jewel" data-name="858-Brilliant, Diamond, Jewel"><path class="cls-1" d="M23.09,53c-.33.49-.65,1-1,1.46h0A10.76,10.76,0,0,1,20,56.24a8.86,8.86,0,0,1,3.26,3.26,2.89,2.89,0,0,1,.81-1.14l.17-.16a7.68,7.68,0,0,1,2.27-1.79A11.44,11.44,0,0,1,23.09,53Z"/><polygon class="cls-1" points="46.35 21.59 22.43 21.59 34.96 35.26 46.35 21.59"/><polygon class="cls-1" points="36.26 37.86 48.63 89.27 60.99 37.86 36.26 37.86"/><path class="cls-1" d="M11.86,37.86l9.6,14a5.55,5.55,0,0,0,.65-2.93,1,1,0,0,1,1.95,0,6.18,6.18,0,0,0,6.19,6.18,1,1,0,0,1,0,2A6.55,6.55,0,0,0,26,58.68L46.19,88.3,34,37.7H11.86Z"/><polygon class="cls-1" points="60.02 35.91 48.63 22.24 37.08 35.91 60.02 35.91"/><polygon class="cls-1" points="74.66 21.59 50.74 21.59 62.3 35.26 74.66 21.59"/><polygon class="cls-1" points="32.69 35.91 20.32 22.24 11.7 35.91 32.69 35.91"/><polygon class="cls-1" points="64.57 35.91 85.4 35.91 76.94 22.24 64.57 35.91"/><polygon class="cls-1" points="62.95 37.86 50.91 88.46 85.24 37.86 62.95 37.86"/><path class="cls-1" d="M81.17,83.58A6.18,6.18,0,0,1,75,77.39a1,1,0,0,0-1.95,0,6.19,6.19,0,0,1-6.19,6.19,1,1,0,0,0,0,2A6.19,6.19,0,0,1,73,91.71a1,1,0,1,0,1.95,0,6.18,6.18,0,0,1,6.18-6.18,1,1,0,1,0,0-2Z"/><path class="cls-1" d="M16.09,78.53a5,5,0,1,0,5,5A5.07,5.07,0,0,0,16.09,78.53Z"/><path class="cls-1" d="M17.07,13.45A4.07,4.07,0,1,0,13,17.52,4,4,0,0,0,17.07,13.45Z"/><path class="cls-1" d="M88.17,50.06a6.19,6.19,0,1,0,6.18,6.18A6.19,6.19,0,0,0,88.17,50.06Z"/><path class="cls-1" d="M77.1,6.29A2.12,2.12,0,1,1,75,8.41,2.12,2.12,0,0,1,77.1,6.29Z"/><path class="cls-1" d="M34.31,10.36a2.12,2.12,0,1,1-2.11,2.12A2.12,2.12,0,0,1,34.31,10.36Z"/><path class="cls-1" d="M8,48.92A2.12,2.12,0,1,1,5.84,51,2.12,2.12,0,0,1,8,48.92Z"/><path class="cls-1" d="M28.29,89.6a2.12,2.12,0,1,1-2.11,2.11A2.11,2.11,0,0,1,28.29,89.6Z"/><path class="cls-1" d="M85.24,69.26a2.12,2.12,0,1,1-2.12,2.11A2.11,2.11,0,0,1,85.24,69.26Z"/><path class="cls-1" d="M91.26,24.52a2.12,2.12,0,1,1-2.12,2.11A2.1,2.1,0,0,1,91.26,24.52Z"/></g></svg>