<svg id="Слой_1" data-name="Слой 1" xmlns="http://www.w3.org/2000/svg" viewBox="0 0 100 100"><defs><style>.cls-1{fill:#fff;}</style></defs><g id="_172_Falling_Space_Star" data-name="172, Falling, Space, Star"><path class="cls-1" d="M38.63,76.31l11.86-8.65H35.75a1.1,1.1,0,0,1-1-.64L30.3,53.07,25.81,67a.89.89,0,0,1-1,.64H10.11L22,76.31a1,1,0,0,1,.32,1.12L17.8,91.37l11.86-8.65a.77.77,0,0,1,1.12,0l11.86,8.65L38.15,77.43A1.25,1.25,0,0,1,38.63,76.31Z"/><path class="cls-1" d="M12.35,27.11a3,3,0,0,0,3.05-3.05,3,3,0,0,0-3.05-3,3,3,0,0,0,0,6.09Z"/><path class="cls-1" d="M77.42,73.11a4,4,0,1,0,4,4A4.07,4.07,0,0,0,77.42,73.11Z"/><path class="cls-1" d="M41.68,40.89a1.21,1.21,0,0,0,.64.32.83.83,0,0,0,.64-.32l20-20a1.21,1.21,0,0,0,0-1.45c-.33-.48-1-.32-1.45,0l-19.87,20A.9.9,0,0,0,41.68,40.89Z"/><path class="cls-1" d="M45.69,52.91a1.21,1.21,0,0,0,.64.32.83.83,0,0,0,.64-.32l37-37a1.19,1.19,0,0,0,0-1.44c-.32-.48-1-.32-1.44,0l-36.86,37A.9.9,0,0,0,45.69,52.91Z"/><path class="cls-1" d="M75.66,38.81a.8.8,0,0,0,1.28,0l12-12a1.21,1.21,0,0,0,0-1.45c-.32-.48-1-.32-1.44,0l-12,12A1.52,1.52,0,0,0,75.66,38.81Z"/><path class="cls-1" d="M95.21,35.44a1.19,1.19,0,0,0-1.44,0L57.71,71.5a1.21,1.21,0,0,0,0,1.45,1.22,1.22,0,0,0,1.44,0L95.21,36.88A1.19,1.19,0,0,0,95.21,35.44Z"/><path class="cls-1" d="M25,46.82l20-20a1.21,1.21,0,0,0,0-1.45c-.33-.48-1-.32-1.45,0l-20,20a1.19,1.19,0,0,0,0,1.44A.9.9,0,0,0,25,46.82Z"/><path class="cls-1" d="M66.36,14a2.08,2.08,0,1,1-2.08,2.08A2.08,2.08,0,0,1,66.36,14Z"/><path class="cls-1" d="M70.37,42a2.09,2.09,0,1,1-2.09,2.09A2.09,2.09,0,0,1,70.37,42Z"/><path class="cls-1" d="M30.3,8a2.08,2.08,0,1,1-2.08,2.08A2.08,2.08,0,0,1,30.3,8Z"/><path class="cls-1" d="M14.27,42a2.09,2.09,0,1,1-2.08,2.09A2.1,2.1,0,0,1,14.27,42Z"/><path class="cls-1" d="M88.48,60.12a2.09,2.09,0,1,1-2.09,2.09A2.09,2.09,0,0,1,88.48,60.12Z"/><path class="cls-1" d="M58.35,84.16a2.09,2.09,0,1,1-2.09,2.09A2.09,2.09,0,0,1,58.35,84.16Z"/><path class="cls-1" d="M6.26,80.16a2.08,2.08,0,1,1-2.08,2.08A2.08,2.08,0,0,1,6.26,80.16Z"/></g></svg>