<svg id="Слой_1" data-name="Слой 1" xmlns="http://www.w3.org/2000/svg" viewBox="0 0 100 100"><defs><style>.cls-1{fill:#fff;}</style></defs><g id="_195_Cosmos_Shuttle_Space" data-name="195, Cosmos, Shuttle, Space"><path class="cls-1" d="M52.08,61.17a12.71,12.71,0,1,0-12.85-12.7A12.72,12.72,0,0,0,52.08,61.17Zm0-19.61a6.91,6.91,0,1,1-7,6.91A7,7,0,0,1,52.08,41.56Z"/><path class="cls-1" d="M85.88,74.19,76.36,56.31a50.38,50.38,0,0,1-5.56,14Z"/><path class="cls-1" d="M33.36,70.11a50.25,50.25,0,0,1-5.56-14L18.28,74Z"/><path class="cls-1" d="M52.08,6.43A45,45,0,0,0,33.2,26.35H71A45.8,45.8,0,0,0,52.08,6.43Z"/><path class="cls-1" d="M52.08,53.33a4.87,4.87,0,1,0-4.92-4.86A4.92,4.92,0,0,0,52.08,53.33Z"/><path class="cls-1" d="M84.93,22a6,6,0,1,0-6-6A6,6,0,0,0,84.93,22Z"/><path class="cls-1" d="M14.47,41.56A4.86,4.86,0,1,0,9.56,36.7,4.91,4.91,0,0,0,14.47,41.56Z"/><path class="cls-1" d="M83.82,80.78a7,7,0,0,0-7,6.43c0,.31-.31.78-.63.78a1.42,1.42,0,0,1-1.11-.15,5,5,0,0,0-6.67,0,.94.94,0,0,1-1.11.15,1,1,0,0,1-.63-.78,5,5,0,0,0-4.92-4.55,1,1,0,0,1-.95-.94V76.54H43.19v7.53a.86.86,0,0,1-.47.79,2.13,2.13,0,0,1-.95.15,6,6,0,0,0-1.59-.31,4.85,4.85,0,0,0-4,1.88.77.77,0,0,1-1,.32,1.06,1.06,0,0,1-.79-.63,9,9,0,0,0-8.25-5.49A8.84,8.84,0,0,0,18,86.27a1.14,1.14,0,0,1-1.74.31,4.85,4.85,0,0,0-4-1.88,4.87,4.87,0,1,0,0,9.73H83.66a7,7,0,0,0,7-6.91A6.73,6.73,0,0,0,83.82,80.78Z"/><path class="cls-1" d="M41.29,74.66V68.07a1,1,0,0,1,1.9,0v6.59H61.12V68.07a1,1,0,0,1,1.91,0v6.59h2.22a45.22,45.22,0,0,0,6.67-46.27H32.4a45.17,45.17,0,0,0,6.67,46.27ZM52.08,33.72A14.75,14.75,0,1,1,37.16,48.47,14.82,14.82,0,0,1,52.08,33.72Z"/><path class="cls-1" d="M91.75,30.74a2,2,0,1,1-2.06,2A2,2,0,0,1,91.75,30.74Z"/><path class="cls-1" d="M85.88,48.47a2,2,0,1,1-2.06,2A2,2,0,0,1,85.88,48.47Z"/><path class="cls-1" d="M20.35,11.13a2,2,0,1,1-2.07,2A2.06,2.06,0,0,1,20.35,11.13Z"/><path class="cls-1" d="M18.44,48.47a2,2,0,1,1-2.06,2A2,2,0,0,1,18.44,48.47Z"/><path class="cls-1" d="M12.41,62.11a2,2,0,1,1-2.06,2A2.05,2.05,0,0,1,12.41,62.11Z"/></g></svg>