<svg id="Слой_1" data-name="Слой 1" xmlns="http://www.w3.org/2000/svg" viewBox="0 0 100 100"><defs><style>.cls-1{fill:#fff;}</style></defs><g id="_158_Helmet_Space_Safety" data-name="158, Helmet, Space, Safety"><path class="cls-1" d="M50,29.22A23.39,23.39,0,1,0,73.42,52.6,23.38,23.38,0,0,0,50,29.22ZM43.21,51.79,55.39,39.61a1,1,0,0,1,1.46,1.46L44.67,53.25a1.19,1.19,0,0,1-1.46,0A1.22,1.22,0,0,1,43.21,51.79Zm15.59-2.6L42.56,65.43A1,1,0,1,1,41.1,64L57.34,47.73a1.19,1.19,0,0,1,1.46,0A.91.91,0,0,1,58.8,49.19Z"/><path class="cls-1" d="M70.66,78.91a33.64,33.64,0,0,1-41.25,0L26.81,88a4.87,4.87,0,0,0,4.55,6.17H68.71A4.89,4.89,0,0,0,73.42,88Z"/><path class="cls-1" d="M14.47,77a3.09,3.09,0,1,0-3.09,3.09A3.2,3.2,0,0,0,14.47,77Z"/><path class="cls-1" d="M91.61,65.76a4.06,4.06,0,1,0,4.06,4.06A4,4,0,0,0,91.61,65.76Z"/><path class="cls-1" d="M81.05,16.06v32c.16.17.33.49.49.49h.16a.91.91,0,0,0,1.14-1V16.06a1,1,0,0,0-1-1C81.54,14.92,81.05,15.41,81.05,16.06Z"/><path class="cls-1" d="M16.9,16.06V47.57a1,1,0,0,0,1.14,1h.16a.16.16,0,0,0,.16-.16s.17,0,.17-.16c.16,0,.16-.17.16-.33v-32a1.05,1.05,0,0,0-1-1A1.11,1.11,0,0,0,16.9,16.06Z"/><path class="cls-1" d="M80.56,14.6a2,2,0,0,1,3.09,0,4.26,4.26,0,0,0,2.6-3.74,4.06,4.06,0,0,0-8.12,0A3.59,3.59,0,0,0,80.56,14.6Z"/><path class="cls-1" d="M16.41,14.6a2,2,0,0,1,3.09,0,4.26,4.26,0,0,0,2.6-3.74,4.06,4.06,0,0,0-8.12,0A3.59,3.59,0,0,0,16.41,14.6Z"/><path class="cls-1" d="M88.52,52.6a4,4,0,0,0-4.06-4.06h-.65a1.86,1.86,0,0,1-1.78,1,1.8,1.8,0,0,1-1.47-.65,1.88,1.88,0,0,1-.48-1.3V43.34a31.48,31.48,0,0,0-60.09,0v4.71c0,.17,0,.33-.17.33-.16.32-.16.49-.32.65a2.32,2.32,0,0,1-.65.49c-.16,0-.16.16-.32.16H18a2.22,2.22,0,0,1-1.79-1H15.6a4.06,4.06,0,0,0,0,8.12H18a.91.91,0,0,1,1,.82A31.47,31.47,0,0,0,70.82,76.31,31,31,0,0,0,81.05,57.47a.92.92,0,0,1,1-.81h2.43A4.12,4.12,0,0,0,88.52,52.6ZM50,77.94A25.34,25.34,0,1,1,75.37,52.6,25.36,25.36,0,0,1,50,77.94Z"/><path class="cls-1" d="M66.27,5.83a2.11,2.11,0,1,1-2.11,2.11A2.1,2.1,0,0,1,66.27,5.83Z"/><path class="cls-1" d="M35.74,7.78a2.11,2.11,0,1,1-2.11,2.11A2.1,2.1,0,0,1,35.74,7.78Z"/><path class="cls-1" d="M9.43,28.08a2.11,2.11,0,1,1-2.11,2.11A2.1,2.1,0,0,1,9.43,28.08Z"/><path class="cls-1" d="M92.58,34.25a2.11,2.11,0,1,1-2.11,2.11A2.1,2.1,0,0,1,92.58,34.25Z"/><path class="cls-1" d="M88.52,81a2,2,0,1,1-2,2A1.95,1.95,0,0,1,88.52,81Z"/><path class="cls-1" d="M15.44,87a2.11,2.11,0,1,1-2.11,2.11A2.11,2.11,0,0,1,15.44,87Z"/><path class="cls-1" d="M7.32,62.67a2.11,2.11,0,1,1-2.11,2.11A2.1,2.1,0,0,1,7.32,62.67Z"/></g></svg>