<svg id="Слой_1" data-name="Слой 1" xmlns="http://www.w3.org/2000/svg" viewBox="0 0 100 100"><defs><style>.cls-1{fill:#fff;}</style></defs><g id="_873-Camera_Interface_User" data-name="873-Camera, Interface, User"><path class="cls-1" d="M61.87,73.19a15.92,15.92,0,0,1-10.68-3.93H13.8v2A7.7,7.7,0,0,0,21.5,79H76.64a7.7,7.7,0,0,0,7.69-7.69v-2H72.55A16,16,0,0,1,61.87,73.19Z"/><path class="cls-1" d="M71.14,67.85c.15-.31.31-.47.62-.47a14.46,14.46,0,0,0,4.72-10.84A12.42,12.42,0,0,0,76,53.08v-.31a14.8,14.8,0,1,0-14.3,18.69A16.17,16.17,0,0,0,71.14,67.85Zm-19-11.31a9.79,9.79,0,0,1,9.74-9.74,9.65,9.65,0,0,1,9.58,9.74,9.79,9.79,0,0,1-9.74,9.74A9.65,9.65,0,0,1,52.13,56.54Z"/><path class="cls-1" d="M69.57,56.54a7.7,7.7,0,1,0-7.7,7.7A7.72,7.72,0,0,0,69.57,56.54Z"/><polygon class="cls-1" points="66.89 26.06 48.83 26.06 47.41 32.03 68.47 32.03 66.89 26.06"/><rect class="cls-1" x="27.46" y="28.11" width="5.97" height="3.93"/><path class="cls-1" d="M78.52,56.54a17.59,17.59,0,0,1-3.93,10.84h9.9V53.55H78.36C78.36,54.5,78.52,55.44,78.52,56.54Z"/><path class="cls-1" d="M76.64,33.92H21.5a7.7,7.7,0,0,0-7.7,7.7v9.89H32.49a.95.95,0,1,1,0,1.89H13.8V67.22H49.14A16.73,16.73,0,0,1,61.87,39.73a16.93,16.93,0,0,1,16,11.78h6.6V41.62A7.84,7.84,0,0,0,76.64,33.92ZM38.3,54.5a2,2,0,1,1,2.05-2A2.08,2.08,0,0,1,38.3,54.5Z"/><path class="cls-1" d="M22.6,20.25a4.89,4.89,0,0,0,4.86-4.87,5,5,0,0,0-4.86-5,4.88,4.88,0,0,0-4.87,4.87A5,5,0,0,0,22.6,20.25Z"/><path class="cls-1" d="M35.32,85a3.93,3.93,0,1,0,3.93,3.93A3.89,3.89,0,0,0,35.32,85Z"/><path class="cls-1" d="M82.45,6.43a6,6,0,0,0-6,6,5.83,5.83,0,0,0,6,5.81,6,6,0,0,0,6-6A5.83,5.83,0,0,0,82.45,6.43Z"/><path class="cls-1" d="M91.24,21a2,2,0,1,1-2,2A2,2,0,0,1,91.24,21Z"/><path class="cls-1" d="M67.68,9.26a2,2,0,1,1-2,2A2,2,0,0,1,67.68,9.26Z"/><path class="cls-1" d="M40.19,15.23a2,2,0,1,1-2,2A2,2,0,0,1,40.19,15.23Z"/><path class="cls-1" d="M14.74,21a2,2,0,1,1-2,2A2,2,0,0,1,14.74,21Z"/><path class="cls-1" d="M52,87.8a2,2,0,1,1-2,2A2,2,0,0,1,52,87.8Z"/><path class="cls-1" d="M81.5,83.87a2,2,0,1,1-2,2A2.05,2.05,0,0,1,81.5,83.87Z"/><path class="cls-1" d="M10.81,82a2,2,0,1,1-2,2A2,2,0,0,1,10.81,82Z"/></g></svg>