<svg id="Слой_1" data-name="Слой 1" xmlns="http://www.w3.org/2000/svg" viewBox="0 0 100 100"><defs><style>.cls-1{fill:#fff;}</style></defs><g id="_619_Bubble_Speech_Text" data-name="619, Bubble, Speech, Text"><path class="cls-1" d="M15.78,19.85A4.76,4.76,0,1,0,11,15.09,4.78,4.78,0,0,0,15.78,19.85Z"/><path class="cls-1" d="M84.9,83.3a2.92,2.92,0,1,0,2.92,2.92A2.91,2.91,0,0,0,84.9,83.3Z"/><path class="cls-1" d="M60.94,44.89H26.38a19.21,19.21,0,0,0-2.61,38.25c.61.16.92.62.76,1.08L23,91.9l15.51-8.6a.56.56,0,0,1,.46-.16H61.09a19.13,19.13,0,1,0-.15-38.25ZM46.5,73.62h-21a.92.92,0,1,1,0-1.84H46.5a.92.92,0,1,1,0,1.84Zm7.68-5.68H17.77a.93.93,0,0,1,0-1.85H54.18a.93.93,0,0,1,0,1.85Zm5.84.92a2,2,0,1,1,2-2A2.15,2.15,0,0,1,60,68.86ZM65.7,62.1H31.14a.93.93,0,0,1,0-1.85H65.7a.93.93,0,0,1,0,1.85Zm0-5.69H17.77a.92.92,0,0,1,0-1.84H65.86a1,1,0,0,1,.92.92C66.78,56,66.16,56.41,65.7,56.41Z"/><path class="cls-1" d="M93.51,39.06A19.32,19.32,0,0,0,76.92,20a.82.82,0,0,1-.77-1.08l1.53-7.68-15.51,8.6a.55.55,0,0,1-.46.16h-22A19.25,19.25,0,0,0,21,43.66a19.5,19.5,0,0,1,5.22-.61H60.79a21.26,21.26,0,0,1,20,14.29A19.57,19.57,0,0,0,93.51,39.06ZM44.2,26a19.12,19.12,0,0,0-16.13,8.76,1,1,0,0,1-1.39.3,1,1,0,0,1-.3-1.38A21.2,21.2,0,0,1,44,24.16a1,1,0,0,1,.92.92A.71.71,0,0,1,44.2,26Z"/><path class="cls-1" d="M71.54,89.9a2,2,0,1,1-2,2A2,2,0,0,1,71.54,89.9Z"/><path class="cls-1" d="M90.74,63a2,2,0,1,1-2,2A2,2,0,0,1,90.74,63Z"/><path class="cls-1" d="M86.9,11.1a2,2,0,1,1-2,2A2,2,0,0,1,86.9,11.1Z"/><path class="cls-1" d="M37,7.26a2,2,0,1,1-2,2A2,2,0,0,1,37,7.26Z"/><path class="cls-1" d="M13.93,32.3a2,2,0,1,1-2,2A2,2,0,0,1,13.93,32.3Z"/></g></svg>