<svg id="Слой_1" data-name="Слой 1" xmlns="http://www.w3.org/2000/svg" viewBox="0 0 100 100"><defs><style>.cls-1{fill:#fff;}</style></defs><g id="_237-Atom_Molecule_Science" data-name="237-Atom, Molecule, Science"><path class="cls-1" d="M10.58,11.7a2.14,2.14,0,1,1-2.16,2.14A2.15,2.15,0,0,1,10.58,11.7Z"/><path class="cls-1" d="M48,15.81A2.14,2.14,0,1,1,45.83,18,2.15,2.15,0,0,1,48,15.81Z"/><path class="cls-1" d="M64.61,7.58a2.14,2.14,0,1,1-2.16,2.14A2.15,2.15,0,0,1,64.61,7.58Z"/><path class="cls-1" d="M89.55,36.39a2.14,2.14,0,1,1-2.16,2.14A2.15,2.15,0,0,1,89.55,36.39Z"/><path class="cls-1" d="M77.08,79.52a2.14,2.14,0,1,1-2.16,2.14A2.15,2.15,0,0,1,77.08,79.52Z"/><path class="cls-1" d="M45.83,77.54a2.14,2.14,0,1,1-2.16,2.14A2.15,2.15,0,0,1,45.83,77.54Z"/><path class="cls-1" d="M12.58,48.74a2.14,2.14,0,1,1-2.17,2.14A2.15,2.15,0,0,1,12.58,48.74Z"/><path class="cls-1" d="M77.25,25.2a6.92,6.92,0,0,0,5-11.86,7.3,7.3,0,0,0-10,0,7,7,0,0,0-.66,9.06L49.32,44.46A9.74,9.74,0,0,0,43,42.32a9.61,9.61,0,0,0-6.32,2.3l-11.8-9a6.76,6.76,0,0,0-.83-8.89,7,7,0,1,0-5,11.85,7.19,7.19,0,0,0,4.32-1.48L35.19,46.1A10.46,10.46,0,0,0,33,52.19a9.69,9.69,0,0,0,2.16,6.09l-8.82,6.09a6.58,6.58,0,0,0-4.32-1.48,6.92,6.92,0,1,0,5,11.86,7,7,0,0,0,.83-8.89l8.81-6.26a10.07,10.07,0,0,0,6.49,2.31,10.82,10.82,0,0,0,6.31-2.14l6,5.92a7,7,0,0,0,.66,9.06,7,7,0,1,0,5-11.86A7.34,7.34,0,0,0,57,64.21l-6-5.93A9.53,9.53,0,0,0,53.14,52,10.56,10.56,0,0,0,51,45.77L73.26,23.71A5,5,0,0,0,77.25,25.2Z"/><path class="cls-1" d="M81.24,49.72a5.11,5.11,0,1,0,5.15,5.11A5.15,5.15,0,0,0,81.24,49.72Z"/><path class="cls-1" d="M15.73,82.65a4.12,4.12,0,1,0,4.16,4.11A4.09,4.09,0,0,0,15.73,82.65Z"/><path class="cls-1" d="M32.36,18.94A6.26,6.26,0,1,0,26,12.68,6.29,6.29,0,0,0,32.36,18.94Z"/></g></svg>