<?xml version="1.0" standalone="no"?>
<!DOCTYPE svg PUBLIC "-//W3C//DTD SVG 1.1//EN" "http://www.w3.org/Graphics/SVG/1.1/DTD/svg11.dtd" >
<svg xmlns="http://www.w3.org/2000/svg" xmlns:xlink="http://www.w3.org/1999/xlink" version="1.1">
<metadata>
Created by FontForge 20200511 at Thu Sep  9 06:33:14 2021
 By convertio
Block Paper (c) dumadistyle2021. All Rights Reserved
</metadata>
<defs>
<font id="BlockPaper" horiz-adv-x="1120" >
  <font-face 
    font-family="Block Paper"
    font-weight="400"
    font-stretch="normal"
    units-per-em="2048"
    panose-1="2 0 5 0 0 0 0 0 0 0"
    ascent="1638"
    descent="-410"
    x-height="1494"
    cap-height="1514"
    bbox="-166 -410 2748 1814"
    underline-thickness="150"
    underline-position="-292"
    unicode-range="U+001D-E4FD"
  />
<missing-glyph horiz-adv-x="904" 
d="M0 0v1434h824v-1434h-824zM50 50q177 80 358 80t366 -80v1334q-192 -59 -373 -59t-351 59v-1334zM319 334l57 58q11 10 20 10q10 0 22 -11l56 -60q9 -11 9 -20q0 -11 -10 -22l-56 -62q-14 -14 -21 -14q-11 0 -20 10l-61 71q-7 9 -7 18q0 10 11 22zM313 1191q53 30 112 30
q92 0 148 -47.5t56 -127.5q0 -49 -23 -98.5t-87 -129.5q-63 -80 -99 -132t-36 -99q0 -38 24 -133h-32q-35 97 -35 148q0 76 81.5 218t81.5 217q0 57 -33 90t-91 33q-8 0 -16 -1l32 -51q5 -9 5 -17v-4q-2 -11 -14 -20l-66 -50q-16 -10 -23 -10h-1q-10 2 -17 14l-47 81
q-4 7 -4 14q0 2 1 5q1 10 28.5 32.5t54.5 37.5z" />
    <glyph glyph-name="ks" unicode="ks" horiz-adv-x="2127" 
d="M1678 3l-785 30l-23 371l341 62l-22 -275l486 -30l-16 499l-771 -31l-3 531l344 81l-1 -439l678 53l-40 -609q-183 -235 -188 -243zM587 -133l-213 658l-2 -387l-358 -142l-14 1353l381 129l-4 -619l334 552l173 82l1005 20l-25 -413l-222 -122l-1 340l-850 17l-389 -657
l140 197l316 -838z" />
    <glyph glyph-name="an" unicode="an" horiz-adv-x="2168" 
d="M713 -28l-1 650l-588 -26l232 -8l-6 -477l-350 -105l2 1258l375 180l681 30l-48 -1324l665 4l-109 -161l-851 -20zM1820 37v3l-6 -3l-458 1002l132 -343l-3 -281l-348 -157l-8 1179l371 50l299 -741l-21 707l301 58l9 -1414zM356 765l355 9l-1 504l-524 -11l167 -10z" />
    <glyph glyph-name="es" unicode="es" horiz-adv-x="2039" 
d="M1668 -20l-785 30l-23 370l341 63l-22 -275l486 -31l-16 500l-771 -31l-4 482l344 100v-410l1 1l677 53l-40 -609q-183 -235 -188 -243zM17 -11l31 18l-39 -10l-9 1275l325 174l1552 42l2 1l-23 -339l-186 -240l-37 383l-1482 -19l217 -10l-3 -497l412 12l-82 -152
l-539 -27l196 -5l-29 -433l467 14l-82 -152z" />
    <glyph glyph-name="us" unicode="us" horiz-adv-x="2212" 
d="M1869 2l-1115 42l226 162l886 -47l-16 500l-719 -31l25 521l315 142v-486l626 49l-40 -608q-183 -236 -188 -244zM246 -1l-246 113l4 1262l323 105l2 -1209l70 -104l250 -11l47 36l8 1116l299 173l1077 32l-22 -340l-187 -240l-37 385l-832 -7l-7 -895l-250 -280
l-177 -132l-321 -3z" />
    <glyph glyph-name="st" unicode="st" horiz-adv-x="1767" 
d="M1126 -162v1445l-948 -21l180 -21v-490l1 1l677 53l-40 -609q-183 -235 -188 -244l-785 31l-23 370l341 63l-22 -276l486 -30l-16 500l-771 -31l-3 679l363 174l1459 56l-247 -195l-315 -7l215 -25l-16 -1225z" />
    <glyph glyph-name="ch" unicode="ch" horiz-adv-x="2138" 
d="M1062 7h-1038l-24 1277l396 166l592 27l-51 -461l-288 -143l-15 412l-421 -1l179 -12l-19 -1070l687 -10l-8 458l-2 753l384 115l-20 -691l286 9l18 577l340 111l-21 -1328l-361 -144l19 631l-511 -27l226 -13l-27 -433z" />
    <glyph glyph-name="ki" unicode="ki" horiz-adv-x="1494" 
d="M587 -147l-213 658l-2 -388l-358 -141l-14 1353l380 129l-3 -616l344 591l623 68l-17 -261l-345 -63l-14 184l-149 -28l-408 -663l131 185l316 -838zM934 -80l50 1093l340 111l-28 -1102z" />
    <glyph glyph-name="er" unicode="er" horiz-adv-x="2088" 
d="M1575 -112l-278 737l-92 -4l-2 -60l-3 1l-39 -472l-309 -80q-5 637 -8 1274l-683 -6l207 -9l-3 -498l412 12l-82 -151l-539 -28l196 -5l-29 -432l467 13l-82 -151l-699 -28l-9 1275l325 174l1585 39l-43 -609l-197 -240l-67 -3l268 -628zM1209 778l456 12l-17 501
l-714 -6l289 -40z" />
    <glyph glyph-name="wi" unicode="wi" horiz-adv-x="2226" 
d="M355 11l-355 1329l380 141l127 -984l219 706l294 34l116 -736l258 914l752 105l-17 -261l-345 -63l-14 184l-55 -11l-349 -1304l-366 -48l-216 935l19 -262l-242 -612zM1736 -67l50 1092l340 111l-28 -1101z" />
    <glyph glyph-name="vi" unicode="vi" horiz-adv-x="1830" 
d="M381 8l-381 1329l363 141l164 -1057l368 1049l649 90l-17 -261l-345 -63l-14 184l-36 -7l-398 -1350zM1134 -27l50 1092l340 112l-28 -1102z" />
    <glyph glyph-name="ov" unicode="ov" horiz-adv-x="2242" 
d="M1365 13l-330 1311l-791 -11l145 -11l-74 -160h2l20 -852l68 -103l274 -10l52 38l7 801l-55 64l-216 -165l125 271l285 99l123 -128l-8 -746l-207 -256l-206 -132l-322 -3l-1 -1l-240 113l-16 1013l116 166l353 165l885 22l156 -1058l388 1139l264 30l-485 -1521z" />
    <glyph glyph-name="pp" unicode="pp" horiz-adv-x="2263" 
d="M1868 747l34 530l-415 40l-1 -538zM1140 10l-33 1343l-5 1l401 140l680 -41l-105 -633l-221 -230l1 5l-3 -3l-370 24v-418zM366 781l455 11l-17 505l-651 -7l227 -33zM9 13l-9 1275l386 174l681 30l-43 -609l-198 -240l-464 -20l-45 -530z" />
    <glyph glyph-name="mm" unicode="mm" horiz-adv-x="2828" 
d="M915 -185l44 982l-219 -521l-241 -126l-208 627l56 -262l2 -465l-349 -144l72 1531h352l228 -825l-81 -274l409 1065l350 57l-66 -1500zM1452 -85l25 1551l356 10l257 -827l-74 -279l380 1090l352 69l-9 -1319l-348 -157l3 793l-205 -534l-240 -135l-230 628l65 -263
l16 -470z" />
    <glyph glyph-name="on" unicode="on" horiz-adv-x="2152" 
d="M1227 -13l-972 11l-239 113l-16 1012l116 167l353 165l382 13q95 -59 189 -119l-11 -766l-207 -255l-207 -132l-184 219l2 640l210 78l-16 -593l112 -173l28 21l11 767l-124 141l-408 -5l142 -11l-74 -160h3l20 -852l67 -101l750 -6l-5 1292l321 44l268 -716l-26 686
l260 50l26 -1374l-233 -52v1l-1 -1l-428 1073l124 -446v-560z" />
    <glyph glyph-name="om" unicode="om" horiz-adv-x="2517" 
d="M1227 11l-972 11l-239 113l-16 1012l115 167l354 165l420 14l189 -120l-12 -766l-207 -255l-207 -132l-184 219l2 640l211 78l-17 -593l113 -172l27 20l11 767l-124 141l1 1l-446 -6l142 -11l-74 -160h3l20 -852l67 -101l770 -7l-8 1299l355 10l258 -827l-74 -280
l380 1090l352 69l-9 -1318l-348 -158l3 794l-205 -534l-240 -135l-230 627l65 -263l-13 -376z" />
    <glyph glyph-name="of" unicode="of" horiz-adv-x="2189" 
d="M650 -101l-183 219l2 473l203 160l138 5l5 425l-124 141l2 1l-447 -6l142 -11l-74 -160h3l20 -852l91 -138l-172 -132l-240 113l-16 1012l115 167l354 165l420 14l189 -120l-8 -610l144 5l-6 521l10 2h-5l325 173l571 31l-220 -195l-531 -7l222 -17l-2 -495l337 11
l-82 -151l-445 -17l183 -16l10 -596l-362 -77l-3 682l-148 -5l-4 -328l-207 -255zM775 70l27 21l6 513l-139 -5l-7 -356z" />
    <glyph glyph-name="ee" unicode="ee" horiz-adv-x="1741" 
d="M40 -65q-61 635 -120 1270l308 202l567 80l-202 -214l-525 -53l219 9l41 -495l409 48l-68 -158l-535 -75l196 13l9 -434l442 74q-5 543 -7 1086l324 173l572 31l-220 -195l-528 -7l219 -10l-2 -497l411 12l-82 -152l-538 -27l195 -5l-29 -433l467 14l-82 -152l-699 -27
v15zM777 608l2 1zM-17 528l1 1z" />
    <glyph glyph-name="gg" unicode="gg" horiz-adv-x="2382" 
d="M1226 15l-24 1277l396 166l681 30l-43 -407l-288 -143l-29 355h-533l198 -17l-9 -1066l394 -8l-4 302l-274 -5l190 166l421 35l-61 -477l-270 -206zM105 -59l-105 1273l385 190l677 74l-17 -410l-278 -161l-52 353l-532 -35l199 -4l58 -1064l394 17l-23 301l-273 -23
l179 178l418 62l-31 -480l-256 -222z" />
    <glyph glyph-name="ll" unicode="ll" horiz-adv-x="1353" 
d="M516 285l-16 1117l381 129l-7 -1071l4 1l395 11l-131 -172zM14 13l-14 1353l380 129l-8 -1308l4 2l801 11l-131 -172z" />
    <glyph glyph-name="oo" unicode="oo" horiz-adv-x="2276" 
d="M650 -105l-184 219l3 473l203 161l138 3l5 426l-124 141l1 1l-446 -5l142 -12l-74 -159h2l21 -852l91 -139l-173 -132l-239 113l-16 1012l115 167l353 165l421 14l188 -119l-7 -615l103 3l1 538l317 101l1 -631l83 2l10 568l259 147l164 11l188 -119l-9 -960l-207 -256
l-198 -126l-4 -6l-365 -3l-1 -1l-240 113l1 479l-105 -4l-4 -331l-207 -255zM1871 181l54 40l9 961l-97 111l-58 -32l-7 -486l-199 -141l-81 -3l1 -335l67 -103zM774 67l28 20l6 515l-139 -6l-7 -357z" />
    <glyph glyph-name="ss" unicode="ss" horiz-adv-x="2181" 
d="M0 -63l175 204l1702 -5l-23 294l-627 -31l2 886l245 175l624 33l-49 -559l-192 -186l-7 550l-456 -9l179 -20l-10 -704l538 61l-27 -399q-183 -235 -187 -243zM40 195l-12 405l340 62l-25 -259l590 60l-6 363l-912 -43l-2 511l363 174l641 30l-19 -292l-187 -184l-39 282
l-2 -1l-581 -7l167 -19v-321l818 69l-51 -550l-186 -240z" />
    <glyph glyph-name="tt" unicode="tt" horiz-adv-x="1607" 
d="M341 -123v1442l-341 -5l239 174l786 17l-111 -121l613 13l-163 -179l-338 -5l181 -20l-13 -1028l-348 -198l-3 1244l-149 -2l-5 -1134z" />
    <glyph glyph-name="th" unicode="th" horiz-adv-x="2099" 
d="M341 -125v1441l-341 -4l239 174l960 19l5 1l-20 -690l286 8l17 577l340 111l-20 -1328l-361 -144l19 631l-511 -26l225 -13l-38 -617l-308 -81l-11 704l-2 685l-294 -4l179 -21l-16 -1225z" />
    <glyph glyph-name=".notdef" horiz-adv-x="904" 
d="M0 0v1434h824v-1434h-824zM50 50q177 80 358 80t366 -80v1334q-192 -59 -373 -59t-351 59v-1334zM319 334l57 58q11 10 20 10q10 0 22 -11l56 -60q9 -11 9 -20q0 -11 -10 -22l-56 -62q-14 -14 -21 -14q-11 0 -20 10l-61 71q-7 9 -7 18q0 10 11 22zM313 1191q53 30 112 30
q92 0 148 -47.5t56 -127.5q0 -49 -23 -98.5t-87 -129.5q-63 -80 -99 -132t-36 -99q0 -38 24 -133h-32q-35 97 -35 148q0 76 81.5 218t81.5 217q0 57 -33 90t-91 33q-8 0 -16 -1l32 -51q5 -9 5 -17v-4q-2 -11 -14 -20l-66 -50q-16 -10 -23 -10h-1q-10 2 -17 14l-47 81
q-4 7 -4 14q0 2 1 5q1 10 28.5 32.5t54.5 37.5z" />
    <glyph glyph-name="uni0000" horiz-adv-x="80" 
 />
    <glyph glyph-name="uni0000" horiz-adv-x="80" 
 />
    <glyph glyph-name="uni0009" horiz-adv-x="80" 
 />
    <glyph glyph-name="space" unicode=" " horiz-adv-x="774" 
 />
    <glyph glyph-name="space" unicode="&#xa0;" horiz-adv-x="774" 
 />
    <glyph glyph-name="A" unicode="A" horiz-adv-x="1137" 
d="M355 770l355 8v504l-524 -10l166 -11zM709 -114l1 740l-586 -25l232 -9l-6 -476l-350 -106l2 1258l374 181l681 30l-83 -1470z" />
    <glyph glyph-name="B" unicode="B" horiz-adv-x="1146" 
d="M840 184l-7 319l-135 143l-526 -22l181 -11l-5 -405zM844 -5l-836 26l-8 1275l385 174l681 30l-43 -609l-113 -110l148 -121l-20 -496zM364 789l1 1l432 10l7 509l-576 -9l128 -11z" />
    <glyph glyph-name="C" unicode="C" horiz-adv-x="1179" 
d="M24 29l-24 1277l396 165l681 31l-43 -408l-288 -143l-29 356l-504 -1l180 -12l-20 -1071l394 -8l-4 303l336 195l-60 -477l-270 -206z" />
    <glyph glyph-name="D" unicode="D" horiz-adv-x="1145" 
d="M740 180l35 30l28 962l-171 135l-460 -3l200 -15l5 -1097l4 2zM19 21l-19 1282l386 174l424 19l255 -121l-47 -962l-169 -253l-198 -126l-4 -6z" />
    <glyph glyph-name="E" unicode="E" horiz-adv-x="976" 
d="M9 -1l-9 1276l325 173l571 31l-220 -195l-528 -7l219 -10l-2 -497l412 12l-82 -152l-539 -27l196 -5l-29 -433l466 14l-82 -152z" />
    <glyph glyph-name="F" unicode="F" horiz-adv-x="981" 
d="M11 -76l-11 1355l330 175l571 31l-220 -195l-531 -7l222 -17l-2 -489l334 15l-82 -152l-523 -33l264 -9l10 -596z" />
    <glyph glyph-name="G" unicode="G" horiz-adv-x="1179" 
d="M24 5l-24 1277l396 165l674 30l1 1v-1l6 1l-7 -5l-36 -403l-288 -143l-29 356l-533 -1l198 -17l-9 -1066l394 -8l-4 303l-274 -6l189 166l421 35l-60 -477l-270 -205z" />
    <glyph glyph-name="H" unicode="H" horiz-adv-x="1088" 
d="M13 -95l-13 1458l384 114l-20 -690l286 9l17 576l341 112l-21 -1328l-361 -144l19 631l-511 -27l225 -13l-38 -617z" />
    <glyph glyph-name="I" unicode="I" horiz-adv-x="479" 
d="M0 -48l58 1451l341 111l-37 -1460z" />
    <glyph glyph-name="J" unicode="J" horiz-adv-x="970" 
d="M695 28h-641l-54 488l283 137l33 -457l201 -5l-9 1152l382 125l-23 -1285z" />
    <glyph glyph-name="K" unicode="K" horiz-adv-x="964" 
d="M587 -138l-213 658l-2 -387l-358 -142l-14 1353l380 129l-4 -616l344 591l164 40l-482 -815l140 197l316 -838z" />
    <glyph glyph-name="L" unicode="L" horiz-adv-x="852" 
d="M14 -2l-14 1353l381 129l-9 -1307l400 12l-131 -172z" />
    <glyph glyph-name="M" unicode="M" horiz-adv-x="1376" 
d="M0 -136l26 1551l355 10l245 -797l-62 -310l380 1091l352 68l-8 -1318l-349 -157l3 793l-205 -534l-240 -135l-230 628l65 -264l17 -469z" />
    <glyph glyph-name="N" unicode="N" horiz-adv-x="1039" 
d="M1 -103l-1 1515l370 50l300 -741l-21 707l300 58l10 -1414l-275 -60l-458 1003l126 -372l-2 -589z" />
    <glyph glyph-name="O" unicode="O" 
d="M715 179l53 41l10 960l-124 142l-408 -5l142 -11l-74 -160l23 -852l67 -102zM256 23l-240 113l-16 1013l115 166l353 165l383 14l189 -119l-10 -960l-207 -256l-197 -126l-4 -6l-366 -3v-1z" />
    <glyph glyph-name="P" unicode="P" horiz-adv-x="1146" 
d="M366 786l455 11l-17 504l-652 -7l227 -33zM9 17l-9 1275l385 174l681 30l-43 -609l-197 -240l-465 -19l-44 -531z" />
    <glyph glyph-name="Q" unicode="Q" 
d="M597 186l-266 338l6 -229l67 -102zM769 -33l-83 106l-60 -38l-4 -6l-368 -4l-238 113l-16 1012l115 167l353 165l383 14l189 -120l-10 -960l-135 -167l128 -178zM770 422l8 760l-124 141l-411 -5l162 -10l-89 -161l14 -557l293 37z" />
    <glyph glyph-name="R" unicode="R" horiz-adv-x="1146" 
d="M732 -93l-279 737l-92 -4l-44 -531l-308 -80q-6 637 -9 1275l385 174l681 30l-43 -609l-197 -239l-67 -3l268 -629zM366 798l455 11l-17 504l-631 -7l207 -14z" />
    <glyph glyph-name="S" unicode="S" horiz-adv-x="1116" 
d="M808 1l-785 30l-23 370l341 63l-22 -275l485 -31l-15 500l-771 -31l-4 679l363 174l642 30l-23 -339l-186 -240l-38 384l-581 -7l167 -19v-490l1 1l677 53l-41 -609q-182 -235 -187 -243z" />
    <glyph glyph-name="T" unicode="T" horiz-adv-x="1104" 
d="M341 -105v1441l-341 -5l239 174l785 18l-162 -179l-339 -5l182 -21l-16 -1225z" />
    <glyph glyph-name="U" unicode="U" horiz-adv-x="1083" 
d="M245 40l-245 113l4 1262l322 105l3 -1209l69 -103l251 -12l47 36l8 1232l299 132l-8 -1140l-251 -280l-177 -131l-321 -4z" />
    <glyph glyph-name="V" unicode="V" horiz-adv-x="1258" 
d="M381 27l-381 1329l362 141l162 -1048l389 1144l265 30l-485 -1521z" />
    <glyph glyph-name="W" unicode="W" horiz-adv-x="1827" 
d="M355 37l-355 1329l380 141l127 -984l219 706l294 34l116 -735l272 969l339 25l-352 -1427l-395 -52l-216 935l19 -262l-243 -612z" />
    <glyph glyph-name="X" unicode="X" horiz-adv-x="1409" 
d="M965 27l-389 644l65 -164l-296 -432l-345 -48l513 749l-350 580l406 141l172 -388l227 331l361 69l-465 -677l303 -685z" />
    <glyph glyph-name="Y" unicode="Y" horiz-adv-x="1095" 
d="M96 -106l288 638l-384 900l338 75l218 -593l257 571l202 -1l-602 -1525z" />
    <glyph glyph-name="Z" unicode="Z" horiz-adv-x="1169" 
d="M0 46l708 1220l-598 -57l213 267l766 20l-660 -1212l526 37l-181 -271z" />
    <glyph glyph-name="a" unicode="a" horiz-adv-x="1137" 
d="M355 770l355 8v504l-524 -10l166 -11zM709 -114l1 740l-586 -25l232 -9l-6 -476l-350 -106l2 1258l374 181l681 30l-83 -1470z" />
    <glyph glyph-name="b" unicode="b" horiz-adv-x="1146" 
d="M840 184l-7 319l-135 143l-526 -22l181 -11l-5 -405zM844 -5l-836 26l-8 1275l385 174l681 30l-43 -609l-113 -110l148 -121l-20 -496zM364 789l1 1l432 10l7 509l-576 -9l128 -11z" />
    <glyph glyph-name="c" unicode="c" horiz-adv-x="1179" 
d="M24 29l-24 1277l396 165l681 31l-43 -408l-288 -143l-29 356l-504 -1l180 -12l-20 -1071l394 -8l-4 303l336 195l-60 -477l-270 -206z" />
    <glyph glyph-name="d" unicode="d" horiz-adv-x="1145" 
d="M740 180l35 30l28 962l-171 135l-460 -3l200 -15l5 -1097l4 2zM19 21l-19 1282l386 174l424 19l255 -121l-47 -962l-169 -253l-198 -126l-4 -6z" />
    <glyph glyph-name="e" unicode="e" horiz-adv-x="976" 
d="M9 -1l-9 1276l325 173l571 31l-220 -195l-528 -7l219 -10l-2 -497l412 12l-82 -152l-539 -27l196 -5l-29 -433l466 14l-82 -152z" />
    <glyph glyph-name="f" unicode="f" horiz-adv-x="981" 
d="M11 -76l-11 1355l330 175l571 31l-220 -195l-531 -7l222 -17l-2 -489l334 15l-82 -152l-523 -33l264 -9l10 -596z" />
    <glyph glyph-name="g" unicode="g" horiz-adv-x="1179" 
d="M24 5l-24 1277l396 165l674 30l1 1v-1l6 1l-7 -5l-36 -403l-288 -143l-29 356l-533 -1l198 -17l-9 -1066l394 -8l-4 303l-274 -6l189 166l421 35l-60 -477l-270 -205z" />
    <glyph glyph-name="h" unicode="h" horiz-adv-x="1088" 
d="M13 -95l-13 1458l384 114l-20 -690l286 9l17 576l341 112l-21 -1328l-361 -144l19 631l-511 -27l225 -13l-38 -617z" />
    <glyph glyph-name="i" unicode="i" horiz-adv-x="479" 
d="M0 -48l58 1451l341 111l-37 -1460z" />
    <glyph glyph-name="j" unicode="j" horiz-adv-x="970" 
d="M695 28h-641l-54 488l283 137l33 -457l201 -5l-9 1152l382 125l-23 -1285z" />
    <glyph glyph-name="k" unicode="k" horiz-adv-x="964" 
d="M587 -138l-213 658l-2 -387l-358 -142l-14 1353l380 129l-4 -616l344 591l164 40l-482 -815l140 197l316 -838z" />
    <glyph glyph-name="l" unicode="l" horiz-adv-x="852" 
d="M14 -2l-14 1353l381 129l-9 -1307l400 12l-131 -172z" />
    <glyph glyph-name="m" unicode="m" horiz-adv-x="1376" 
d="M0 -136l26 1551l355 10l245 -797l-62 -310l380 1091l352 68l-8 -1318l-349 -157l3 793l-205 -534l-240 -135l-230 628l65 -264l17 -469z" />
    <glyph glyph-name="n" unicode="n" horiz-adv-x="1039" 
d="M1 -103l-1 1515l370 50l300 -741l-21 707l300 58l10 -1414l-275 -60l-458 1003l126 -372l-2 -589z" />
    <glyph glyph-name="o" unicode="o" 
d="M715 179l53 41l10 960l-124 142l-408 -5l142 -11l-74 -160l23 -852l67 -102zM256 23l-240 113l-16 1013l115 166l353 165l383 14l189 -119l-10 -960l-207 -256l-197 -126l-4 -6l-366 -3v-1z" />
    <glyph glyph-name="p" unicode="p" horiz-adv-x="1146" 
d="M366 786l455 11l-17 504l-652 -7l227 -33zM9 17l-9 1275l385 174l681 30l-43 -609l-197 -240l-465 -19l-44 -531z" />
    <glyph glyph-name="q" unicode="q" 
d="M597 186l-266 338l6 -229l67 -102zM769 -33l-83 106l-60 -38l-4 -6l-368 -4l-238 113l-16 1012l115 167l353 165l383 14l189 -120l-10 -960l-135 -167l128 -178zM770 422l8 760l-124 141l-411 -5l162 -10l-89 -161l14 -557l293 37z" />
    <glyph glyph-name="r" unicode="r" horiz-adv-x="1146" 
d="M732 -93l-279 737l-92 -4l-44 -531l-308 -80q-6 637 -9 1275l385 174l681 30l-43 -609l-197 -239l-67 -3l268 -629zM366 798l455 11l-17 504l-631 -7l207 -14z" />
    <glyph glyph-name="s" unicode="s" horiz-adv-x="1116" 
d="M808 1l-785 30l-23 370l341 63l-22 -275l485 -31l-15 500l-771 -31l-4 679l363 174l642 30l-23 -339l-186 -240l-38 384l-581 -7l167 -19v-490l1 1l677 53l-41 -609q-182 -235 -187 -243z" />
    <glyph glyph-name="t" unicode="t" horiz-adv-x="1104" 
d="M341 -105v1441l-341 -5l239 174l785 18l-162 -179l-339 -5l182 -21l-16 -1225z" />
    <glyph glyph-name="u" unicode="u" horiz-adv-x="1083" 
d="M245 10l-245 113l4 1262l322 105l3 -1209l69 -103l251 -12l47 36l8 1232l299 132l-8 -1140l-251 -280l-177 -131l-321 -4z" />
    <glyph glyph-name="v" unicode="v" horiz-adv-x="1258" 
d="M381 27l-381 1329l362 141l162 -1048l389 1144l265 30l-485 -1521z" />
    <glyph glyph-name="w" unicode="w" horiz-adv-x="1827" 
d="M355 37l-355 1329l380 141l127 -984l219 706l294 34l116 -735l272 969l339 25l-352 -1427l-395 -52l-216 935l19 -262l-243 -612z" />
    <glyph glyph-name="x" unicode="x" horiz-adv-x="1409" 
d="M965 27l-389 644l65 -164l-296 -432l-345 -48l513 749l-350 580l406 141l172 -388l227 331l361 69l-465 -677l303 -685z" />
    <glyph glyph-name="y" unicode="y" horiz-adv-x="1095" 
d="M96 -106l288 638l-384 900l338 75l218 -593l257 571l202 -1l-602 -1525z" />
    <glyph glyph-name="z" unicode="z" horiz-adv-x="1169" 
d="M0 46l708 1220l-598 -57l213 267l766 20l-660 -1212l526 37l-181 -271z" />
    <glyph glyph-name="zero" unicode="0" horiz-adv-x="1121" 
d="M715 171l54 40l9 961l-124 141l-225 -2l-112 -176l20 -849l68 -103zM255 15l-239 113l-16 1012l116 167l353 165l383 14q94 -60 189 -119l-10 -960l-207 -256l-198 -126l-4 -6z" />
    <glyph glyph-name="one" unicode="1" horiz-adv-x="620" 
d="M156 -16l8 1192l-164 -100l210 421l330 -16l-74 -1365z" />
    <glyph glyph-name="two" unicode="2" horiz-adv-x="1078" 
d="M0 22l54 618l296 120l225 2l81 483l-502 -47h212l-4 -163l-340 -142l-3 294h1l212 264l766 20l-105 -706l-211 -96l-530 -24l179 -11l-42 -381l626 43l-141 -270z" />
    <glyph glyph-name="three" unicode="3" horiz-adv-x="1037" 
d="M735 -16l-726 27l-8 347l350 -4l-2 -156l382 -24l-6 319l-135 143l-303 -13l191 165l211 3l6 507l-476 -21l136 -14l6 -224l-361 -141l1 388l385 174l571 30l-43 -609l-113 -110l148 -122l-20 -496z" />
    <glyph glyph-name="four" unicode="4" horiz-adv-x="1001" 
d="M580 21l17 601l-597 -34l14 817l341 100l-31 -722l277 9l16 590l304 111l-18 -1328z" />
    <glyph glyph-name="five" unicode="5" horiz-adv-x="990" 
d="M661 7l-641 26l-20 370l299 63l-19 -271l375 2l-17 460l-623 -28l-3 679l319 174l564 30l-218 -195l-510 -7l147 -18v-491l1 1l595 53l-45 -609z" />
    <glyph glyph-name="six" unicode="6" horiz-adv-x="977" 
d="M649 -9l-642 27l-4 596l-3 679l319 174l563 30l-217 -195l-510 -7l147 -19v-489l595 53l-44 -609zM307 180l335 2l-16 460l-288 -13z" />
    <glyph glyph-name="seven" unicode="7" horiz-adv-x="1059" 
d="M156 -9l128 687l270 112l83 493l-637 -60l213 266l766 20l-105 -706l-211 -96l-255 -33l153 -2l-122 -576z" />
    <glyph glyph-name="eight" unicode="8" horiz-adv-x="1146" 
d="M843 11l-834 2l-6 596l-3 679l385 174l681 30l-24 -1266zM357 174l480 15l-14 454l-459 -19zM366 782l452 11l-17 504l-421 -14z" />
    <glyph glyph-name="nine" unicode="9" horiz-adv-x="1147" 
d="M19 15l-4 362l364 149l6 -338l451 11l-16 454l-816 -35l-4 680l386 173l681 31l-25 -1266l-200 -186zM366 791l449 11l-18 505l-416 -8z" />
    <glyph glyph-name="ordfeminine" unicode="&#xaa;" horiz-adv-x="777" 
d="M235 1171l233 5l1 302l-346 -6l109 -6zM468 641v444l-386 -15l153 -6l-4 -286l-231 -63l1 755l247 108l450 18l-55 -882zM219 308l33 133l227 33l-24 -155z" />
    <glyph glyph-name="uni00B9" unicode="&#xb9;" horiz-adv-x="620" 
d="M156 -16l8 1192l-164 -100l210 421l330 -16l-74 -1365z" />
    <glyph glyph-name="uni00B2" unicode="&#xb2;" horiz-adv-x="1078" 
d="M0 22l54 618l296 120l225 2l81 483l-502 -47h212l-4 -163l-340 -142l-3 294h1l212 264l766 20l-105 -706l-211 -96l-530 -24l179 -11l-42 -381l626 43l-141 -270z" />
    <glyph glyph-name="uni00B3" unicode="&#xb3;" horiz-adv-x="1037" 
d="M735 -16l-726 27l-8 347l350 -4l-2 -156l382 -24l-6 319l-135 143l-303 -13l191 165l211 3l6 507l-476 -21l136 -14l6 -224l-361 -141l1 388l385 174l571 30l-43 -609l-113 -110l148 -122l-20 -496z" />
    <glyph glyph-name="ordmasculine" unicode="&#xba;" horiz-adv-x="766" 
d="M472 808l35 24l6 576l-81 85l-270 -3l94 -7l-49 -96l15 -511l45 -61zM168 714l-158 68l-10 607l76 100l233 99l253 8l124 -71l-6 -576l-137 -154l-130 -75l-2 -4zM213 381l33 133l227 33l-24 -155z" />
    <glyph glyph-name="percent" unicode="%" horiz-adv-x="1311" 
d="M57 -16l516 909l-131 -63l-440 -19l-2 540l250 138l442 24l-11 -10l9 5l-10 -428l207 363l309 76l-469 -857l62 34l442 25l-11 -10l9 5l-13 -566l-235 -113l-440 -19l-1 302l-149 -271zM776 156l205 8l-2 398l-194 -8zM237 948l205 8l-2 399l-193 -8z" />
    <glyph glyph-name="dollar" unicode="$" horiz-adv-x="1116" 
d="M425 -42l2 44l-404 15l-23 371l341 63l-22 -276l113 -7l14 462l-428 -17l-3 680l363 173l94 5v17l216 34l-1 -41l332 16l-22 -340l-186 -240l-38 385l-91 -1l-12 -490l366 29l-40 -609q-183 -236 -188 -244l-159 6l-1 -22zM358 786l93 7l15 505l-275 -3l167 -19v-490z
M805 145l-16 499l-124 -5l-12 -485z" />
    <glyph glyph-name="Euro" unicode="&#x20ac;" horiz-adv-x="1328" 
d="M172 36l-7 377l-165 -8l76 144l86 11l-3 165l-158 -8l77 144l79 10l-9 442l396 166l681 30l-7 -5l-36 -403l-288 -142l-29 355h-504l180 -13l-7 -382l156 19l-92 -190l-67 -3l-3 -139l160 20l-92 -190l-71 -4l-4 -201l394 -8l-4 303l337 195l-61 -478l-270 -205z" />
    <glyph glyph-name="yen" unicode="&#xa5;" horiz-adv-x="1094" 
d="M96 -102l158 350l-106 -5l76 144l98 12l61 136l-13 31l-221 -11l77 144l82 10l-308 726l338 75l218 -592l257 570h201l-286 -726l110 14l-93 -190l-88 -5l-58 -147l237 30l-92 -190l-213 -11l-119 -301z" />
    <glyph glyph-name="sterling" unicode="&#xa3;" horiz-adv-x="1206" 
d="M172 0l-7 377l-165 -8l76 144l86 11l-3 165l-158 -8l77 144l79 10l-9 442l360 166l618 30l-6 -5l-33 -402l-261 -143l-27 355h-438l180 -13l-7 -382l156 19l-92 -190l-67 -3l-3 -139l160 20l-92 -190l-71 -4l-4 -201l568 -12l-172 -181z" />
    <glyph glyph-name="cent" unicode="&#xa2;" horiz-adv-x="1180" 
d="M200 -86l29 105l-205 -1l-24 1277l396 166l229 10l7 26l231 71l-24 -87l238 10l-7 -5l-36 -403l-288 -142l-13 162l-249 -893l283 -5l-4 303l337 195l-61 -478l-270 -205l-339 -1l-14 -50zM380 572l197 724h-364l180 -13z" />
    <glyph glyph-name="ampersand" unicode="&#x26;" horiz-adv-x="1039" 
d="M9 9l-3 429l168 296l-169 -7l1 1l-2 -1l-4 559h3l322 172l540 31l-37 -408l-230 -132l-28 343l-495 -7l285 -25l5 -390l240 3l-82 -124l-74 -3l-136 -319l3 -255l5 3l217 25l-4 303l-175 -7l187 142l413 4l-82 -124l-31 -2l-36 -285l-120 -202z" />
    <glyph glyph-name="asterisk" unicode="*" horiz-adv-x="582" 
d="M197 1143l-139 7l61 166l-119 51l59 111l99 -23l-9 139l183 12l-13 -142l102 35l81 -97l-117 -63l79 -125l-136 -36l-64 91z" />
    <glyph glyph-name="at" unicode="@" horiz-adv-x="1334" 
d="M256 13l-240 113l-16 1013l116 166l353 165l595 15l2 2l188 -119l-8 -839l-261 -143l-543 -33l6 529l294 143l249 11l1 137l-123 140l-620 -6l140 -12l-74 -159h2l21 -852l66 -102l749 -8l-98 -152l-798 -8zM726 490l260 6l3 397l-397 -8l131 -8z" />
    <glyph glyph-name="numbersign" unicode="#" horiz-adv-x="1102" 
d="M152 104l17 359l-169 -5l113 133l62 5l12 255l-177 -5l113 133l71 6l13 270l238 93l-41 -346l214 17l27 266l244 81l-57 -330l190 15l-135 -176l-84 -3l-39 -229l248 20l-135 -176l-141 -5l-47 -274l-161 -69l35 337l-221 -7l-34 -288zM359 611l219 18l25 236l-215 -7z
" />
    <glyph glyph-name="bar" unicode="|" horiz-adv-x="489" 
d="M0 1l75 1422l334 78l-124 -1425z" />
    <glyph glyph-name="agrave" unicode="&#xe0;" horiz-adv-x="1137" 
d="M355 770l355 8v504l-524 -10l166 -11zM709 -114l1 740l-586 -25l232 -9l-6 -476l-350 -106l2 1258l374 181l681 30l-83 -1470zM575 1519l-121 197l120 38l81 -207z" />
    <glyph glyph-name="aacute" unicode="&#xe1;" horiz-adv-x="1137" 
d="M355 770l355 8v504l-524 -10l166 -11zM709 -114l1 740l-586 -25l232 -9l-6 -476l-350 -106l2 1258l374 181l681 30l-83 -1470zM602 1525l-120 37l121 198l80 -28z" />
    <glyph glyph-name="acircumflex" unicode="&#xe2;" horiz-adv-x="1137" 
d="M355 770l355 8v504l-524 -10l166 -11zM709 -114l1 740l-586 -25l232 -9l-6 -476l-350 -106l2 1258l374 181l681 30l-83 -1470zM452 1544l73 214l88 25l63 -206l-65 -9l-29 130l-52 -137z" />
    <glyph glyph-name="atilde" unicode="&#xe3;" horiz-adv-x="1137" 
d="M355 770l355 8v504l-524 -10l166 -11zM709 -114l1 740l-586 -25l232 -9l-6 -476l-350 -106l2 1258l374 181l681 30l-83 -1470zM540 1571q-18 0 -35.5 6.5t-34 15t-31.5 14.5t-31 6q-20 0 -40 -15q16 42 34 85q21 10 40 10q28 0 55.5 -13t58.5 -13q40 0 80 37l-25 -99
q-38 -34 -71 -34z" />
    <glyph glyph-name="adieresis" unicode="&#xe4;" horiz-adv-x="1137" 
d="M355 770l355 8v504l-524 -10l166 -11zM709 -114l1 740l-586 -25l232 -9l-6 -476l-350 -106l2 1258l374 181l681 30l-83 -1470zM741 1576l-160 6l3 131l147 -4zM541 1576l-159 6l3 131l146 -4z" />
    <glyph glyph-name="aring" unicode="&#xe5;" horiz-adv-x="1137" 
d="M355 770l355 8v504l-524 -10l166 -11zM709 -114l1 740l-586 -25l232 -9l-6 -476l-350 -106l2 1258l374 181l681 30l-83 -1470zM569 1547l-54 35l-6 82l31 44l85 38l72 9l51 -32l-2 -67l-55 -68l-54 -35zM608 1591l54 2l14 11l2 68l-33 37l-79 -6l37 -3l-19 -43l7 -39z
" />
    <glyph glyph-name="ae" unicode="&#xe6;" horiz-adv-x="1585" 
d="M614 622l-490 -21l232 -9l-6 -476l-350 -106l2 1258l374 181l681 30l-1 -24l450 24l-221 -195l-239 -3l-29 -510l369 11l-82 -152l-296 -15l-25 -448l416 12l-83 -152l-698 -28zM613 776l-4 499l10 5l-433 -8l166 -11l3 -491z" />
    <glyph glyph-name="oe" unicode="&#x153;" horiz-adv-x="1762" 
d="M314 1146l23 -852l67 -102l311 -13l53 41l10 960l-124 141v1l-408 -5l142 -11zM790 138l-164 -105l-4 -6h-5l-361 -3v-1l-1 1l-239 112l-16 1013l115 166l353 165l383 14l157 -99l99 53l571 31l-220 -195l-419 -6v-6l110 -5l-2 -497l412 12l-83 -152l-444 -22v-7l102 -3
l-30 -433l467 14l-82 -152l-698 -28z" />
    <glyph glyph-name="ccedilla" unicode="&#xe7;" horiz-adv-x="1179" 
d="M454 30l-430 -1l-24 1277l396 165l681 31l-43 -408l-288 -143l-29 356l-504 -1l180 -12l-20 -1071l394 -8l-4 303l336 195l-60 -477l-270 -206h-237l-1 -53l135 -5l-9 -143l-84 -75l-140 -14l57 98l69 6l3 63l-112 10z" />
    <glyph glyph-name="egrave" unicode="&#xe8;" horiz-adv-x="976" 
d="M9 -1l-9 1276l325 173l571 31l-220 -195l-528 -7l219 -10l-2 -497l412 12l-82 -152l-539 -27l196 -5l-29 -433l466 14l-82 -152zM435 1545l-121 197l120 38l81 -207z" />
    <glyph glyph-name="eacute" unicode="&#xe9;" horiz-adv-x="976" 
d="M9 -1l-9 1276l325 173l571 31l-220 -195l-528 -7l219 -10l-2 -497l412 12l-82 -152l-539 -27l196 -5l-29 -433l466 14l-82 -152zM501 1572l-120 37l121 198l80 -28z" />
    <glyph glyph-name="ecircumflex" unicode="&#xea;" horiz-adv-x="976" 
d="M9 -1l-9 1276l325 173l571 31l-220 -195l-528 -7l219 -10l-2 -497l412 12l-82 -152l-539 -27l196 -5l-29 -433l466 14l-82 -152zM336 1565l73 214l88 25l63 -206l-65 -9l-29 130l-52 -137z" />
    <glyph glyph-name="edieresis" unicode="&#xeb;" horiz-adv-x="976" 
d="M9 -1l-9 1276l325 173l571 31l-220 -195l-528 -7l219 -10l-2 -497l412 12l-82 -152l-539 -27l196 -5l-29 -433l466 14l-82 -152zM627 1643l-160 6l3 131l147 -4zM427 1643l-159 6l3 131l146 -4z" />
    <glyph glyph-name="igrave" unicode="&#xec;" horiz-adv-x="479" 
d="M0 -48l58 1451l341 111l-37 -1460zM186 1545l-121 197l120 38l81 -207z" />
    <glyph glyph-name="iacute" unicode="&#xed;" horiz-adv-x="479" 
d="M0 -48l58 1451l341 111l-37 -1460zM252 1572l-120 37l121 198l80 -28z" />
    <glyph glyph-name="icircumflex" unicode="&#xee;" horiz-adv-x="479" 
d="M0 -48l58 1451l341 111l-37 -1460zM87 1565l73 214l88 25l63 -206l-65 -9l-29 130l-52 -137z" />
    <glyph glyph-name="idieresis" unicode="&#xef;" horiz-adv-x="479" 
d="M0 -48l58 1451l341 111l-37 -1460zM378 1643l-160 6l3 131l147 -4zM178 1643l-159 6l3 131l146 -4z" />
    <glyph glyph-name="dotlessi" unicode="&#x131;" horiz-adv-x="479" 
d="M0 -48l58 1451l341 111l-37 -1460z" />
    <glyph glyph-name="eth" unicode="&#xf0;" horiz-adv-x="1145" 
d="M7 813l-7 490l386 174l424 19l255 -121l-47 -962l-169 -253l-198 -126l-4 -6h-5l-623 -7l-10 657l-175 -3l90 134zM374 833l169 9l-67 -156l-101 -2l2 -492l4 2l359 -14l35 30l28 962l-171 135l-460 -3l200 -15z" />
    <glyph glyph-name="ntilde" unicode="&#xf1;" horiz-adv-x="1039" 
d="M1 -103l-1 1515l370 50l300 -741l-21 707l300 58l10 -1414l-275 -60l-458 1003l126 -372l-2 -589zM517 1644q-18 0 -35.5 6.5t-34 15t-31.5 14.5t-31 6q-20 0 -40 -15q16 42 34 85q21 10 40 10q28 0 55.5 -13t58.5 -13q40 0 80 37l-25 -99q-38 -34 -71 -34z" />
    <glyph glyph-name="ograve" unicode="&#xf2;" 
d="M715 179l53 41l10 960l-124 142l-408 -5l142 -11l-74 -160l23 -852l67 -102zM256 23l-240 113l-16 1013l115 166l353 165l383 14l189 -119l-10 -960l-207 -256l-197 -126l-4 -6l-366 -3v-1zM657 1545l-121 197l120 38l81 -207z" />
    <glyph glyph-name="oacute" unicode="&#xf3;" 
d="M715 179l53 41l10 960l-124 142l-408 -5l142 -11l-74 -160l23 -852l67 -102zM256 23l-240 113l-16 1013l115 166l353 165l383 14l189 -119l-10 -960l-207 -256l-197 -126l-4 -6l-366 -3v-1zM723 1572l-120 37l121 198l80 -28z" />
    <glyph glyph-name="ocircumflex" unicode="&#xf4;" 
d="M715 179l53 41l10 960l-124 142l-408 -5l142 -11l-74 -160l23 -852l67 -102zM256 23l-240 113l-16 1013l115 166l353 165l383 14l189 -119l-10 -960l-207 -256l-197 -126l-4 -6l-366 -3v-1zM558 1565l73 214l88 25l63 -206l-65 -9l-29 130l-52 -137z" />
    <glyph glyph-name="otilde" unicode="&#xf5;" 
d="M715 179l53 41l10 960l-124 142l-408 -5l142 -11l-74 -160l23 -852l67 -102zM256 23l-240 113l-16 1013l115 166l353 165l383 14l189 -119l-10 -960l-207 -256l-197 -126l-4 -6l-366 -3v-1zM708 1644q-18 0 -35.5 6.5t-34 15t-31.5 14.5t-31 6q-20 0 -40 -15q16 42 34 85
q21 10 40 10q28 0 55.5 -13t58.5 -13q40 0 80 37l-25 -99q-38 -34 -71 -34z" />
    <glyph glyph-name="odieresis" unicode="&#xf6;" 
d="M715 179l53 41l10 960l-124 142l-408 -5l142 -11l-74 -160l23 -852l67 -102zM256 23l-240 113l-16 1013l115 166l353 165l383 14l189 -119l-10 -960l-207 -256l-197 -126l-4 -6l-366 -3v-1zM849 1643l-160 6l3 131l147 -4zM649 1643l-159 6l3 131l146 -4z" />
    <glyph glyph-name="oslash" unicode="&#xf8;" 
d="M881 1475l159 -100l-10 -960l-207 -256l-197 -126l-4 -6h-5l-361 -3v-1l-1 1l-16 7l-90 -22l16 57l-149 70l-16 1013l115 166l353 165l350 13l73 16zM327 657l183 663l-264 -3l142 -11l-74 -160zM778 1143l-296 -954l233 -10l53 41z" />
    <glyph glyph-name="scaron" unicode="&#x161;" horiz-adv-x="1116" 
d="M808 1l-785 30l-23 370l341 63l-22 -275l485 -31l-15 500l-771 -31l-4 679l363 174l642 30l-23 -339l-186 -240l-38 384l-581 -7l167 -19v-490l1 1l677 53l-41 -609q-182 -235 -187 -243zM469 1518l-63 206l65 9l30 -131l51 138l78 16l-73 -213z" />
    <glyph glyph-name="germandbls" unicode="&#xdf;" horiz-adv-x="1158" 
d="M856 -8l-411 17l151 184l256 -12l-6 319l-136 143l-246 -10l66 157l279 7l7 509l-576 -9l129 -11l-7 -1150l-362 -142l12 1299l385 174l681 30l-43 -609l-113 -110l148 -122l-20 -495z" />
    <glyph glyph-name="ugrave" unicode="&#xf9;" horiz-adv-x="1083" 
d="M245 40l-245 113l4 1262l322 105l3 -1209l69 -103l251 -12l47 36l8 1232l299 132l-8 -1140l-251 -280l-177 -131l-321 -4zM489 1545l-121 197l120 38l81 -207z" />
    <glyph glyph-name="uacute" unicode="&#xfa;" horiz-adv-x="1083" 
d="M245 40l-245 113l4 1262l322 105l3 -1209l69 -103l251 -12l47 36l8 1232l299 132l-8 -1140l-251 -280l-177 -131l-321 -4zM555 1572l-120 37l121 198l80 -28z" />
    <glyph glyph-name="ucircumflex" unicode="&#xfb;" horiz-adv-x="1083" 
d="M245 40l-245 113l4 1262l322 105l3 -1209l69 -103l251 -12l47 36l8 1232l299 132l-8 -1140l-251 -280l-177 -131l-321 -4zM390 1565l73 214l88 25l63 -206l-65 -9l-29 130l-52 -137z" />
    <glyph glyph-name="udieresis" unicode="&#xfc;" horiz-adv-x="1083" 
d="M245 40l-245 113l4 1262l322 105l3 -1209l69 -103l251 -12l47 36l8 1232l299 132l-8 -1140l-251 -280l-177 -131l-321 -4zM681 1643l-160 6l3 131l147 -4zM481 1643l-159 6l3 131l146 -4z" />
    <glyph glyph-name="yacute" unicode="&#xfd;" horiz-adv-x="1095" 
d="M96 -106l288 638l-384 900l338 75l218 -593l257 571l202 -1l-602 -1525zM561 1579l-120 37l121 198l80 -28z" />
    <glyph glyph-name="ydieresis" unicode="&#xff;" horiz-adv-x="1095" 
d="M96 -106l288 638l-384 900l338 75l218 -593l257 571l202 -1l-602 -1525zM792 1584l-160 6l3 131l147 -4zM592 1584l-159 6l3 131l146 -4z" />
    <glyph glyph-name="zcaron" unicode="&#x17e;" horiz-adv-x="1169" 
d="M0 46l708 1220l-598 -57l213 267l766 20l-660 -1212l526 37l-181 -271zM495 1514l-63 206l65 9l30 -131l51 138l78 16l-73 -213z" />
    <glyph glyph-name="thorn" unicode="&#xfe;" horiz-adv-x="1055" 
d="M0 67l75 1422l333 78l-11 -285l578 28l-42 -609l-198 -239l-535 -23l163 -8l-11 -265zM370 603l359 8l-19 504l-482 -5l161 -16z" />
    <glyph glyph-name="Agrave" unicode="&#xc0;" horiz-adv-x="1137" 
d="M355 770l355 8v504l-524 -10l166 -11zM709 -114l1 740l-586 -25l232 -9l-6 -476l-350 -106l2 1258l374 181l681 30l-83 -1470zM575 1519l-121 197l120 38l81 -207z" />
    <glyph glyph-name="Aacute" unicode="&#xc1;" horiz-adv-x="1137" 
d="M355 770l355 8v504l-524 -10l166 -11zM709 -114l1 740l-586 -25l232 -9l-6 -476l-350 -106l2 1258l374 181l681 30l-83 -1470zM602 1525l-120 37l121 198l80 -28z" />
    <glyph glyph-name="Acircumflex" unicode="&#xc2;" horiz-adv-x="1137" 
d="M355 770l355 8v504l-524 -10l166 -11zM709 -114l1 740l-586 -25l232 -9l-6 -476l-350 -106l2 1258l374 181l681 30l-83 -1470zM452 1544l73 214l88 25l63 -206l-65 -9l-29 130l-52 -137z" />
    <glyph glyph-name="Atilde" unicode="&#xc3;" horiz-adv-x="1137" 
d="M355 770l355 8v504l-524 -10l166 -11zM709 -114l1 740l-586 -25l232 -9l-6 -476l-350 -106l2 1258l374 181l681 30l-83 -1470zM540 1571q-18 0 -35.5 6.5t-34 15t-31.5 14.5t-31 6q-20 0 -40 -15q16 42 34 85q21 10 40 10q28 0 55.5 -13t58.5 -13q40 0 80 37l-25 -99
q-38 -34 -71 -34z" />
    <glyph glyph-name="Adieresis" unicode="&#xc4;" horiz-adv-x="1137" 
d="M355 770l355 8v504l-524 -10l166 -11zM709 -114l1 740l-586 -25l232 -9l-6 -476l-350 -106l2 1258l374 181l681 30l-83 -1470zM741 1576l-160 6l3 131l147 -4zM541 1576l-159 6l3 131l146 -4z" />
    <glyph glyph-name="Aring" unicode="&#xc5;" horiz-adv-x="1137" 
d="M355 770l355 8v504l-524 -10l166 -11zM709 -114l1 740l-586 -25l232 -9l-6 -476l-350 -106l2 1258l374 181l681 30l-83 -1470zM569 1547l-54 35l-6 82l31 44l85 38l72 9l51 -32l-2 -67l-55 -68l-54 -35zM608 1591l54 2l14 11l2 68l-33 37l-79 -6l37 -3l-19 -43l7 -39z
" />
    <glyph glyph-name="AE" unicode="&#xc6;" horiz-adv-x="1585" 
d="M614 622l-490 -21l232 -9l-6 -476l-350 -106l2 1258l374 181l681 30l-1 -24l450 24l-221 -195l-239 -3l-29 -510l369 11l-82 -152l-296 -15l-25 -448l416 12l-83 -152l-698 -28zM613 776l-4 499l10 5l-433 -8l166 -11l3 -491z" />
    <glyph glyph-name="OE" unicode="&#x152;" horiz-adv-x="1762" 
d="M314 1146l23 -852l67 -102l311 -13l53 41l10 960l-124 141v1l-408 -5l142 -11zM790 138l-164 -105l-4 -6h-5l-361 -3v-1l-1 1l-239 112l-16 1013l115 166l353 165l383 14l157 -99l99 53l571 31l-220 -195l-419 -6v-6l110 -5l-2 -497l412 12l-83 -152l-444 -22v-7l102 -3
l-30 -433l467 14l-82 -152l-698 -28z" />
    <glyph glyph-name="Ccedilla" unicode="&#xc7;" horiz-adv-x="1179" 
d="M454 30l-430 -1l-24 1277l396 165l681 31l-43 -408l-288 -143l-29 356l-504 -1l180 -12l-20 -1071l394 -8l-4 303l336 195l-60 -477l-270 -206h-237l-1 -53l135 -5l-9 -143l-84 -75l-140 -14l57 98l69 6l3 63l-112 10z" />
    <glyph glyph-name="Egrave" unicode="&#xc8;" horiz-adv-x="976" 
d="M9 -1l-9 1276l325 173l571 31l-220 -195l-528 -7l219 -10l-2 -497l412 12l-82 -152l-539 -27l196 -5l-29 -433l466 14l-82 -152zM435 1545l-121 197l120 38l81 -207z" />
    <glyph glyph-name="Eacute" unicode="&#xc9;" horiz-adv-x="976" 
d="M9 -1l-9 1276l325 173l571 31l-220 -195l-528 -7l219 -10l-2 -497l412 12l-82 -152l-539 -27l196 -5l-29 -433l466 14l-82 -152zM501 1572l-120 37l121 198l80 -28z" />
    <glyph glyph-name="Ecircumflex" unicode="&#xca;" horiz-adv-x="976" 
d="M9 -1l-9 1276l325 173l571 31l-220 -195l-528 -7l219 -10l-2 -497l412 12l-82 -152l-539 -27l196 -5l-29 -433l466 14l-82 -152zM336 1565l73 214l88 25l63 -206l-65 -9l-29 130l-52 -137z" />
    <glyph glyph-name="Edieresis" unicode="&#xcb;" horiz-adv-x="976" 
d="M9 -1l-9 1276l325 173l571 31l-220 -195l-528 -7l219 -10l-2 -497l412 12l-82 -152l-539 -27l196 -5l-29 -433l466 14l-82 -152zM627 1643l-160 6l3 131l147 -4zM427 1643l-159 6l3 131l146 -4z" />
    <glyph glyph-name="Igrave" unicode="&#xcc;" horiz-adv-x="479" 
d="M0 -48l58 1451l341 111l-37 -1460zM186 1545l-121 197l120 38l81 -207z" />
    <glyph glyph-name="Iacute" unicode="&#xcd;" horiz-adv-x="479" 
d="M0 -48l58 1451l341 111l-37 -1460zM252 1572l-120 37l121 198l80 -28z" />
    <glyph glyph-name="Icircumflex" unicode="&#xce;" horiz-adv-x="479" 
d="M0 -48l58 1451l341 111l-37 -1460zM87 1565l73 214l88 25l63 -206l-65 -9l-29 130l-52 -137z" />
    <glyph glyph-name="Idieresis" unicode="&#xcf;" horiz-adv-x="479" 
d="M0 -48l58 1451l341 111l-37 -1460zM378 1643l-160 6l3 131l147 -4zM178 1643l-159 6l3 131l146 -4z" />
    <glyph glyph-name="Eth" unicode="&#xd0;" horiz-adv-x="1145" 
d="M7 813l-7 490l386 174l424 19l255 -121l-47 -962l-169 -253l-198 -126l-4 -6h-5l-623 -7l-10 657l-175 -3l90 134zM374 833l169 9l-67 -156l-101 -2l2 -492l4 2l359 -14l35 30l28 962l-171 135l-460 -3l200 -15z" />
    <glyph glyph-name="Ntilde" unicode="&#xd1;" horiz-adv-x="1039" 
d="M1 -103l-1 1515l370 50l300 -741l-21 707l300 58l10 -1414l-275 -60l-458 1003l126 -372l-2 -589zM517 1644q-18 0 -35.5 6.5t-34 15t-31.5 14.5t-31 6q-20 0 -40 -15q16 42 34 85q21 10 40 10q28 0 55.5 -13t58.5 -13q40 0 80 37l-25 -99q-38 -34 -71 -34z" />
    <glyph glyph-name="Ograve" unicode="&#xd2;" 
d="M715 179l53 41l10 960l-124 142l-408 -5l142 -11l-74 -160l23 -852l67 -102zM256 23l-240 113l-16 1013l115 166l353 165l383 14l189 -119l-10 -960l-207 -256l-197 -126l-4 -6l-366 -3v-1zM657 1545l-121 197l120 38l81 -207z" />
    <glyph glyph-name="Oacute" unicode="&#xd3;" 
d="M715 179l53 41l10 960l-124 142l-408 -5l142 -11l-74 -160l23 -852l67 -102zM256 23l-240 113l-16 1013l115 166l353 165l383 14l189 -119l-10 -960l-207 -256l-197 -126l-4 -6l-366 -3v-1zM723 1572l-120 37l121 198l80 -28z" />
    <glyph glyph-name="Ocircumflex" unicode="&#xd4;" 
d="M715 179l53 41l10 960l-124 142l-408 -5l142 -11l-74 -160l23 -852l67 -102zM256 23l-240 113l-16 1013l115 166l353 165l383 14l189 -119l-10 -960l-207 -256l-197 -126l-4 -6l-366 -3v-1zM558 1565l73 214l88 25l63 -206l-65 -9l-29 130l-52 -137z" />
    <glyph glyph-name="Otilde" unicode="&#xd5;" 
d="M715 179l53 41l10 960l-124 142l-408 -5l142 -11l-74 -160l23 -852l67 -102zM256 23l-240 113l-16 1013l115 166l353 165l383 14l189 -119l-10 -960l-207 -256l-197 -126l-4 -6l-366 -3v-1zM708 1644q-18 0 -35.5 6.5t-34 15t-31.5 14.5t-31 6q-20 0 -40 -15q16 42 34 85
q21 10 40 10q28 0 55.5 -13t58.5 -13q40 0 80 37l-25 -99q-38 -34 -71 -34z" />
    <glyph glyph-name="Odieresis" unicode="&#xd6;" 
d="M715 179l53 41l10 960l-124 142l-408 -5l142 -11l-74 -160l23 -852l67 -102zM256 23l-240 113l-16 1013l115 166l353 165l383 14l189 -119l-10 -960l-207 -256l-197 -126l-4 -6l-366 -3v-1zM849 1643l-160 6l3 131l147 -4zM649 1643l-159 6l3 131l146 -4z" />
    <glyph glyph-name="Oslash" unicode="&#xd8;" 
d="M881 1475l159 -100l-10 -960l-207 -256l-197 -126l-4 -6h-5l-361 -3v-1l-1 1l-16 7l-90 -22l16 57l-149 70l-16 1013l115 166l353 165l350 13l73 16zM327 657l183 663l-264 -3l142 -11l-74 -160zM778 1143l-296 -954l233 -10l53 41z" />
    <glyph glyph-name="Scaron" unicode="&#x160;" horiz-adv-x="1116" 
d="M808 1l-785 30l-23 370l341 63l-22 -275l485 -31l-15 500l-771 -31l-4 679l363 174l642 30l-23 -339l-186 -240l-38 384l-581 -7l167 -19v-490l1 1l677 53l-41 -609q-182 -235 -187 -243zM469 1518l-63 206l65 9l30 -131l51 138l78 16l-73 -213z" />
    <glyph glyph-name="Ugrave" unicode="&#xd9;" horiz-adv-x="1083" 
d="M245 40l-245 113l4 1262l322 105l3 -1209l69 -103l251 -12l47 36l8 1232l299 132l-8 -1140l-251 -280l-177 -131l-321 -4zM489 1545l-121 197l120 38l81 -207z" />
    <glyph glyph-name="Uacute" unicode="&#xda;" horiz-adv-x="1083" 
d="M245 40l-245 113l4 1262l322 105l3 -1209l69 -103l251 -12l47 36l8 1232l299 132l-8 -1140l-251 -280l-177 -131l-321 -4zM555 1572l-120 37l121 198l80 -28z" />
    <glyph glyph-name="Ucircumflex" unicode="&#xdb;" horiz-adv-x="1083" 
d="M245 40l-245 113l4 1262l322 105l3 -1209l69 -103l251 -12l47 36l8 1232l299 132l-8 -1140l-251 -280l-177 -131l-321 -4zM390 1565l73 214l88 25l63 -206l-65 -9l-29 130l-52 -137z" />
    <glyph glyph-name="Udieresis" unicode="&#xdc;" horiz-adv-x="1083" 
d="M245 40l-245 113l4 1262l322 105l3 -1209l69 -103l251 -12l47 36l8 1232l299 132l-8 -1140l-251 -280l-177 -131l-321 -4zM681 1643l-160 6l3 131l147 -4zM481 1643l-159 6l3 131l146 -4z" />
    <glyph glyph-name="Thorn" unicode="&#xde;" horiz-adv-x="1055" 
d="M0 67l75 1422l333 78l-11 -285l578 28l-42 -609l-198 -239l-535 -23l163 -8l-11 -265zM370 603l359 8l-19 504l-482 -5l161 -16z" />
    <glyph glyph-name="comma" unicode="," horiz-adv-x="357" 
d="M71 -123l102 149l-169 -10l-4 188l277 16l-17 -262z" />
    <glyph glyph-name="colon" unicode=":" horiz-adv-x="321" 
d="M15 605l-4 188l230 8l-15 -190zM4 -18l-4 188l229 8l-14 -191z" />
    <glyph glyph-name="semicolon" unicode=";" horiz-adv-x="357" 
d="M46 605l-4 188l229 8l-14 -190zM72 -147l101 148l-168 -10l-5 189l277 16l-17 -262z" />
    <glyph glyph-name="hyphen" unicode="-" horiz-adv-x="561" 
d="M0 491l61 134l420 32l-45 -155z" />
    <glyph glyph-name="endash" unicode="&#x2013;" horiz-adv-x="1024" 
d="M0 267l53 133l363 33l-39 -155z" />
    <glyph glyph-name="emdash" unicode="&#x2014;" horiz-adv-x="2048" 
d="M0 267l105 133l726 33l-77 -155z" />
    <glyph glyph-name="bullet" unicode="&#x2022;" horiz-adv-x="1024" 
d="M9 555l-9 374l457 16l-28 -379z" />
    <glyph glyph-name="period" unicode="." horiz-adv-x="310" 
d="M5 -8l-5 188l230 9l-15 -191z" />
    <glyph glyph-name="ellipsis" unicode="&#x2026;" horiz-adv-x="2048" 
d="M5 -8l-5 188l230 9l-15 -191zM688 -8l-5 188l230 9l-15 -191zM1371 -8l-5 188l230 9l-15 -191z" />
    <glyph glyph-name="quotedblleft" unicode="&#x201c;" horiz-adv-x="654" 
d="M6 1361l17 261l189 82l-102 -149l169 10l4 -188zM303 1361l17 261l189 82l-102 -149l169 10l4 -188z" />
    <glyph glyph-name="quotedblright" unicode="&#x201d;" horiz-adv-x="654" 
d="M375 1263l101 148l-168 -10l-5 189l277 16l-17 -262zM78 1263l101 148l-168 -10l-5 189l277 16l-17 -262z" />
    <glyph glyph-name="quotedblbase" unicode="&#x201e;" horiz-adv-x="654" 
d="M369 -147l101 148l-168 -10l-5 189l277 16l-17 -262zM72 -147l101 148l-168 -10l-5 189l277 16l-17 -262z" />
    <glyph glyph-name="uni201F" unicode="&#x201f;" horiz-adv-x="654" 
d="M212 1263l-189 81l-17 262l277 -16l-4 -189l-169 10zM509 1263l-189 81l-17 262l277 -16l-4 -189l-169 10z" />
    <glyph glyph-name="quoteleft" unicode="&#x2018;" horiz-adv-x="357" 
d="M-4 1339l17 261l189 82l-102 -149l169 10l4 -188z" />
    <glyph glyph-name="quoteright" unicode="&#x2019;" horiz-adv-x="357" 
d="M72 1245l101 148l-168 -10l-5 189l277 16l-17 -262z" />
    <glyph glyph-name="quotesinglbase" unicode="&#x201a;" horiz-adv-x="357" 
d="M72 -147l101 148l-168 -10l-5 189l277 16l-17 -262z" />
    <glyph glyph-name="quotereversed" unicode="&#x201b;" horiz-adv-x="357" 
d="M206 1245l-189 81l-17 262l277 -16l-4 -189l-169 10z" />
    <glyph glyph-name="guilsinglleft" unicode="&#x2039;" horiz-adv-x="524" 
d="M424 466l-424 157l42 209l349 184l-16 -179l-272 -124l341 -99z" />
    <glyph glyph-name="guilsinglright" unicode="&#x203a;" horiz-adv-x="524" 
d="M53 466l16 179l272 124l-341 99l20 148l424 -157l-10 -47l-32 -162z" />
    <glyph glyph-name="guillemotleft" unicode="&#xab;" horiz-adv-x="915" 
d="M424 466l-424 157l42 209l349 184l-16 -179l-272 -124l341 -99zM814 466l-424 157l42 209l349 184l-16 -179l-272 -124l341 -99z" />
    <glyph glyph-name="guillemotright" unicode="&#xbb;" horiz-adv-x="915" 
d="M53 466l16 179l272 124l-341 99l20 148l424 -157l-10 -47l-32 -162zM443 466l16 179l272 124l-341 99l20 148l424 -157l-10 -47l-32 -162z" />
    <glyph glyph-name="less" unicode="&#x3c;" horiz-adv-x="524" 
d="M424 466l-424 157l42 209l349 184l-16 -179l-272 -124l341 -99z" />
    <glyph glyph-name="greater" unicode="&#x3e;" horiz-adv-x="524" 
d="M53 466l16 179l272 124l-341 99l20 148l424 -157l-10 -47l-32 -162z" />
    <glyph glyph-name="slash" unicode="/" horiz-adv-x="822" 
d="M0 -6l392 1422l350 78l-440 -1425z" />
    <glyph glyph-name="backslash" unicode="\" horiz-adv-x="626" 
d="M280 -12l-280 1422l314 77l232 -1424z" />
    <glyph glyph-name="question" unicode="?" horiz-adv-x="1059" 
d="M329 -35l-5 189l230 8l-15 -191zM320 224l23 439l34 14q34 15 82 35.5t93 38.5l85 503l-502 -47l212 -1l-4 -162l-340 -142l-3 294h1l212 264l766 20l-105 -706l-211 -96l-224 -11l180 -11l-44 -398z" />
    <glyph glyph-name="exclam" unicode="!" horiz-adv-x="450" 
d="M230 -41l-230 8l5 188l210 -5zM9 236l27 1223l334 66l-152 -1241z" />
    <glyph glyph-name="questiondown" unicode="&#xbf;" horiz-adv-x="1059" 
d="M636 1413l-230 -9l15 191l210 6zM613 360l4 163l340 141l3 -292v-2h-1l-212 -264l-766 -20l105 707l211 96l224 10l-180 11l44 399l255 33l-23 -438h-1v-1q-6 -2 -33 -14q-34 -15 -82 -35.5t-93 -38.5l-85 -503l502 48h-212z" />
    <glyph glyph-name="exclamdown" unicode="&#xa1;" horiz-adv-x="450" 
d="M321 1276l-210 5l-15 191l230 -8zM-44 -94l152 1241l209 48l-27 -1223z" />
    <glyph glyph-name="parenleft" unicode="(" horiz-adv-x="696" 
d="M0 -57l75 1422l273 121l268 -10l-117 -187l-233 14l127 -40l-101 -1116l166 4l-73 -175z" />
    <glyph glyph-name="parenright" unicode=")" horiz-adv-x="691" 
d="M203 -9l-203 16l117 186h152l55 1142l-166 -4l73 176l380 -16l-91 -1303z" />
    <glyph glyph-name="bracketleft" unicode="[" horiz-adv-x="696" 
d="M0 -57l75 1422l273 121l268 -10l-117 -187l-233 14l127 -40l-101 -1116l166 4l-73 -175z" />
    <glyph glyph-name="bracketright" unicode="]" horiz-adv-x="691" 
d="M203 -9l-203 16l117 186h152l55 1142l-166 -4l73 176l380 -16l-91 -1303z" />
    <glyph glyph-name="braceleft" unicode="{" horiz-adv-x="696" 
d="M0 -57l75 1422l273 121l268 -10l-117 -187l-233 14l127 -40l-101 -1116l166 4l-73 -175z" />
    <glyph glyph-name="braceright" unicode="}" horiz-adv-x="691" 
d="M203 -9l-203 16l117 186h152l55 1142l-166 -4l73 176l380 -16l-91 -1303z" />
    <glyph glyph-name="copyright" unicode="&#xa9;" horiz-adv-x="1091" 
d="M599 458h-291l-9 498l154 65l266 12l-2 -2l-15 -158l-112 -55l-11 139l-197 -1l70 -5l-8 -417l154 -4l-1 119l131 76l-24 -187zM769 302l40 30l7 716l-92 105v1l-536 -5l101 -8l-55 -119h1l16 -634l50 -76zM190 186l-179 84l-11 755l86 124l263 123l523 10l-1 -1l140 -88
l-7 -715l-154 -190l-154 -99l-505 -2z" />
    <glyph glyph-name="registered" unicode="&#xae;" horiz-adv-x="1092" 
d="M769 298l40 30l7 715l1 1l-93 105l-536 -4l101 -8l-55 -119h2l15 -635l50 -76l326 -6l-127 336l-43 -2q-1 -1 -1 -27h-2l-18 -220l-144 -38q-3 298 -4 596l180 81l318 14l-20 -284l-93 -112l-31 -2l125 -293l-120 -50zM459 709l212 5l-8 236l-294 -4l96 -6zM190 182
l-178 84l-12 754l86 124l263 123l522 10l141 -88l-7 -715l-155 -191l-154 -98z" />
    <glyph glyph-name="section" unicode="&#xa7;" horiz-adv-x="1103" 
d="M807 -13l-785 30l-22 371l340 63l-21 -276l490 -31l-1 310l-9 -15l-785 30l-6 840l363 174l641 30l-22 -180l-186 -240l-37 227l-2 -2l-581 -7l168 -19l-3 -284l674 54l-28 -831q-183 -236 -188 -244zM808 596v272l-672 -23l212 -11l-2 -210z" />
    <glyph glyph-name="plus" unicode="+" horiz-adv-x="787" 
d="M462 334l-175 94l-15 231l-272 -6l89 174l171 12l-15 237l203 -69l3 -154l256 17l-66 -203l-186 -4z" />
    <glyph glyph-name="multiply" unicode="&#xd7;" horiz-adv-x="698" 
d="M75 404l-75 178l181 144l-160 220l194 26l107 -133l186 147l110 -159l-176 -137l160 -201l-204 -62l-106 146z" />
    <glyph glyph-name="equal" unicode="=" horiz-adv-x="611" 
d="M11 371l66 134l454 33l-49 -156zM0 774l66 134l454 33l-49 -156z" />
    <glyph glyph-name="underscore" unicode="_" horiz-adv-x="600" 
d="M0 19l66 134l454 33l-49 -156z" />
    <glyph glyph-name="degree" unicode="&#xb0;" horiz-adv-x="560" 
d="M120 979l-110 72l-10 164l62 89l170 77l147 18l101 -64l-4 -136l-111 -137l-107 -70zM199 1069l108 4l29 22l3 136l-66 76l-160 -13l76 -6l-38 -86l12 -78z" />
    <glyph glyph-name="quotedbl" unicode="&#x22;" horiz-adv-x="654" 
d="M6 1361l17 261l189 82l-102 -149l169 10l4 -188zM303 1361l17 261l189 82l-102 -149l169 10l4 -188z" />
    <glyph glyph-name="quotesingle" unicode="'" horiz-adv-x="357" 
d="M-4 1339l17 261l189 82l-102 -149l169 10l4 -188z" />
    <glyph glyph-name="asciicircum" unicode="^" horiz-adv-x="624" 
d="M0 922l176 520l215 62l153 -502l-157 -22l-72 317l-125 -334z" />
    <glyph glyph-name="asciitilde" unicode="~" horiz-adv-x="599" 
d="M334 699q-36 0 -70 10.5t-65.5 23.5t-61.5 22.5t-60 9.5q-38 0 -77 -23l65 134q41 16 78 16q28 0 55 -6t54 -14t55 -14t58 -6q77 0 154 57l-48 -156q-67 -54 -137 -54z" />
    <glyph glyph-name="gravecomb" unicode="&#x300;" horiz-adv-x="281" 
d="M121 745l-121 197l120 38l81 -207z" />
    <glyph glyph-name="acutecomb" unicode="&#x301;" horiz-adv-x="281" 
d="M120 772l-120 37l121 198l80 -28z" />
    <glyph glyph-name="uni0302" unicode="&#x302;" horiz-adv-x="304" 
d="M0 765l73 214l88 25l63 -206l-65 -9l-29 130l-52 -137z" />
    <glyph glyph-name="tildecomb" unicode="&#x303;" horiz-adv-x="348" 
d="M172 844q-18 0 -35.5 6.5t-34 15t-31.5 14.5t-31 6q-20 0 -40 -15q16 42 34 85q21 10 40 10q28 0 55.5 -13t58.5 -13q40 0 80 37l-25 -99q-38 -34 -71 -34z" />
    <glyph glyph-name="uni0308" unicode="&#x308;" horiz-adv-x="439" 
d="M359 843l-160 6l3 131l147 -4zM159 843l-159 6l3 131l146 -4z" />
    <glyph glyph-name="uni030A" unicode="&#x30a;" horiz-adv-x="319" 
d="M60 796l-54 35l-6 82l31 44l85 38l72 9l51 -32l-2 -67l-55 -68l-54 -35zM99 840l54 2l14 11l2 68l-33 37l-79 -6l37 -3l-19 -43l7 -39z" />
    <glyph glyph-name="cedilla" unicode="&#xb8;" horiz-adv-x="314" 
d="M0 -260l58 98l69 6l3 63l-113 10l6 147l78 -4l-3 -83l136 -5l-9 -143l-85 -75z" />
    <glyph glyph-name="uni030C" unicode="&#x30c;" horiz-adv-x="304" 
d="M63 718l-63 206l65 9l30 -131l51 138l78 16l-73 -213z" />
    <glyph glyph-name="Zcaron" unicode="&#x17d;" horiz-adv-x="1169" 
d="M0 46l708 1220l-598 -57l213 267l766 20l-660 -1212l526 37l-181 -271zM495 1518l-63 206l65 9l30 -131l51 138l78 16l-73 -213z" />
    <glyph glyph-name="Yacute" unicode="&#xdd;" horiz-adv-x="1095" 
d="M96 -106l288 638l-384 900l338 75l218 -593l257 571l202 -1l-602 -1525zM561 1572l-120 37l121 198l80 -28z" />
    <glyph glyph-name="Ydieresis" unicode="&#x178;" horiz-adv-x="1095" 
d="M96 -106l288 638l-384 900l338 75l218 -593l257 571l202 -1l-602 -1525zM687 1643l-160 6l3 131l147 -4zM487 1643l-159 6l3 131l146 -4z" />
    <glyph glyph-name="brokenbar" unicode="&#xa6;" horiz-adv-x="489" 
d="M0 951l75 612l334 33l-124 -612zM0 -410l75 611l334 34l-124 -613z" />
    <glyph glyph-name="periodcentered" unicode="&#xb7;" horiz-adv-x="774" 
d="M4 666l-4 161l195 7l-12 -163z" />
    <glyph glyph-name="dagger" unicode="&#x2020;" horiz-adv-x="834" 
d="M175 2l49 936l-224 -4l95 134l137 7l18 349l333 78l-35 -411l206 10l-70 -155l-149 -3l-75 -866z" />
    <glyph glyph-name="daggerdbl" unicode="&#x2021;" horiz-adv-x="888" 
d="M229 4l25 481l-254 -4l95 133l167 9l16 317l-224 -3l95 133l137 7l18 350l333 77l-35 -411l206 10l-70 -155l-149 -3l-27 -308l192 10l-70 -155l-135 -2l-35 -410z" />
    </font>
</defs>
</svg>
