<svg id="Слой_1" data-name="Слой 1" xmlns="http://www.w3.org/2000/svg" viewBox="0 0 100 100"><defs><style>.cls-1{fill:#fff;}</style></defs><g id="_158_Helmet_Space_Safety" data-name="158, Helmet, Space, Safety"><path class="cls-1" d="M51.22,28.84A23.39,23.39,0,1,0,74.6,52.23,23.39,23.39,0,0,0,51.22,28.84ZM44.39,51.41,56.57,39.23A1,1,0,0,1,58,40.7L45.86,52.88a1,1,0,0,1-1.47-1.47ZM60,48.82,43.74,65.06a1.22,1.22,0,0,1-1.46,0,1.24,1.24,0,0,1,0-1.47L58.52,47.35a1.22,1.22,0,0,1,1.46,0A.92.92,0,0,1,60,48.82Z"/><path class="cls-1" d="M71.84,78.54a33.64,33.64,0,0,1-41.25,0L28,87.63a4.87,4.87,0,0,0,4.55,6.17H69.89a4.89,4.89,0,0,0,4.71-6.17Z"/><path class="cls-1" d="M15.65,76.59a3.09,3.09,0,1,0-3.09,3.08A3.19,3.19,0,0,0,15.65,76.59Z"/><path class="cls-1" d="M92.79,65.38a4.06,4.06,0,1,0,4.06,4.06A4,4,0,0,0,92.79,65.38Z"/><path class="cls-1" d="M82.23,15.69v32c.17.16.33.49.49.49h.16a.92.92,0,0,0,1.14-1V15.69a1.05,1.05,0,0,0-1-1C82.72,14.55,82.23,15,82.23,15.69Z"/><path class="cls-1" d="M18.08,15.69v31.5a1,1,0,0,0,1.14,1h.16a.17.17,0,0,0,.17-.17.16.16,0,0,0,.16-.16c.16,0,.16-.16.16-.32v-32a1.05,1.05,0,0,0-1-1A1.11,1.11,0,0,0,18.08,15.69Z"/><path class="cls-1" d="M81.75,14.22a2,2,0,0,1,3.08,0,4.26,4.26,0,0,0,2.6-3.73,4.06,4.06,0,1,0-8.12,0A3.59,3.59,0,0,0,81.75,14.22Z"/><path class="cls-1" d="M17.6,14.22a2,2,0,0,1,3.08,0,4.26,4.26,0,0,0,2.6-3.73,4.06,4.06,0,0,0-8.12,0A3.59,3.59,0,0,0,17.6,14.22Z"/><path class="cls-1" d="M89.7,52.23a4,4,0,0,0-4.06-4.06H85a1.85,1.85,0,0,1-1.78,1,1.74,1.74,0,0,1-1.46-.65,1.81,1.81,0,0,1-.49-1.3V43a31.48,31.48,0,0,0-60.09,0v4.71c0,.16,0,.32-.16.32-.16.33-.16.49-.33.65a2,2,0,0,1-.65.49c-.16,0-.16.16-.32.16h-.49a2.21,2.21,0,0,1-1.79-1h-.64a4.06,4.06,0,1,0,0,8.12h2.43a.91.91,0,0,1,1,.81A31.47,31.47,0,0,0,72,75.94,30.92,30.92,0,0,0,82.23,57.1a.91.91,0,0,1,1-.81h2.43A4.12,4.12,0,0,0,89.7,52.23ZM51.22,77.56A25.34,25.34,0,1,1,76.55,52.23,25.37,25.37,0,0,1,51.22,77.56Z"/><path class="cls-1" d="M67.46,5.45a2.12,2.12,0,1,1-2.12,2.12A2.12,2.12,0,0,1,67.46,5.45Z"/><path class="cls-1" d="M36.92,7.4a2.12,2.12,0,1,1-2.11,2.11A2.11,2.11,0,0,1,36.92,7.4Z"/><path class="cls-1" d="M10.61,27.7A2.12,2.12,0,1,1,8.5,29.81,2.12,2.12,0,0,1,10.61,27.7Z"/><path class="cls-1" d="M93.76,33.87A2.12,2.12,0,1,1,91.65,36,2.12,2.12,0,0,1,93.76,33.87Z"/><path class="cls-1" d="M89.7,80.65a2,2,0,1,1-1.94,1.95A1.95,1.95,0,0,1,89.7,80.65Z"/><path class="cls-1" d="M16.62,86.66a2.11,2.11,0,1,1-2.11,2.11A2.1,2.1,0,0,1,16.62,86.66Z"/><path class="cls-1" d="M8.5,62.29a2.12,2.12,0,1,1-2.11,2.12A2.11,2.11,0,0,1,8.5,62.29Z"/></g></svg>