<svg id="Слой_1" data-name="Слой 1" xmlns="http://www.w3.org/2000/svg" viewBox="0 0 113.39 113.39"><defs><style>.cls-1{fill:#fff;}.cls-2{fill:#4f4495;}</style></defs><g id="_866-Cancel_Delete_Interface_User" data-name="866-Cancel, Delete, Interface, User"><path class="cls-1" d="M56.6,23A32.72,32.72,0,1,0,89.33,55.73,32.71,32.71,0,0,0,56.6,23ZM71.07,70.19a7,7,0,0,1-4.88,2,7.32,7.32,0,0,1-4.89-2l-4.7-4.88-4.88,4.88a6.65,6.65,0,0,1-4.88,2,6.53,6.53,0,0,1-4.7-2,7,7,0,0,1-2-4.88,7.3,7.3,0,0,1,2-4.88L47,55.55,42.14,51a7,7,0,0,1-2-4.88,7.28,7.28,0,0,1,2-4.88,6.65,6.65,0,0,1,4.88-2,7,7,0,0,1,4.88,2l4.7,4.88,4.88-4.88a6.68,6.68,0,0,1,4.89-2,7.32,7.32,0,0,1,4.88,2,6.66,6.66,0,0,1,0,9.58l-4.88,4.88,4.7,4.88A7,7,0,0,1,71.07,70.19Z"/><path class="cls-2" d="M63.83,56.63a1.34,1.34,0,0,1,0-1.62l5.61-5.61a4.43,4.43,0,0,0-3.25-7.59,5.21,5.21,0,0,0-3.26,1.26l-5.6,5.61a1.36,1.36,0,0,1-1.63,0l-5.61-5.61a4.35,4.35,0,0,0-3.25-1.26,5.23,5.23,0,0,0-3.26,1.26,4.38,4.38,0,0,0-1.26,3.26,5.2,5.2,0,0,0,1.26,3.25l5.61,5.61a1.34,1.34,0,0,1,0,1.62l-5.61,5.61a4.36,4.36,0,0,0-1.26,3.25,5.23,5.23,0,0,0,1.26,3.26,4.38,4.38,0,0,0,3.26,1.26,5.18,5.18,0,0,0,3.25-1.26l5.61-5.61a1.36,1.36,0,0,1,.72-.36,1.43,1.43,0,0,1,.73.36l5.6,5.61A4.36,4.36,0,0,0,66,70.19a5.23,5.23,0,0,0,3.26-1.26,4.37,4.37,0,0,0,0-6.33Z"/><path class="cls-2" d="M102.89,55.73A46.29,46.29,0,1,0,56.6,102,46.38,46.38,0,0,0,102.89,55.73ZM56.6,90.8A35.07,35.07,0,1,1,91.68,55.73,35.1,35.1,0,0,1,56.6,90.8Z"/><path class="cls-2" d="M9.23,82.85A2.35,2.35,0,1,1,6.88,85.2,2.35,2.35,0,0,1,9.23,82.85Z"/><path class="cls-2" d="M104.15,82.85a2.35,2.35,0,1,1-2.35,2.35A2.35,2.35,0,0,1,104.15,82.85Z"/><path class="cls-2" d="M104.15,24.09a2.35,2.35,0,1,1-2.35,2.35A2.35,2.35,0,0,1,104.15,24.09Z"/><path class="cls-2" d="M9.23,26.26a2.35,2.35,0,1,1-2.35,2.35A2.35,2.35,0,0,1,9.23,26.26Z"/><path class="cls-2" d="M22.79,100.93a2.35,2.35,0,1,1-2.35,2.35A2.35,2.35,0,0,1,22.79,100.93Z"/><path class="cls-2" d="M88.24,3.66A2.35,2.35,0,1,1,85.89,6,2.35,2.35,0,0,1,88.24,3.66Z"/><path class="cls-2" d="M17,20.66a6.87,6.87,0,1,0-6.87-6.87A7,7,0,0,0,17,20.66Z"/><path class="cls-2" d="M92.76,95.32a5.61,5.61,0,1,0,5.61,5.61A5.64,5.64,0,0,0,92.76,95.32Z"/></g></svg>