<svg id="Слой_1" data-name="Слой 1" xmlns="http://www.w3.org/2000/svg" viewBox="0 0 400 400"><defs><style>.cls-1{fill:#eaeaea;}.cls-2{fill:#504495;}</style></defs><g id="_622_Achievement_Reward_Trophy" data-name="622, Achievement, Reward, Trophy"><path class="cls-1" d="M141.35,169.09v33.4A70.73,70.73,0,0,0,188.1,237.9c2,.67,3.34,2,3.34,4V273.3h25.39V241.91c0-2,1.33-3.34,3.34-4a70.72,70.72,0,0,0,46.76-35.41v-33.4a12.83,12.83,0,0,1,8.68-12V56.2H133.33V157.07A13.19,13.19,0,0,1,141.35,169.09Zm100.86-4.67-19.37,14,7.35,22.71c.67,2,0,3.34-1.34,4.67a3.22,3.22,0,0,1-4.67,0l-19.38-14-19.37,14a3.22,3.22,0,0,1-4.67,0c-1.34-1.33-2-2.67-1.34-4.67l7.35-22.71-19.37-14c-1.34-1.34-2-2.67-1.34-4.68s2-2.67,4-2.67h24.05l7.34-22.71c.67-2,2-2.67,4-2.67a4.5,4.5,0,0,1,4,2.67l7.35,22.71h24a4.5,4.5,0,0,1,4,2.67C244.22,161.08,243.55,163.08,242.21,164.42ZM183.43,111a4.3,4.3,0,0,1,4-4h33.4a4,4,0,0,1,0,8h-33.4A4.31,4.31,0,0,1,183.43,111ZM162.72,81.59h83.5a4,4,0,1,1,0,8h-83.5a4.31,4.31,0,0,1-4-4C158.05,83.59,160.05,81.59,162.72,81.59Z"/><path class="cls-2" d="M371.14,85.59a8.69,8.69,0,1,1-8.69,8.69A8.69,8.69,0,0,1,371.14,85.59Z"/><path class="cls-1" d="M158.05,282v25.38h92.18V282Z"/><path class="cls-1" d="M290.31,163.75A46.5,46.5,0,0,0,325,119V81.59H283v75.48C286.3,158.41,289,160.41,290.31,163.75Z"/><path class="cls-1" d="M208.81,162.41l-4.67-13.36-4.68,13.36c-.67,2-2,2.68-4,2.68h-14l11.36,8.68c1.34,1.34,2,2.67,1.34,4.68l-4.68,13.36,11.36-8.69a3.23,3.23,0,0,1,4.67,0l11.36,8.69-4.68-13.36c-.67-2,0-3.34,1.34-4.68l11.35-8.68h-14A12.5,12.5,0,0,1,208.81,162.41Z"/><path class="cls-2" d="M329.72,360.81a8.69,8.69,0,1,1-8.68,8.68A8.67,8.67,0,0,1,329.72,360.81Z"/><path class="cls-2" d="M95.92,18.79a8.69,8.69,0,1,1-8.68,8.69A8.69,8.69,0,0,1,95.92,18.79Z"/><path class="cls-2" d="M383.83,194.48a20.71,20.71,0,1,0-20.71,20.71A20.81,20.81,0,0,0,383.83,194.48Z"/><path class="cls-2" d="M62.52,332.08a12.7,12.7,0,0,0,0,25.39,12.28,12.28,0,0,0,12.69-12.69C74.55,337.43,69.2,332.08,62.52,332.08Z"/><path class="cls-2" d="M371.14,269.29a8.69,8.69,0,1,1-8.69,8.69A8.69,8.69,0,0,1,371.14,269.29Z"/><path class="cls-1" d="M124.65,315.38v16.7H237.54a4,4,0,0,1,0,8H124.65v42.08h159v-66.8h-159Zm138.27,12.7a8.68,8.68,0,1,1-8.68,8.68A8.41,8.41,0,0,1,262.92,328.08Z"/><path class="cls-1" d="M118,163.75a11.16,11.16,0,0,1,7.34-6V81.59H83.23V119A46.51,46.51,0,0,0,118,163.75Z"/><path class="cls-2" d="M45.82,135.69a8.69,8.69,0,1,1-8.68,8.69A8.69,8.69,0,0,1,45.82,135.69Z"/><path class="cls-2" d="M29.12,269.29A8.69,8.69,0,1,1,20.44,278,8.69,8.69,0,0,1,29.12,269.29Z"/><path class="cls-1" d="M133.33,169.09a4,4,0,0,0-8,0v50.1a37.35,37.35,0,0,1-37.4,37.41,4,4,0,1,0,0,8A46.19,46.19,0,0,0,134,218.53V169.09Z"/><path class="cls-1" d="M325,261.28a4.3,4.3,0,0,0-4-4,37.35,37.35,0,0,1-37.41-37.41v-50.1a4,4,0,0,0-8,0v50.1A46.18,46.18,0,0,0,321.7,266,5,5,0,0,0,325,261.28Z"/></g></svg>