<?xml version="1.0" encoding="utf-8"?>
<!-- Generator: Adobe Illustrator 26.0.3, SVG Export Plug-In . SVG Version: 6.00 Build 0)  -->
<svg version="1.1" id="Слой_1" xmlns="http://www.w3.org/2000/svg" xmlns:xlink="http://www.w3.org/1999/xlink" x="0px" y="0px"
	 viewBox="0 0 50.4 32" style="enable-background:new 0 0 50.4 32;" xml:space="preserve">
<style type="text/css">
	.st0{enable-background:new    ;}
	.st1{fill:#6D28D9;}
</style>
<g>
	<g class="st0">
		<path class="st1" d="M21.6,2.5v13.4h-2.9V9.4l-6.2,6.2V9.4L6,15.9H1.9L15.4,2.5v6.2L21.6,2.5z"/>
		<path class="st1" d="M25.4,7.7h1.9c1.1,0,2-0.4,2.7-1.1c0.8-0.7,1.2-1.6,1.2-2.7V2.5h2.9v1.4c0,1.9-0.7,3.4-2,4.8
			c-0.2,0.2-0.4,0.4-0.6,0.5c0.2,0.2,0.4,0.3,0.6,0.5c1.3,1.3,2,2.9,2,4.8V16h-2.9v-1.4c0-1.1-0.4-2-1.1-2.7s-1.7-1.1-2.7-1.1h-1.9
			V16h-2.9V2.5h2.9L25.4,7.7L25.4,7.7z"/>
		<path class="st1" d="M35.2,10.7c-0.1-0.5-0.1-0.9-0.1-1.4c0-1.9,0.7-3.4,2-4.8c1.3-1.3,2.9-2,4.8-2c1.9,0,3.4,0.7,4.8,2
			c0.7,0.7,1.2,1.5,1.5,2.4h-3.3c-0.1-0.1-0.2-0.2-0.3-0.3c-0.7-0.7-1.7-1.1-2.7-1.1s-2,0.4-2.7,1.1c-0.4,0.4-0.7,0.8-0.9,1.3h10.1
			c0.1,0.5,0.1,0.9,0.1,1.4c0,1.9-0.7,3.4-2,4.8s-2.9,2-4.8,2c-1.9,0-3.4-0.7-4.8-2c-0.7-0.7-1.2-1.5-1.5-2.4h3.3
			c0.1,0.1,0.2,0.2,0.3,0.3c0.7,0.7,1.7,1.1,2.7,1.1s2-0.4,2.7-1.1c0.4-0.4,0.7-0.8,0.9-1.3C45.3,10.7,35.2,10.7,35.2,10.7z"/>
	</g>
	<polygon class="st1" points="21.4,16.8 18.7,16.8 18.7,29.5 21.4,29.5 21.6,29.5 21.6,16.8 	"/>
	<polygon class="st1" points="31.6,16.8 31.2,16.8 31.2,17 31.2,17 31.2,21.6 25.4,21.6 25.4,16.8 25.1,16.8 22.6,16.8 22.6,23.3 
		22.6,24.2 31.2,24.2 31.2,29.5 34.1,29.5 34.1,29.1 34.1,23.3 34.1,17 34.1,16.8 	"/>
</g>
</svg>
