<?xml version="1.0" encoding="utf-8"?>
<!-- Generator: Adobe Illustrator 26.0.3, SVG Export Plug-In . SVG Version: 6.00 Build 0)  -->
<svg version="1.1" id="Слой_1" xmlns="http://www.w3.org/2000/svg" xmlns:xlink="http://www.w3.org/1999/xlink" x="0px" y="0px"
	 viewBox="0 0 94 59.7" style="enable-background:new 0 0 94 59.7;" xml:space="preserve">
<style type="text/css">
	.st0{fill:#FFFFFF;}
	.st1{enable-background:new    ;}
	.st2{fill:#6D28D9;}
</style>
<g>
	<g>
		<g>
			<g>
				<g id="_x31_58_x2C__Helmet_x2C__Space_x2C__Safety">
					<g>
						<g>
							<path class="st0" d="M47.9,12.8c-9.2,0-16.7,7.4-16.7,16.7c0,9.3,7.4,16.7,16.7,16.7c9.2,0,16.7-7.4,16.7-16.7
								C64.7,20.2,57.1,12.8,47.9,12.8z"/>
							<path class="st0" d="M62.7,48.3C54,55,41.9,55,33.2,48.3l-1.9,6.5c-0.6,2.2,1,4.4,3.3,4.4h26.7c1,0,2.1-0.5,2.8-1.4
								c0.7-0.8,0.8-2,0.6-3L62.7,48.3z"/>
							<path class="st0" d="M22.5,46.9c0-1.2-0.9-2.2-2.2-2.2c-1.2,0-2.2,0.9-2.2,2.2c0,1.2,0.9,2.2,2.2,2.2
								C21.6,49,22.5,48.1,22.5,46.9z"/>
							<path class="st0" d="M77.7,38.9c-1.6,0-2.9,1.3-2.9,2.9s1.3,2.9,2.9,2.9c1.6,0,2.9-1.3,2.9-2.9S79.3,38.9,77.7,38.9z"/>
							<path class="st0" d="M70.1,13.2c0,13.9,0,12.9,0,13c0,0,0,0,0,0.1c0,0.1,0,0.1,0,0.1c0.1,0.1,0.2,0.2,0.3,0.2c0,0,0,0,0.1,0
								l0,0c0.5,0.1,0.8-0.1,0.8-0.4c0-3.7,0-9.2,0-12.9c0-0.2-0.3-0.4-0.7-0.4C70.5,12.8,70.1,13,70.1,13.2z"/>
							<path class="st0" d="M24.2,13.2c0,3.7,0,9.2,0,12.9c0,0.3,0.5,0.5,0.8,0.4l0,0c0,0,0,0,0.1,0c0,0,0.1,0,0.1-0.1
								c0,0,0.1,0,0.1-0.1c0.1,0,0.1-0.1,0.1-0.1v-0.1c0,0,0,0,0-0.1s0,0.1,0-3.1c0-3.1,0-7.1,0-9.9c0-0.2-0.3-0.4-0.7-0.4
								C24.6,12.8,24.2,13,24.2,13.2z"/>
							<path class="st0" d="M69.6,12.8c0.6-0.7,1.6-0.7,2.2,0c1-0.5,1.9-1.5,1.9-2.7c0-1.6-1.3-2.9-2.9-2.9c-1.6,0-2.9,1.3-2.9,2.9
								C67.7,11.4,68.5,12.5,69.6,12.8z"/>
							<path class="st0" d="M23.7,12.8c0.6-0.7,1.6-0.7,2.2,0c1-0.5,1.9-1.5,1.9-2.7c0-1.6-1.3-2.9-2.9-2.9c-1.6,0-2.9,1.3-2.9,2.9
								C21.8,11.4,22.7,12.5,23.7,12.8z"/>
							<path class="st0" d="M75.4,29.5c0-1.6-1.3-2.9-2.9-2.9h-0.5c-0.2,0.5-0.7,0.7-1.3,0.7c-0.3,0-0.8-0.1-1-0.5
								c-0.2-0.2-0.3-0.6-0.3-0.9v-3C66.5,13.6,57.9,7.1,47.9,7.1c-10.1,0-18.6,6.5-21.5,15.8c0,3.3,0,3.1,0,3.4
								c0,0.1,0,0.2-0.1,0.2c-0.1,0.2-0.1,0.3-0.2,0.5c-0.1,0.1-0.2,0.2-0.5,0.3c-0.1,0-0.1,0.1-0.2,0.1c-0.1,0-0.2,0-0.3,0
								c-0.6,0-1-0.3-1.3-0.7h-0.5c-1.6,0-2.9,1.3-2.9,2.9c0,1.6,1.3,2.9,2.9,2.9h1.7c0.3,0,0.7,0.2,0.7,0.6
								c1.7,11,11,18.9,22.2,18.9c5.7,0,10.9-2.1,14.9-5.6c3.8-3.4,6.5-8,7.3-13.5c0-0.3,0.3-0.6,0.7-0.6h1.7
								C74.2,32.4,75.4,31,75.4,29.5z M47.9,47.6c-10,0-18.1-8.1-18.1-18.1c0-10,8.1-18.1,18.1-18.1c10,0,18.1,8.1,18.1,18.1
								C66,39.5,57.9,47.6,47.9,47.6z"/>
							<path class="st0" d="M61.7,0.5c0.8,0,1.5,0.7,1.5,1.5s-0.7,1.5-1.5,1.5c-0.8,0-1.5-0.7-1.5-1.5S60.9,0.5,61.7,0.5z"/>
							<path class="st0" d="M32.4,3.5C33.3,3.5,34,4.2,34,5c0,0.8-0.7,1.5-1.5,1.5c-0.8,0-1.5-0.7-1.5-1.5
								C30.9,4.2,31.6,3.5,32.4,3.5z"/>
							<path class="st0" d="M18.9,12c0.8,0,1.5,0.7,1.5,1.5S19.7,15,18.9,15c-0.8,0-1.5-0.7-1.5-1.5S18.1,12,18.9,12z"/>
							<path class="st0" d="M78.4,16.4c0.8,0,1.5,0.7,1.5,1.5c0,0.8-0.7,1.5-1.5,1.5c-0.8,0-1.5-0.7-1.5-1.5
								C76.8,17,77.5,16.4,78.4,16.4z"/>
							<path class="st0" d="M75.4,49.8c0.8,0,1.4,0.6,1.4,1.4c0,0.8-0.6,1.4-1.4,1.4c-0.8,0-1.4-0.6-1.4-1.4
								C74.1,50.4,74.7,49.8,75.4,49.8z"/>
							<path class="st0" d="M23.2,54.1c0.8,0,1.5,0.7,1.5,1.5c0,0.8-0.7,1.5-1.5,1.5c-0.8,0-1.5-0.7-1.5-1.5
								C21.7,54.8,22.4,54.1,23.2,54.1z"/>
							<path class="st0" d="M17.4,36.7c0.8,0,1.5,0.7,1.5,1.5c0,0.8-0.7,1.5-1.5,1.5c-0.8,0-1.5-0.7-1.5-1.5
								C15.9,37.4,16.6,36.7,17.4,36.7z"/>
						</g>
					</g>
				</g>
				<g id="Layer_1_00000116235835310096768750000005446174284839600565_">
				</g>
			</g>
		</g>
	</g>
	<g>
		<g class="st1">
			<path class="st2" d="M42.3,22.5v13.4h-2.9v-6.5l-6.2,6.2v-6.2l-6.5,6.5h-4.1l13.5-13.4v6.2L42.3,22.5z"/>
			<path class="st2" d="M46.1,27.7H48c1.1,0,2-0.4,2.7-1.1c0.8-0.7,1.2-1.6,1.2-2.7v-1.4h2.9v1.4c0,1.9-0.7,3.4-2,4.8
				c-0.2,0.2-0.4,0.4-0.6,0.5c0.2,0.2,0.4,0.3,0.6,0.5c1.3,1.3,2,2.9,2,4.8V36h-2.9v-1.4c0-1.1-0.4-2-1.1-2.7s-1.7-1.1-2.7-1.1h-1.9
				V36h-2.9V22.5h2.9L46.1,27.7L46.1,27.7z"/>
			<path class="st2" d="M55.9,30.7c-0.1-0.5-0.1-0.9-0.1-1.4c0-1.9,0.7-3.4,2-4.8c1.3-1.3,2.9-2,4.8-2s3.4,0.7,4.8,2
				c0.7,0.7,1.2,1.5,1.5,2.4h-3.3c-0.1-0.1-0.2-0.2-0.3-0.3c-0.7-0.7-1.7-1.1-2.7-1.1s-2,0.4-2.7,1.1c-0.4,0.4-0.7,0.8-0.9,1.3h10.1
				c0.1,0.5,0.1,0.9,0.1,1.4c0,1.9-0.7,3.4-2,4.8c-1.3,1.4-2.9,2-4.8,2c-1.9,0-3.4-0.7-4.8-2c-0.7-0.7-1.2-1.5-1.5-2.4h3.3
				c0.1,0.1,0.2,0.2,0.3,0.3c0.7,0.7,1.7,1.1,2.7,1.1s2-0.4,2.7-1.1c0.4-0.4,0.7-0.8,0.9-1.3C66,30.7,55.9,30.7,55.9,30.7z"/>
		</g>
		<polygon class="st2" points="42.1,36.8 39.4,36.8 39.4,49.5 42.1,49.5 42.3,49.5 42.3,36.8 		"/>
		<polygon class="st2" points="52.3,36.8 51.9,36.8 51.9,37 51.9,37 51.9,41.6 46.1,41.6 46.1,36.8 45.8,36.8 43.3,36.8 43.3,43.3 
			43.3,44.2 51.9,44.2 51.9,49.5 54.8,49.5 54.8,49.1 54.8,43.3 54.8,37 54.8,36.8 		"/>
	</g>
</g>
</svg>
