<?xml version="1.0" encoding="utf-8"?>
<!-- Generator: Adobe Illustrator 26.0.3, SVG Export Plug-In . SVG Version: 6.00 Build 0)  -->
<svg version="1.1" id="Слой_1" xmlns="http://www.w3.org/2000/svg" xmlns:xlink="http://www.w3.org/1999/xlink" x="0px" y="0px"
	 viewBox="0 0 200 100" style="enable-background:new 0 0 200 100;" xml:space="preserve">
<style type="text/css">
	.st0{fill:#FFFFFF;}
</style>
<path class="st0" d="M53,71.2c-0.3,0.1-0.7-0.1-1.2-0.5c-0.6-0.4-1.1-0.8-1.6-1.3c-0.5-0.4-0.9-1-1.2-1.5c-0.3-0.5-0.3-0.8-0.1-1
	c2.3-1.2,4.7-2.2,7.2-3.1c2.6-1,5.3-1.8,8-2.6c-0.8-0.7-1.1-1.2-1-1.7c1.7-3.2,3.6-6.3,5.7-9.2c1.9-2.8,4-5.4,6.1-8
	c2.1-2.6,4.3-5.1,6.6-7.7c2.3-2.5,4.8-5.3,7.3-8.3c-4.2,1.5-8.2,3.5-11.9,6c-4.3,2.9-8.4,6.1-12.3,9.6c-0.3,0.2-0.8,0.1-1.6-0.2
	c-0.8-0.3-1.6-0.7-2.4-1.1c-0.7-0.4-1.4-0.9-2.1-1.4c-0.6-0.5-0.8-0.8-0.6-1.1c3.8-3.4,7.8-6.5,12.1-9.3c4-2.6,8.2-4.8,12.7-6.5
	c4.4-1.7,8.9-3,13.5-3.7c4.9-0.8,9.8-1,14.7-0.8c0.3,0.1,0.5,0.4,0.7,1c0.2,0.6,0.3,1.3,0.4,1.9c0.1,0.6,0,1.3-0.1,1.9
	c-0.1,0.6-0.3,0.9-0.6,1c-3.9-0.2-7.7-0.1-11.6,0.3c-3.4,0.4-6.7,1.1-10,2.1c0.4,0.1,0.8,0.4,1.1,0.6c0.4,0.3,0.8,0.6,1.2,1
	c0.3,0.3,0.6,0.7,0.8,1.1c0.2,0.2,0.2,0.6,0.1,0.9c-2.3,2.7-4.5,5.3-6.5,7.7c-2,2.4-3.9,4.8-5.7,7.2c-1.8,2.4-3.5,4.8-5.1,7.3
	c-1.6,2.5-3.2,5.1-4.7,8c0.5-0.1,1-0.1,1.5-0.2l1.4-0.1c0.3,0,0.7,0.3,0.9,0.9c0.3,0.7,0.6,1.4,0.7,2.1c0.2,0.7,0.3,1.5,0.3,2.2
	c0,0.7-0.2,1.1-0.5,1.1c-3.8,0.2-7.6,0.7-11.3,1.4C60.2,68.2,56.5,69.4,53,71.2z"/>
<path class="st0" d="M118.7,22c0.2-0.2,0.5-0.1,1,0.3c0.5,0.4,0.9,0.9,1.2,1.4c4.1-0.8,8.4-1.4,12.9-1.9c4.9-0.5,9.8-0.7,14.7-0.6
	c0.3,0.1,0.6,0.5,1.1,1.2c0.5,0.7,0.9,1.5,1.3,2.3c0.4,0.7,0.7,1.5,0.9,2.3c0.2,0.7,0.2,1.1-0.1,1.1c-3.8-0.1-7.3-0.1-10.4-0.1
	s-5.9,0.2-8.5,0.4s-5.1,0.5-7.3,0.8s-4.5,0.8-6.7,1.2c-2.8,3.2-5.6,6.4-8.4,9.8c-2.8,3.4-5.5,6.8-8,10.4c-2.5,3.5-4.7,7.2-6.7,11
	c-2,3.7-3.5,7.6-4.7,11.6c-0.2,0.3-0.5,0.3-1.2-0.1c-0.7-0.4-1.4-0.9-2-1.4c-0.7-0.6-1.3-1.2-1.8-1.9c-0.5-0.7-0.7-1.2-0.6-1.5
	c1.1-3.2,2.5-6.3,4.1-9.3c1.6-3,3.5-6,5.4-8.8c2-2.9,4.2-5.7,6.4-8.5c2.3-2.8,4.6-5.5,7-8.2c-2.4,0.7-5,1.6-7.8,2.5s-5.8,2-9.2,3
	c-0.4,0.1-0.9,0.1-1.3-0.1c-0.7-0.2-1.4-0.5-2.1-0.9c-0.8-0.4-1.6-0.9-2.3-1.4c-0.7-0.5-1.4-1.1-2-1.7c-0.5-0.5-0.9-1-1.2-1.7
	c-0.3-0.4-0.2-1,0.1-1.4c2.5-0.1,5-0.4,7.4-0.8c2.6-0.5,5.2-1.1,8-1.8l8.7-2.2c3-0.8,6.2-1.6,9.5-2.3L118.7,22z"/>
<path class="st0" d="M114.5,44.1c0.2-0.2,0.5-0.2,0.9,0c0.5,0.3,0.9,0.7,1.3,1.1c0.5,0.5,0.9,1.1,1.2,1.7c0.3,0.4,0.5,0.9,0.5,1.5
	c-0.1,0.4-0.4,0.9-0.6,1.2c-0.4,0.7-0.9,1.5-1.6,2.4l-2,3c-0.7,1.1-1.4,2.1-1.9,3c-0.6,0.9-1,1.7-1.4,2.4s-0.5,1.1-0.4,1.2
	s0.4,0,0.9-0.3c0.6-0.5,1.2-1.1,1.7-1.6c0.7-0.7,1.5-1.6,2.3-2.5s1.7-2,2.6-3s1.7-2,2.5-3s1.5-1.8,2.2-2.6c0.5-0.4,0.9-0.4,1.2-0.1
	s0.4,0.7,0.1,1.2c-0.6,0.8-1.3,1.8-2.1,2.9s-1.7,2.3-2.7,3.5s-2,2.4-3,3.6s-2.1,2.2-3.1,3.2c-0.9,0.8-1.8,1.5-2.8,2.2
	c-0.7,0.5-1.4,0.7-2.2,0.7c-0.4,0-0.8-0.2-1.2-0.3c-0.4-0.2-0.8-0.4-1.1-0.7c-0.3-0.3-0.6-0.6-0.9-0.9c-0.2-0.3-0.3-0.7-0.3-1.1
	c0.1-1.1,0.4-2.2,0.8-3.2c0.5-1.3,1.1-2.6,1.7-3.8c0.7-1.3,1.4-2.6,2.2-3.9c0.8-1.3,1.5-2.5,2.2-3.5s1.3-1.9,1.8-2.6
	S114.4,44.3,114.5,44.1z M119.9,34.8c0.4-0.3,0.9-0.4,1.3-0.2c0.6,0.2,1.1,0.5,1.6,0.9c0.5,0.4,0.8,0.9,1.1,1.4
	c0.3,0.4,0.2,0.9-0.1,1.3c-0.3,0.4-0.6,0.9-1,1.4s-0.8,1.1-1.2,1.7s-0.8,1.2-1.1,1.8c-0.3,0.6-0.6,1.1-0.8,1.7
	c-0.1,0.2-0.3,0.2-0.7,0.1c-0.4-0.2-0.8-0.4-1.1-0.8c-0.4-0.4-0.8-1-1-1.5c-0.2-0.7-0.3-1.4-0.1-2.1c0.1-0.3,0.3-0.7,0.5-1.1
	s0.4-1,0.7-1.5s0.6-1,0.9-1.6C119.1,35.8,119.4,35.3,119.9,34.8z"/>
<path class="st0" d="M140.9,47.7c-0.1,1.2-0.4,2.3-0.9,3.4c-0.5,1.1-1.2,2.2-1.8,3.2c-0.7,1-1.5,2.1-2.2,3.1s-1.5,2-2.2,3
	c-0.2,0.3-0.4,0.7-0.5,1.1c0.1,0.2,0.4,0,0.9-0.3c0.6-0.5,1.2-1.1,1.7-1.6c0.7-0.7,1.4-1.6,2.3-2.5s1.7-2,2.6-3s1.7-2,2.5-3
	s1.5-1.8,2.2-2.6c0.3-0.4,0.9-0.4,1.3-0.1c0.4,0.3,0.4,0.7,0.2,1.2c-0.6,0.8-1.3,1.8-2.2,2.9s-1.8,2.3-2.8,3.5s-2,2.4-3,3.6
	c-0.9,1.1-1.9,2.2-3,3.2c-0.9,0.8-1.8,1.5-2.8,2.2c-0.7,0.5-1.4,0.7-2.2,0.7c-0.4-0.1-0.8-0.2-1.2-0.4c-0.4-0.2-0.9-0.5-1.2-0.8
	c-0.4-0.3-0.7-0.6-1-1c-0.3-0.3-0.4-0.8-0.3-1.2c0.1-0.8,0.3-1.6,0.6-2.3c0.4-0.9,0.8-1.7,1.3-2.6c0.7-1.2,1.5-2.3,2.3-3.4
	c0.8-1.1,1.6-2.2,2.2-3.3c0.4-0.6,0.7-1.2,0.9-1.6s0.3-0.7,0.2-0.8s-0.4,0-0.9,0.3c-0.7,0.5-1.3,1-1.9,1.6c-0.7,0.7-1.6,1.5-2.5,2.5
	s-1.8,1.9-2.8,2.9s-1.8,2-2.7,3s-1.6,1.8-2.3,2.6c-0.7,1.2-1.3,2.3-1.8,3.1c-0.3,0.6-0.6,1.1-0.9,1.6c-0.2,0.2-0.5,0.2-0.9,0
	c-0.5-0.3-0.9-0.7-1.2-1.1c-0.4-0.5-0.8-1-1.1-1.6c-0.3-0.4-0.4-0.9-0.5-1.5c0.1-0.5,0.3-1,0.5-1.4c0.3-0.7,0.8-1.5,1.3-2.5
	s1.1-2,1.8-3.1s1.3-2.2,1.9-3.2l1.6-2.7l1-1.8l0.9-1.8c0.2-0.4,0.4-0.7,0.6-1v0.1c0.2-0.3,0.5-0.3,0.9,0c0.5,0.3,0.9,0.7,1.3,1.1
	c0.4,0.5,0.8,1,1.1,1.6c0.3,0.5,0.4,1,0.4,1.5c0,0.2-0.1,0.3-0.2,0.5l-0.5,0.5l-0.5,0.6c-0.1,0.1-0.2,0.2-0.3,0.3
	c-0.3,0.5-0.6,0.9-0.8,1.3l-0.6,1.1c0.9-1.1,1.9-2.2,2.9-3.3c0.9-1,1.8-1.9,2.8-2.8c0.8-0.7,1.6-1.4,2.6-2c0.6-0.4,1.3-0.6,2.1-0.6
	c0.5,0.1,0.9,0.3,1.4,0.4c0.6,0.2,1.1,0.5,1.6,0.8c0.5,0.3,0.9,0.7,1.3,1.1C140.7,46.8,140.9,47.2,140.9,47.7z"/>
<path class="st0" d="M165.3,55.4c-1.9,2.1-3.9,4.1-6.1,5.9c-2,1.7-4,3.3-6.1,4.8c-0.6,1-1.3,2.2-2.1,3.4s-1.5,2.6-2.4,4.1
	c-0.6,1.1-1.2,2-1.6,2.8s-0.8,1.4-1.1,1.9c-0.3,0.5-0.6,0.9-1,1.3c-0.3,0.4-0.7,0.8-1.1,1.2c-0.9,0.7-1.9,1.2-3,1.4
	c-0.7,0.2-1.5,0.1-2.2-0.2c-0.6-0.3-1.1-0.8-1.4-1.4c-0.3-0.7-0.5-1.4-0.6-2.2c0-0.8,0-1.7,0.2-2.5c0.2-0.8,0.6-1.6,1.1-2.3
	c1.1-1.6,2.4-3,4-4.2c1.6-1.2,3.3-2.2,5-3.2c0.4-0.6,0.7-1.3,1.1-1.9s0.7-1.3,1-1.9c-0.3,0.3-0.7,0.6-1.1,1s-0.9,0.8-1.3,1.1
	c-0.4,0.3-0.9,0.6-1.3,0.9c-0.4,0.2-0.8,0.4-1.2,0.4c-0.4,0.1-0.9,0-1.3-0.1c-0.4-0.1-0.8-0.3-1.1-0.5c-0.9-0.5-1.7-1.1-2.4-1.9
	c-0.7-0.7-1-1.7-1.1-2.7c0.1-1.2,0.3-2.3,0.8-3.4c0.5-1.3,1.2-2.5,1.9-3.7c0.8-1.3,1.7-2.5,2.7-3.6c1-1.1,2.1-2.2,3.3-3.1
	c1.1-0.9,2.3-1.6,3.6-2.1c1.1-0.5,2.4-0.7,3.6-0.7c0.7,0,1.4,0.2,2.1,0.5c0.7,0.4,1.3,0.8,1.9,1.3c0.4,0.4,0.7,0.9,0.9,1.3l1.1-1.2
	c0.1-0.2,0.4-0.2,0.9,0.1c0.5,0.3,1,0.7,1.3,1.1c0.4,0.5,0.8,1.1,1.2,1.6c0.3,0.5,0.5,1,0.5,1.5c-0.2,0.4-0.4,0.7-0.7,1.1
	c-0.4,0.5-0.9,1.1-1.4,1.9s-1.1,1.5-1.8,2.3s-1.2,1.6-1.7,2.4c-0.1,0.3-0.3,0.5-0.5,0.8c-0.2,0.3-0.4,0.5-0.6,0.8l-0.2,0.3
	c2.4-1.8,4.6-3.8,6.7-5.9c1.6-1.6,3.2-3.4,4.8-5.3c0.5-0.4,0.9-0.4,1.2-0.1s0.4,0.7,0.1,1.2c-0.5,0.7-1.2,1.6-2.1,2.6
	S166.2,54.3,165.3,55.4z M138.4,79.4c0.2,0.1,0.6-0.1,1-0.6s1.1-1.4,1.8-2.5l1.8-2.9l-1.3,1.1c-0.5,0.4-1,0.8-1.5,1.2
	c-0.5,0.4-1,0.9-1.4,1.4c-0.3,0.4-0.6,0.8-0.8,1.3C137.9,78.8,138.1,79.2,138.4,79.4L138.4,79.4z M144.4,62.5
	c0.4-0.1,0.9-0.3,1.2-0.6c0.6-0.4,1.3-0.9,2.1-1.5s1.6-1.3,2.5-2.1s1.7-1.5,2.6-2.2l1.6-2.7c-0.4,0.1-0.8,0.1-1.2,0
	c-0.3-0.1-0.3-0.2,0-0.5c0.4-0.4,0.8-0.8,1.2-1.2c0.5-0.6,0.9-1.1,1.4-1.8c0.4-0.5,0.6-1,0.8-1.6c0.1-0.5,0-0.8-0.3-0.8
	c-0.9,0-1.8,0.4-2.5,1c-1.2,0.8-2.3,1.8-3.4,2.8c-1.2,1.1-2.2,2.3-3.2,3.6c-0.8,1-1.6,2.1-2.1,3.2c-0.2,0.4-0.4,0.8-0.6,1.3
	c-0.2,0.5-0.4,1-0.6,1.5c-0.1,0.4-0.2,0.7-0.1,1.1C143.8,62.5,144,62.6,144.4,62.5L144.4,62.5z"/>
<path class="st0" d="M188.7,51.1l-1.4,1.6c-0.9,1-1.7,1.9-2.7,2.8c-0.9,0.9-2,1.8-3.1,2.5l-1.3,0.8c-0.4,0.3-0.9,0.5-1.4,0.5
	c-0.2,0-0.4,0-0.5,0c-0.2,0-0.3,0-0.5-0.1c-0.6,0.7-1.1,1.3-1.8,1.9c-0.6,0.6-1.3,1.2-2,1.6l-1.2,0.8c-0.5,0.4-1,0.7-1.6,1
	c-0.6,0.3-1.2,0.6-1.8,0.8c-0.5,0.2-1.1,0.4-1.6,0.4c-0.9,0.1-1.7-0.1-2.4-0.6c-0.9-0.5-1.7-1.2-2.4-1.9c-0.7-0.7-1-1.7-1-2.7
	c0.1-1.8,0.6-3.6,1.6-5.3c1-2,2.3-3.8,3.8-5.5c1.5-1.7,3.2-3.1,5.1-4.3c1.6-1.1,3.5-1.6,5.4-1.6c0.7,0,1.5,0.2,2.1,0.5
	c0.7,0.4,1.3,0.8,1.8,1.3c0.5,0.5,0.9,1.1,1.1,1.7c0.1,0.5,0.1,1,0,1.5c0.3,0.5,0.4,1.1,0.3,1.7c-0.2,0.9-0.5,1.7-1.1,2.4
	c-0.5,0.7-1,1.2-1.3,1.7s-0.6,0.8-0.8,1s-0.2,0.4-0.1,0.4s0.3-0.1,0.8-0.3c0.5-0.3,1-0.6,1.5-1c0.6-0.4,1.1-0.9,1.8-1.5
	s1.2-1.1,1.8-1.8s1.1-1.2,1.7-1.8l1.2-1.4c0.3-0.4,0.9-0.4,1.3-0.1c0.4,0.3,0.4,0.7,0.2,1.2L188.7,51.1z M168.1,62.6
	c0.5,0.2,1,0.2,1.5,0c0.7-0.2,1.4-0.4,2-0.8c0.8-0.4,1.5-0.9,2.2-1.5c0.8-0.6,1.5-1.2,2.2-1.9c-0.7-0.6-1.2-1.5-1.2-2.5
	c-0.1-1.1,0.1-2.1,0.6-3.1c0.2-0.4,0.5-0.8,0.8-1.2c0.4-0.4,0.8-0.8,1.2-1.2c0.4-0.4,0.9-0.7,1.4-1c0.4-0.3,0.9-0.5,1.4-0.7
	c0.3-0.7,0.2-1.1-0.2-1.2c-0.9,0-1.8,0.4-2.5,1c-1.2,0.8-2.3,1.8-3.4,2.8c-1.2,1.1-2.2,2.3-3.3,3.6c-0.8,1-1.6,2.1-2.1,3.2
	c-0.2,0.4-0.4,0.8-0.6,1.2c-0.2,0.4-0.4,0.8-0.5,1.3c-0.1,0.4-0.2,0.7-0.1,1.1C167.5,62.2,167.8,62.5,168.1,62.6z"/>
<path class="st0" d="M40.8,57.5h-7.9V45.5c0-1.2-0.5-1.8-1.5-1.8s-1.5,0.6-1.5,1.8v11.9H22V45.7c-0.1-2.6,0.9-5.1,2.7-7
	c1.7-1.8,4.2-2.8,6.7-2.8c2.8-0.1,5.5,1.1,7.3,3.3c1.4,1.7,2.1,4.1,2.1,7.1L40.8,57.5L40.8,57.5z"/>
<path class="st0" d="M31.7,21c2.9,0,5.7,1.1,7.7,3.2c2.1,2,3.3,4.8,3.2,7.8c0.1,2.9-1.1,5.8-3.3,7.8c-2.1,2.1-4.9,3.3-7.9,3.2
	c-2.9,0-5.8-1.1-7.8-3.2c-2.1-2-3.3-4.8-3.3-7.8c-0.1-2.9,1.1-5.8,3.3-7.8C25.8,22.1,28.7,20.9,31.7,21z M31.5,28.8
	c-0.8,0-1.6,0.3-2.2,0.9c-0.6,0.6-0.9,1.4-0.9,2.3c0,0.8,0.3,1.7,0.9,2.2c1.1,1.2,3,1.2,4.2,0.1c0,0,0.1-0.1,0.1-0.1
	c0.6-0.6,0.9-1.4,0.9-2.2c0-0.8-0.3-1.7-0.9-2.2C33.1,29.1,32.3,28.8,31.5,28.8L31.5,28.8z"/>
<path class="st0" d="M45.1,40.7c0-1,0.4-2,1.1-2.8c1.4-1.5,3.8-1.6,5.3-0.1c0,0,0,0,0.1,0.1c1.4,1.6,1.4,4.1,0,5.7
	c-0.7,0.7-1.7,1.1-2.7,1.1c-1,0-2-0.4-2.7-1.2C45.5,42.7,45.1,41.7,45.1,40.7z"/>
<path class="st0" d="M9.9,40.7c0-1,0.4-2,1.1-2.8c1.4-1.5,3.8-1.6,5.3-0.1c0,0,0,0,0.1,0.1c1.4,1.6,1.4,4.1,0,5.7
	c-0.7,0.7-1.7,1.1-2.7,1.1c-1,0-2-0.4-2.7-1.2C10.3,42.7,9.9,41.7,9.9,40.7z"/>
<path class="st0" d="M44.4,66.9H18.3v-7.8h26.1V66.9z"/>
</svg>
