<svg id="Слой_1" data-name="Слой 1" xmlns="http://www.w3.org/2000/svg" viewBox="0 0 60 60"><defs><style>.cls-1{fill:#fff;}</style></defs><g id="_200_Planet_Saturn_Space" data-name="200, Planet, Saturn, Space"><path class="cls-1" d="M12.48,11.72a3.1,3.1,0,1,0-3.13-3.1A3.14,3.14,0,0,0,12.48,11.72Z"/><path class="cls-1" d="M45.22,49.8a2.5,2.5,0,1,0,2.53,2.5A2.56,2.56,0,0,0,45.22,49.8Z"/><path class="cls-1" d="M45.22,9.22a1.3,1.3,0,1,1-1.32,1.3A1.31,1.31,0,0,1,45.22,9.22Z"/><path class="cls-1" d="M21.27,2.92A1.3,1.3,0,1,1,20,4.22,1.31,1.31,0,0,1,21.27,2.92Z"/><path class="cls-1" d="M16.93,54.32a1.3,1.3,0,1,1-1.31,1.3A1.31,1.31,0,0,1,16.93,54.32Z"/><path class="cls-1" d="M36.07,49.7A1.3,1.3,0,1,1,34.76,51,1.31,1.31,0,0,1,36.07,49.7Z"/></g><path class="cls-1" d="M24.68,19.82H46.4V17.49H40.11v-2a3,3,0,0,0-3-3H25a3,3,0,0,0-3,3v2H15.79v2.33h8.89Zm0-4.34a.27.27,0,0,1,.27-.27H37.11a.27.27,0,0,1,.28.27v2H24.68Z"/><path class="cls-1" d="M49.7,36.68v-16H12.48v16H14.4v1.63H12.48v8.78H49.7V38.31H47.79V36.68ZM44.27,23.23a3.35,3.35,0,1,1-3.35,3.36A3.36,3.36,0,0,1,44.27,23.23Zm-15.91,9,2.24-5.42,2.73-.37-3.08,5.24,2.34-.3,1.59-.21-.93,1.22L29,38l2.52-5.11-2.48.34-1.17.16Zm-10.44-9a3.35,3.35,0,1,1-3.35,3.36A3.36,3.36,0,0,1,17.92,23.23ZM49.15,46.54H13V43.35h2.1V45h2.67V43.35h4.64V45h2.67V43.35h4.64V45h2.67V43.35h4.64V45h2.67V43.35h4.64V45h2.67V43.35h2.1Z"/><polygon class="cls-1" points="17.5 28.85 18.31 28.85 18.31 26.99 20.18 26.99 20.18 26.18 18.31 26.18 18.31 24.32 17.5 24.32 17.5 26.18 15.66 26.18 15.66 26.99 17.5 26.99 17.5 28.85"/><rect class="cls-1" x="42.01" y="26.18" width="4.52" height="0.8"/></svg>