<svg id="Слой_1" data-name="Слой 1" xmlns="http://www.w3.org/2000/svg" viewBox="0 0 60 60"><defs><style>.cls-1{fill:#ffec3d;}</style></defs><g id="_495_Charge_Ecologic_Electric_Energy_Renewable" data-name="495, Charge, Ecologic, Electric, Energy, Renewable"><path class="cls-1" d="M38.63,6.86a1.1,1.1,0,0,0-.51-1.28,1,1,0,0,0-1.27.26L15.41,33.15a1.08,1.08,0,0,0,.85,1.7H28.68l-5.1,18.29a1.1,1.1,0,0,0,.51,1.28,1,1,0,0,0,1.27-.26L46.8,26.77a1.07,1.07,0,0,0-.85-1.7H33.53ZM31.15,25.75a1.09,1.09,0,0,0,1,1.36H43.82L27.07,48.46l4-14.38a1.09,1.09,0,0,0-1-1.36H18.39L35.15,11.37Z"/><path class="cls-1" d="M34.81,34a1.05,1.05,0,0,0,1.44-.26l2.13-3.23a1.05,1.05,0,0,0-.26-1.45,1,1,0,0,0-1.44.26l-2.13,3.23A1,1,0,0,0,34.81,34Z"/><path class="cls-1" d="M51.31,6.52a3.23,3.23,0,0,0-3.23,3.23,3.19,3.19,0,1,0,3.23-3.23Zm0,4.25a1.11,1.11,0,1,1,1.11-1.1A1.13,1.13,0,0,1,51.31,10.77Z"/><path class="cls-1" d="M9.29,46.93A3.75,3.75,0,1,0,13,50.67,3.78,3.78,0,0,0,9.29,46.93Zm0,5.36a1.62,1.62,0,1,1,1.61-1.62A1.61,1.61,0,0,1,9.29,52.29Z"/><path class="cls-1" d="M14.05,8.65a1.11,1.11,0,1,0,0-2.21,1,1,0,0,0-1,1.1A1.11,1.11,0,0,0,14.05,8.65Z"/><path class="cls-1" d="M39.66,19.28a1.06,1.06,0,1,0,1-1.1A1.1,1.1,0,0,0,39.66,19.28Z"/><path class="cls-1" d="M16.26,21.41a1.11,1.11,0,1,0,1.11-1.11A1.13,1.13,0,0,0,16.26,21.41Z"/><path class="cls-1" d="M39.66,41.65a1.06,1.06,0,1,0,1-1.1A1,1,0,0,0,39.66,41.65Z"/><path class="cls-1" d="M50.29,49.06a1.11,1.11,0,1,0,1.11,1.1A1.27,1.27,0,0,0,50.29,49.06Z"/></g><path class="cls-1" d="M17.69,36.1a3,3,0,1,0,3,3A3,3,0,0,0,17.69,36.1Z"/><path class="cls-1" d="M23.28,8.89a3,3,0,1,0,3,3A3.06,3.06,0,0,0,23.28,8.89Z"/><path class="cls-1" d="M48.56,38.57a3,3,0,1,0,3,3A3.06,3.06,0,0,0,48.56,38.57Z"/><path class="cls-1" d="M46.66,34.08a1.27,1.27,0,1,1-1.28,1.27A1.27,1.27,0,0,1,46.66,34.08Z"/><path class="cls-1" d="M9.85,24.24a1.27,1.27,0,1,1-1.28,1.27A1.28,1.28,0,0,1,9.85,24.24Z"/></svg>