<svg id="Слой_1" data-name="Слой 1" xmlns="http://www.w3.org/2000/svg" viewBox="0 0 60 60"><defs><style>.cls-1{fill:#88bd24;}</style></defs><g id="_143_Apple_Food_Meal_Healthy_Food" data-name="143, Apple, Food, Meal, Healthy Food"><path class="cls-1" d="M19.11,15.16a11.88,11.88,0,0,1,6.78,2.72l-.27-1.81h0A8.08,8.08,0,0,0,16.9,9.72a8.92,8.92,0,0,0,2.21,5.44Z"/><path class="cls-1" d="M27.36,19.24a6.5,6.5,0,0,1,.91,1.27,8.61,8.61,0,0,1,1.1-1.36l1.38-8.61a2.39,2.39,0,1,0-4.77,0Z"/><path class="cls-1" d="M34.14,40.9A10.87,10.87,0,0,1,45.05,30.12a9.34,9.34,0,0,1,3.58.63c.55-5-.28-9-2.48-11.42-1.74-2-4.4-3-7.88-3A10.76,10.76,0,0,0,28.73,22a.61.61,0,0,1-1,0,6.94,6.94,0,0,0-1.37-1.9l-.09-.1a10.77,10.77,0,0,0-8.07-3.53c-3.58,0-6.33,1.09-8.07,3.35A13.22,13.22,0,0,0,7.74,28c0,11.15,8.16,25.56,15,25.56A13.8,13.8,0,0,0,26,53.05a9.22,9.22,0,0,1,4.49,0,14,14,0,0,0,3.21.54c1.84,0,4-1.09,6-3.17A11.18,11.18,0,0,1,34.14,40.9Zm-3.76,8.25a.58.58,0,0,1-.73.36,5.08,5.08,0,0,0-2.84,0,13.57,13.57,0,0,1-2.66.45c-2.38,0-4.95-1.81-7.25-5.07a28.83,28.83,0,0,1-4.58-10.7.48.48,0,0,1,.46-.63.49.49,0,0,1,.64.45,28.93,28.93,0,0,0,4.4,10.34c2.11,2.9,4.4,4.62,6.33,4.62a10.22,10.22,0,0,0,2.38-.46,7.62,7.62,0,0,1,3.49,0C30.29,48.51,30.47,48.88,30.38,49.15Z"/><path class="cls-1" d="M50.74,12A2.81,2.81,0,1,0,47.9,9.18,2.84,2.84,0,0,0,50.74,12Z"/><path class="cls-1" d="M8.93,12.53a1.73,1.73,0,0,0-1.74-1.72,1.72,1.72,0,1,0,0,3.44A1.67,1.67,0,0,0,8.93,12.53Z"/><path class="cls-1" d="M45,31.29a9.61,9.61,0,1,0,9.72,9.61A9.67,9.67,0,0,0,45,31.29Zm-6.69,8a.61.61,0,0,1-.37-.73,7.36,7.36,0,0,1,9.44-4.62A.57.57,0,1,1,47,35a6.3,6.3,0,0,0-8,3.9A.58.58,0,0,1,38.27,39.27Zm12.83-.63-7.33,7.25a.7.7,0,0,1-.83,0l-3.21-3.18a.67.67,0,0,1,0-.81.7.7,0,0,1,.83,0l2.84,2.81,6.88-6.8a.69.69,0,0,1,.82,0C51.38,38,51.38,38.36,51.1,38.64Z"/><path class="cls-1" d="M54.13,20.42a1.18,1.18,0,1,1-1.19,1.18A1.18,1.18,0,0,1,54.13,20.42Z"/><path class="cls-1" d="M42.67,5.73a1.18,1.18,0,1,1-1.19,1.18A1.18,1.18,0,0,1,42.67,5.73Z"/><path class="cls-1" d="M37,10.27a1.18,1.18,0,1,1-1.19,1.17A1.18,1.18,0,0,1,37,10.27Z"/><path class="cls-1" d="M12.87,4.56a1.18,1.18,0,1,1-1.19,1.17A1.18,1.18,0,0,1,12.87,4.56Z"/><path class="cls-1" d="M7.19,46.52A1.18,1.18,0,1,1,6,47.7,1.19,1.19,0,0,1,7.19,46.52Z"/><path class="cls-1" d="M11.77,52.14a1.18,1.18,0,1,1-1.19,1.18A1.18,1.18,0,0,1,11.77,52.14Z"/><path class="cls-1" d="M54.13,53.32a1.18,1.18,0,1,1-1.19,1.18A1.18,1.18,0,0,1,54.13,53.32Z"/></g></svg>