<svg id="Слой_1" data-name="Слой 1" xmlns="http://www.w3.org/2000/svg" viewBox="0 0 60 60"><defs><style>.cls-1{fill:#55c1f0;}</style></defs><g id="_199_Gardening_Growing_Plant" data-name="199, Gardening, Growing, Plant"><path class="cls-1" d="M11.23,35.72a1.1,1.1,0,0,0,1.08,1.08,1,1,0,0,0,1-1.08,1.1,1.1,0,0,0-1.08-1.08A1,1,0,0,0,11.23,35.72Z"/><path class="cls-1" d="M36.74,46.64a1.09,1.09,0,1,0,1.09,1.09A1.1,1.1,0,0,0,36.74,46.64Z"/><path class="cls-1" d="M14.9,46.14a1.59,1.59,0,0,0-1.59,1.59,1.59,1.59,0,0,0,3.17,0A1.59,1.59,0,0,0,14.9,46.14Z"/><path class="cls-1" d="M50.75,46.89a.25.25,0,0,1-.08-.16,5.25,5.25,0,0,0-7.76-2.92.5.5,0,0,1-.75-.25,5.2,5.2,0,0,0-8.08-2c-.25.25-.67.08-.84-.25a8,8,0,0,0-2.33-3.17V32.47L47.25,16.13a.53.53,0,1,0-.75-.75L30.24,31.63,14.15,15.54a.64.64,0,0,0-.75,0,.61.61,0,0,0,0,.75L29.74,32.63v5A7.24,7.24,0,0,0,19.4,42a.68.68,0,0,1-.33.34.39.39,0,0,1-.42,0A5.17,5.17,0,0,0,11,45.39a.65.65,0,0,1-.5.42A4.25,4.25,0,0,0,6.56,50a4.13,4.13,0,0,0,4.17,4.17h37A4.14,4.14,0,0,0,51.92,50,4.45,4.45,0,0,0,50.75,46.89ZM14.9,50.31a2.59,2.59,0,1,1,2.58-2.58A2.6,2.6,0,0,1,14.9,50.31Zm8.34.5a1.59,1.59,0,0,1-1.59-1.58,1.59,1.59,0,1,1,3.17,0A1.58,1.58,0,0,1,23.24,50.81Zm3.91-6.25a.75.75,0,1,1,.75-.75A.75.75,0,0,1,27.15,44.56Zm9.59,5.25a2.09,2.09,0,1,1,2.09-2.08A2.07,2.07,0,0,1,36.74,49.81Zm7.09,2.59a.75.75,0,1,1,.75-.75A.75.75,0,0,1,43.83,52.4Z"/><path class="cls-1" d="M23.24,48.73a.5.5,0,1,0,.5.5A.54.54,0,0,0,23.24,48.73Z"/><path class="cls-1" d="M31.57,13.87A2.58,2.58,0,1,0,29,11.29,2.59,2.59,0,0,0,31.57,13.87Z"/><path class="cls-1" d="M45.66,33.64a1.58,1.58,0,0,0-1.58,1.58,1.59,1.59,0,0,0,3.17,0A1.58,1.58,0,0,0,45.66,33.64Z"/><path class="cls-1" d="M50.58,27.38a.75.75,0,1,1-.75.75A.75.75,0,0,1,50.58,27.38Z"/><circle class="cls-1" cx="38.08" cy="33.89" r="0.75"/><path class="cls-1" d="M30.74,19.38a.75.75,0,1,1-.75.75A.75.75,0,0,1,30.74,19.38Z"/><path class="cls-1" d="M23,8.12a.75.75,0,0,1,0,1.5.75.75,0,0,1,0-1.5Z"/><path class="cls-1" d="M23,31.55a.75.75,0,0,1,0,1.5.75.75,0,1,1,0-1.5Z"/><circle class="cls-1" cx="8.89" cy="26.63" r="0.75"/><path class="cls-1" d="M24.49,28.8,22.4,26.72l-4.92-.34a.56.56,0,0,1-.5-.58c0-.34.25-.5.59-.5l3.66.25-1.66-1.67-3.17-.25a.54.54,0,0,1,.08-1.08l1.92.16-1.67-1.66L15.82,21a.56.56,0,0,1-.51-.58c0-.17.17-.33.34-.42l-3-3a1.59,1.59,0,0,1,2.25-2.25l3,3a.54.54,0,0,1,.42-.33.6.6,0,0,1,.58.5l.08.91,1.67,1.67-.17-1.92A.61.61,0,0,1,21,18a.62.62,0,0,1,.59.5l.25,3.17,1.67,1.67-.25-3.67a.61.61,0,0,1,.5-.59.61.61,0,0,1,.58.5l.33,4.92,2.09,2.09a13.21,13.21,0,0,0-3.92-10.84,13.64,13.64,0,0,0-12.76-3.59,13.6,13.6,0,0,0,3.59,12.76A13.12,13.12,0,0,0,24.49,28.8Z"/><path class="cls-1" d="M33.83,26.63l2.08-2.08.33-4.92a.55.55,0,0,1,1.09.08l-.25,3.67,1.66-1.67L39,18.54a.55.55,0,0,1,1.09.09l-.17,1.92,1.67-1.67.08-.92a.52.52,0,0,1,1-.17c.34-.33,2.75-2.75,3-3a1.41,1.41,0,0,1,1.09-.42A1.59,1.59,0,0,1,48.33,16,1.56,1.56,0,0,1,47.92,17l-3,3a.55.55,0,0,1,.34.41.62.62,0,0,1-.5.59l-.92.08L42.16,22.8l2-.17a.62.62,0,0,1,.59.5.61.61,0,0,1-.5.58L41.08,24l-1.67,1.67,3.67-.25a.61.61,0,0,1,.58.5.61.61,0,0,1-.5.59l-4.92.33-2.08,2.08A13.09,13.09,0,0,0,47,25a13.59,13.59,0,0,0,3.58-12.75,13.39,13.39,0,0,0-12.75,3.58A13,13,0,0,0,33.83,26.63Z"/></g></svg>