<svg id="Слой_1" data-name="Слой 1" xmlns="http://www.w3.org/2000/svg" viewBox="0 0 60 60"><defs><style>.cls-1{fill:#abbfd1;}</style></defs><path class="cls-1" d="M45.47,37.38a8.11,8.11,0,1,0,8.2,8.1A8.16,8.16,0,0,0,45.47,37.38ZM39.82,44.1a.52.52,0,0,1-.31-.61,6.22,6.22,0,0,1,8-3.9.52.52,0,0,1,.31.61.53.53,0,0,1-.62.31,5.32,5.32,0,0,0-6.73,3.29A.49.49,0,0,1,39.82,44.1Zm10.83-.53-6.19,6.12a.58.58,0,0,1-.69,0L41.06,47a.58.58,0,0,1,0-.69.6.6,0,0,1,.7,0l2.39,2.37L50,43a.58.58,0,0,1,.69,0C50.88,43,50.88,43.34,50.65,43.57Z"/><path class="cls-1" d="M30.85,26.34a4.44,4.44,0,1,0,0,8.88,4.44,4.44,0,0,0,0-8.88Z"/><path class="cls-1" d="M55.28,26.34l-6.05-1.19a17.39,17.39,0,0,0-1.61-3.45l3.62-5.24c.4-.39.21-1.23,0-1.61L46.8,10.4a1.21,1.21,0,0,0-1.61,0l-5.26,3.42a9.58,9.58,0,0,0-3.64-1.39l-1-6.27a1.46,1.46,0,0,0-1.22-1H27.83a1.53,1.53,0,0,0-1.44,1l-1,6.05a23,23,0,0,0-3.85,1.61L16.3,10.21a1.2,1.2,0,0,0-1.41.19l-4.44,4.45c-.41.38-.62,1.22-.2,1.61l3.62,5.24a18.59,18.59,0,0,0-1.61,3.45L6.2,26.34c-.6.19-1.21.8-1,1.41v6a1.54,1.54,0,0,0,1,1.42l6.06,1a20.86,20.86,0,0,0,1.61,3.64L10.25,45.1a1.54,1.54,0,0,0,.2,1.61l4.44,4.44a1.57,1.57,0,0,0,1.61.2l5.26-3.64a14.39,14.39,0,0,0,3.64,1.42l1,6.24a1.93,1.93,0,0,0,1.44,1h6.24c.42,0,1-.61,1.22-1l1-6.06a9.78,9.78,0,0,1-.78-3.83,10,10,0,0,1,13.71-9.17l0-.09,6.05-1a1.54,1.54,0,0,0,1-1.42V27.56A1.47,1.47,0,0,0,55.28,26.34ZM30.85,41.47A10.8,10.8,0,0,1,19.94,30.78,10.81,10.81,0,1,1,30.85,41.47Z"/></svg>