<svg id="Слой_1" data-name="Слой 1" xmlns="http://www.w3.org/2000/svg" viewBox="0 0 60 60"><defs><style>.cls-1{fill:#e95226;}</style></defs><g id="_182_Antenna_Radar_Satellite" data-name="182, Antenna, Radar, Satellite"><path class="cls-1" d="M11.62,33.34a19.82,19.82,0,0,0,39.63,0Zm24.62,8.18H26.62a.62.62,0,0,1-.57-.57.61.61,0,0,1,.57-.57h9.62a.61.61,0,0,1,.58.57C36.92,41.33,36.63,41.52,36.24,41.52ZM42.59,38H20.28a.61.61,0,0,1-.58-.57.62.62,0,0,1,.58-.57H42.59a.62.62,0,0,1,.58.57A.55.55,0,0,1,42.59,38Z"/><path class="cls-1" d="M8.64,19.94a1.81,1.81,0,1,0,1.83,1.8A1.82,1.82,0,0,0,8.64,19.94Z"/><path class="cls-1" d="M51.34,21.08a2.38,2.38,0,1,0,2.41,2.37A2.5,2.5,0,0,0,51.34,21.08Z"/><path class="cls-1" d="M34.51,17a.58.58,0,0,0,1.16,0,4.24,4.24,0,0,0-8.47,0,.58.58,0,0,0,1.16,0,3,3,0,0,1,3-2.95A3.09,3.09,0,0,1,34.51,17Z"/><path class="cls-1" d="M38.07,17a.62.62,0,0,0,.58.57.61.61,0,0,0,.57-.57,7.79,7.79,0,0,0-15.58,0,.58.58,0,0,0,1.16,0,6.64,6.64,0,0,1,13.27,0Z"/><path class="cls-1" d="M20.66,17.56a.62.62,0,0,0,.58-.57,10.2,10.2,0,0,1,20.39,0,.62.62,0,0,0,.58.57.61.61,0,0,0,.57-.57,11.45,11.45,0,0,0-22.89,0C20.08,17.27,20.28,17.56,20.66,17.56Z"/><path class="cls-1" d="M55.48,38.57a1.24,1.24,0,1,1-1.25,1.24A1.25,1.25,0,0,1,55.48,38.57Z"/><path class="cls-1" d="M51.92,51.6a1.24,1.24,0,1,1-1.25,1.23A1.24,1.24,0,0,1,51.92,51.6Z"/><path class="cls-1" d="M14.6,50.46a1.24,1.24,0,1,1-1.25,1.23A1.24,1.24,0,0,1,14.6,50.46Z"/><path class="cls-1" d="M6.23,37.34A1.24,1.24,0,1,1,5,38.57,1.24,1.24,0,0,1,6.23,37.34Z"/><path class="cls-1" d="M15.85,22.88a1.24,1.24,0,1,1-1.25,1.24A1.25,1.25,0,0,1,15.85,22.88Z"/><path class="cls-1" d="M13.45,7.38A1.24,1.24,0,1,1,12.2,8.62,1.25,1.25,0,0,1,13.45,7.38Z"/><path class="cls-1" d="M50.67,8.62a1.24,1.24,0,1,1-1.25,1.24A1.24,1.24,0,0,1,50.67,8.62Z"/><path class="cls-1" d="M40.09,32.2,32.68,21v6.18a1.25,1.25,0,0,1-2.5,0V21L22.87,32.11l17.22.09Z"/><path class="cls-1" d="M30.86,18.13v9.13a.58.58,0,0,0,1.15,0V18.13a.58.58,0,0,0-1.15,0Z"/></g></svg>