<svg id="Слой_1" data-name="Слой 1" xmlns="http://www.w3.org/2000/svg" viewBox="0 0 60 60"><defs><style>.cls-1{fill:#fff;}</style></defs><g id="_700_Beat_Heart_Pulse_Health_Care" data-name="700, Beat, Heart, Pulse, Health Care"><path class="cls-1" d="M11.24,47.45a3,3,0,1,0,3,3A3,3,0,0,0,11.24,47.45Z"/><path class="cls-1" d="M54.85,6.7A2.43,2.43,0,1,0,57.3,9.13,2.48,2.48,0,0,0,54.85,6.7Z"/><path class="cls-1" d="M6,10.4a.88.88,0,1,1-.88.87A.88.88,0,0,1,6,10.4Z"/><path class="cls-1" d="M22.54,4.27a.88.88,0,1,1-.89.87A.88.88,0,0,1,22.54,4.27Z"/><path class="cls-1" d="M44.63,6.7a.88.88,0,1,1-.88.88A.88.88,0,0,1,44.63,6.7Z"/><path class="cls-1" d="M53.28,43.85a.88.88,0,1,1-.89.88A.87.87,0,0,1,53.28,43.85Z"/><path class="cls-1" d="M42.18,54.74a.88.88,0,1,1-.89.88A.87.87,0,0,1,42.18,54.74Z"/><path class="cls-1" d="M22,53.58a.88.88,0,1,1,0,1.75.88.88,0,1,1,0-1.75Z"/><path class="cls-1" d="M6.62,38.31a.88.88,0,1,1-.88.87A.88.88,0,0,1,6.62,38.31Z"/><path class="cls-1" d="M20.28,30.24l1.37-5.06a1.87,1.87,0,0,1,3.64.19l1.08,6.52A1.79,1.79,0,0,1,29,32l.59-1.46a2,2,0,0,1,1.57-1.17,1.88,1.88,0,0,1,1.77.88l1.47,2.43h1.77a4.26,4.26,0,0,1,3.93-2.43,4.28,4.28,0,1,1,0,8.55,4.48,4.48,0,0,1-3.93-2.43H33.34a1.86,1.86,0,0,1-1.57-.87v-.1l-.59,1.46a1.88,1.88,0,0,1-2.56,1l-.68,3.4a1.86,1.86,0,0,1-3.64-.09l-1.18-6.62-.49,1.66a1.87,1.87,0,0,1-1.57,1.36v0a1.87,1.87,0,0,1-1.77-1.07l-.19-.39a2.86,2.86,0,0,1-.89.2H16.15c3.83,4.47,9.63,8.84,15.52,14.58,10-10.11,20-15.85,20-25.67a9.81,9.81,0,0,0-9.83-9.73c-4.51,0-7.07,1.95-9.92,7.39a.58.58,0,0,1-.59.3.57.57,0,0,1-.58-.3c-2.66-5.44-5.21-7.39-9.73-7.39a9.81,9.81,0,0,0-9.82,9.73,15.43,15.43,0,0,0,2.06,7.49h3.44L17.23,31A1.83,1.83,0,0,1,20.28,30.24Z"/><path class="cls-1" d="M41.88,12.63A11.58,11.58,0,0,0,32,17.49a.65.65,0,0,1-1,0,11.57,11.57,0,0,0-9.92-4.86A12.64,12.64,0,0,0,8.39,25.18a16.21,16.21,0,0,0,1.77,7.49h1.77a15.78,15.78,0,0,1-2-7.49A10.93,10.93,0,0,1,21,14.29c5.31,0,8.06,2.62,10.41,7,2.36-4.38,5.11-7,10.42-7A11,11,0,0,1,52.88,25.18c0,10.6-10.6,16.63-21,26.94a.76.76,0,0,1-.89,0c-6.28-6.23-12.57-10.9-16.6-15.85h-2c4.12,5.54,10.9,10.4,17.48,16.92l1.57,1.55L33,53.19c10.42-10.31,21.51-16.54,21.51-28A12.64,12.64,0,0,0,41.88,12.63Z"/><path class="cls-1" d="M18.61,34.61,19,33.25,20.18,36a.79.79,0,0,0,.59.39.62.62,0,0,0,.59-.48l1.86-7.39,2.07,12.25a.6.6,0,0,0,1.17,0l1.28-6,1,1.65a.58.58,0,0,0,1.08-.09l1.48-3.89,1.37,2.23a.54.54,0,0,0,.49.29h3.73a3.15,3.15,0,0,0,3.05,2.43,3,3,0,1,0,0-6,3.17,3.17,0,0,0-3.05,2.44H33.44l-1.77-3a.58.58,0,0,0-1.08.1l-1.47,3.89-1.08-2a.72.72,0,0,0-.59-.29A.47.47,0,0,0,27,33l-1,4.57-2.06-12a.54.54,0,0,0-.59-.49.55.55,0,0,0-.59.49l-2.06,8.26-1.08-2.62a.66.66,0,0,0-.59-.39.65.65,0,0,0-.59.39l-.79,2.53H3.48a.58.58,0,1,0,0,1.16H18C18.31,35,18.61,34.9,18.61,34.61Zm21.51-2A1.85,1.85,0,0,1,42,34.42a1.79,1.79,0,0,1-1.86,1.85A1.88,1.88,0,0,1,38.35,35h1.77a.63.63,0,0,0,.59-.58.64.64,0,0,0-.59-.59H38.35A1.82,1.82,0,0,1,40.12,32.57Z"/></g></svg>