<svg id="Слой_1" data-name="Слой 1" xmlns="http://www.w3.org/2000/svg" viewBox="0 0 60 60"><defs><style>.cls-1{fill:#4f4495;}</style></defs><g id="_151_Meteor_Meteorite_Space" data-name="151, Meteor, Meteorite, Space"><path class="cls-1" d="M45.56,45.72a2.39,2.39,0,1,0,2.38,2.38A2.36,2.36,0,0,0,45.56,45.72Z"/><path class="cls-1" d="M9.22,18.26a3,3,0,1,0-3-3A3,3,0,0,0,9.22,18.26Z"/><path class="cls-1" d="M28.87,44.48l-3.82-2.57a3.54,3.54,0,0,1-1.33-1.53L21,34.85a3,3,0,0,0-1.33-1.33l-4.1-1.72a2.64,2.64,0,0,0-2.1,0l-6.2,2.48a2.93,2.93,0,0,0-1.71,2.1c-.39,2.38-.29,7.24-.58,9.15a28.42,28.42,0,0,0,2.58,5c.09.2,0,.1,3.05,3.63a2.84,2.84,0,0,0,4.2,0l1-1.05a3.91,3.91,0,0,1,5.43-.48,2.85,2.85,0,0,0,3.44,0L29.15,49a2.57,2.57,0,0,0,1-2.29A2.77,2.77,0,0,0,28.87,44.48Zm-16.78,3a.79.79,0,0,1-.39.19.73.73,0,0,1-.47-.19L10,45.91l-.1-.09a5.26,5.26,0,0,1-.67-1.24c-.57-1-.57-1.24-.47-1.43.09-.77.09-2.86.28-3.91a2,2,0,0,1,1.24-1.53A.61.61,0,0,1,11,38a.6.6,0,0,1-.29.76.71.71,0,0,0-.48.57c-.19,1-.09,2.86-.28,3.82a13.07,13.07,0,0,0,1,2c0,.09,0,0,1.24,1.52A.81.81,0,0,1,12.09,47.44Zm4.19,3a1.21,1.21,0,1,1-.57-1.62A1.26,1.26,0,0,1,16.28,50.39Zm3.91-5.15a.55.55,0,0,1-.38.1.78.78,0,0,1-.48-.19.6.6,0,0,1,.1-.86.85.85,0,0,0-.1-1.33l-1.62-1.05a1.76,1.76,0,0,1-.67-.77L15.9,38.86a.53.53,0,0,1,.29-.77.53.53,0,0,1,.76.29l1.14,2.29.29.28L20,42a1.85,1.85,0,0,1,.86,1.53A1.76,1.76,0,0,1,20.19,45.24Z"/><path class="cls-1" d="M21.05,23.31a.69.69,0,0,0,.38.19.47.47,0,0,0,.38-.19L37.16,8a.69.69,0,0,0,0-.86.7.7,0,0,0-.85,0L21.05,22.45A.72.72,0,0,0,21.05,23.31Z"/><path class="cls-1" d="M31.35,22.45a.66.66,0,0,0,.38.19.47.47,0,0,0,.38-.19L48.32,6.24a.72.72,0,0,0,0-.86.72.72,0,0,0-.86,0L31.25,21.6A.61.61,0,0,0,31.35,22.45Z"/><path class="cls-1" d="M28.68,35.33l18-18a.7.7,0,0,0,0-.85.69.69,0,0,0-.86,0l-17.92,18a.69.69,0,0,0,0,.86A.58.58,0,0,0,28.68,35.33Z"/><path class="cls-1" d="M36.59,36a.74.74,0,0,0,.38.2.52.52,0,0,0,.39-.2L56.14,17.3a.7.7,0,0,0,0-.85.69.69,0,0,0-.86,0L36.59,35.14A.7.7,0,0,0,36.59,36Z"/><path class="cls-1" d="M55.28,25.89,36.5,44.67a.61.61,0,0,0,.86.86L56.14,26.74a.7.7,0,0,0,0-.85A.53.53,0,0,0,55.28,25.89Z"/><path class="cls-1" d="M49.75,12.82a1.24,1.24,0,1,1-1.24,1.24A1.24,1.24,0,0,1,49.75,12.82Z"/><path class="cls-1" d="M52.14,37.9a1.24,1.24,0,0,1,0,2.48,1.24,1.24,0,0,1,0-2.48Z"/><path class="cls-1" d="M39,52.2a1.24,1.24,0,1,1,0,2.48,1.24,1.24,0,1,1,0-2.48Z"/><path class="cls-1" d="M8,24.74A1.24,1.24,0,1,1,6.75,26,1.24,1.24,0,0,1,8,24.74Z"/><path class="cls-1" d="M19.9,10.44a1.24,1.24,0,1,1,0,2.48,1.24,1.24,0,1,1,0-2.48Z"/><circle class="cls-1" cx="28.3" cy="24.84" r="1.24"/></g></svg>