<svg id="Слой_1" data-name="Слой 1" xmlns="http://www.w3.org/2000/svg" viewBox="0 0 60 60"><defs><style>.cls-1{fill:#fff;}</style></defs><g id="_191_Astronomy_Space_Telescope" data-name="191, Astronomy, Space, Telescope"><path class="cls-1" d="M42,34.61,34.29,32l3.14-8.57L45.09,26C44.17,28.5,42.88,32.15,42,34.61Z"/><path class="cls-1" d="M35.68,24.85l-23.91-8.4,1-2.92,23.91,8.3C35.58,24.94,35.68,24.75,35.68,24.85Z"/><path class="cls-1" d="M26.91,11.16a2.29,2.29,0,1,1,2.3-2.28A2.33,2.33,0,0,1,26.91,11.16Z"/><path class="cls-1" d="M15.37,40.82a1.2,1.2,0,1,1-1.2-1.19A1.22,1.22,0,0,1,15.37,40.82Z"/><path class="cls-1" d="M48.23,15.72A1.74,1.74,0,0,1,46.48,14a1.68,1.68,0,0,1,1.75-1.74,1.74,1.74,0,1,1,0,3.47Z"/><path class="cls-1" d="M3.92,25.58,9.74,9.33a1.61,1.61,0,0,1,2-1,1.59,1.59,0,0,1,1,2L12,12.44a.33.33,0,0,0-.09.27L7.7,24.3a.33.33,0,0,0-.09.27l-.74,2a1.61,1.61,0,0,1-2,1A1.57,1.57,0,0,1,3.92,25.58Z"/><path class="cls-1" d="M11.31,17.55l23.9,8.39c0,.09-.55,1.64-2.4,6.66L8.91,24.3Z"/><path class="cls-1" d="M29.12,32.6,33,34a.64.64,0,0,0,.74-.36l.18-.55,3.14,1.09a4,4,0,0,1-4,3.38A4.1,4.1,0,0,1,29.12,32.6Z"/><path class="cls-1" d="M8.35,51H19.89a.55.55,0,1,1,0,1.09H8.35a.55.55,0,1,1,0-1.09Z"/><path class="cls-1" d="M41.31,6a1.19,1.19,0,1,0,1.2,1.18A1.19,1.19,0,0,0,41.31,6Z"/><path class="cls-1" d="M17,4.77A1.19,1.19,0,1,0,18.23,6,1.19,1.19,0,0,0,17,4.77Z"/><path class="cls-1" d="M7.8,34.43A1.19,1.19,0,1,0,9,35.61,1.19,1.19,0,0,0,7.8,34.43Z"/><path class="cls-1" d="M22.84,40.18A1.19,1.19,0,1,0,24,41.36,1.19,1.19,0,0,0,22.84,40.18Z"/><path class="cls-1" d="M48.23,42.46a1.19,1.19,0,1,0,1.2,1.18A1.19,1.19,0,0,0,48.23,42.46Z"/><path class="cls-1" d="M5.49,50.4a1.19,1.19,0,1,0,1.2,1.18A1.19,1.19,0,0,0,5.49,50.4Z"/><polygon class="cls-1" points="32.54 40.27 32.54 53.87 25.15 53.87 32.54 40.27"/><polygon class="cls-1" points="33.65 53.87 33.65 40.27 41.03 53.87 33.65 53.87"/><path class="cls-1" d="M50.72,34,50,36.16l-6.55-2.28,2.31-6.48,6.55,2.37-.92,2.56A1,1,0,0,0,50.72,34Z"/><path class="cls-1" d="M51.18,33.15a.65.65,0,0,1,.74-.37l3,1L56.35,30a.64.64,0,0,1,.74-.37.62.62,0,0,1,.37.73L55.8,34.7a.63.63,0,0,1-.74.37l-3.51-1.19A.48.48,0,0,1,51.18,33.15Z"/><path class="cls-1" d="M18.78,54.5H52.66a.55.55,0,0,1,0,1.1H18.78a.6.6,0,0,1-.55-.55A.49.49,0,0,1,18.78,54.5Z"/></g></svg>