<svg id="Слой_1" data-name="Слой 1" xmlns="http://www.w3.org/2000/svg" viewBox="0 0 60 60"><defs><style>.cls-1{fill:#e95327;}.cls-2{font-size:36.57px;fill:#fff;font-family:BlockPaper, Block Paper;}</style></defs><g id="_885_Arrow_Forward_Repeat_Right" data-name="885, Arrow, Forward, Repeat, Right"><path class="cls-1" d="M27.24,8.18h27v6h-27a16.83,16.83,0,1,0,16.6,13.73h6.09A22.8,22.8,0,1,1,27.24,8.18Z"/><path class="cls-1" d="M53,43.06a3.43,3.43,0,1,1-3.43,3.43A3.45,3.45,0,0,1,53,43.06Z"/><path class="cls-1" d="M7.63,11.48a2.1,2.1,0,0,1-2.1-2.1,2,2,0,0,1,2.1-2.11A2,2,0,0,1,9.74,9.38,2,2,0,0,1,7.63,11.48Z"/><path class="cls-1" d="M9.1,54.81A2.11,2.11,0,0,1,7,52.71,2,2,0,0,1,9.1,50.6a2.11,2.11,0,0,1,0,4.21Z"/><path class="cls-1" d="M16.45,52A1.44,1.44,0,1,1,15,53.4,1.44,1.44,0,0,1,16.45,52Z"/><path class="cls-1" d="M46.61,51.68a1.44,1.44,0,1,1-1.44,1.44A1.43,1.43,0,0,1,46.61,51.68Z"/><path class="cls-1" d="M17.37,3.84a1.44,1.44,0,1,1-1.44,1.44A1.44,1.44,0,0,1,17.37,3.84Z"/><path class="cls-1" d="M49,2.69A1.44,1.44,0,1,1,47.6,4.13,1.44,1.44,0,0,1,49,2.69Z"/></g><text class="cls-2" transform="translate(19.68 43.7)">8</text></svg>