<svg id="Слой_1" data-name="Слой 1" xmlns="http://www.w3.org/2000/svg" viewBox="0 0 60 60"><defs><style>.cls-1{fill:#e95327;}.cls-2{font-size:36.57px;fill:#fff;font-family:BlockPaper, Block Paper;}</style></defs><g id="_885_Arrow_Forward_Repeat_Right" data-name="885, Arrow, Forward, Repeat, Right"><path class="cls-1" d="M26.71,9h27v6h-27A16.83,16.83,0,1,0,43.31,28.7H49.4A22.8,22.8,0,1,1,26.71,9Z"/><path class="cls-1" d="M52.49,43.88a3.44,3.44,0,1,1-3.43,3.44A3.44,3.44,0,0,1,52.49,43.88Z"/><path class="cls-1" d="M7.1,12.31A2.11,2.11,0,0,1,5,10.2,2,2,0,0,1,7.1,8.1a2,2,0,0,1,2.1,2.1A2,2,0,0,1,7.1,12.31Z"/><path class="cls-1" d="M8.56,55.63a2.1,2.1,0,0,1-2.1-2.1,2,2,0,0,1,2.1-2.1,2.1,2.1,0,1,1,0,4.2Z"/><path class="cls-1" d="M15.92,52.79a1.44,1.44,0,1,1-1.44,1.44A1.44,1.44,0,0,1,15.92,52.79Z"/><path class="cls-1" d="M46.08,52.5a1.44,1.44,0,1,1-1.44,1.44A1.45,1.45,0,0,1,46.08,52.5Z"/><path class="cls-1" d="M16.84,4.67A1.44,1.44,0,1,1,15.4,6.11,1.44,1.44,0,0,1,16.84,4.67Z"/><path class="cls-1" d="M48.5,3.52A1.44,1.44,0,1,1,47.06,5,1.43,1.43,0,0,1,48.5,3.52Z"/></g><text class="cls-2" transform="translate(19.65 44.53)">9</text></svg>