<svg id="Слой_1" data-name="Слой 1" xmlns="http://www.w3.org/2000/svg" viewBox="0 0 60 60"><defs><style>.cls-1{fill:#e95327;}.cls-2{fill:#fff;}</style></defs><g id="_885_Arrow_Forward_Repeat_Right" data-name="885, Arrow, Forward, Repeat, Right"><path class="cls-1" d="M27.42,8.82h27v6h-27A16.83,16.83,0,1,0,44,28.53h6.09A22.8,22.8,0,1,1,27.42,8.82Z"/><path class="cls-1" d="M53.21,43.71a3.43,3.43,0,1,1-3.43,3.43A3.45,3.45,0,0,1,53.21,43.71Z"/><path class="cls-1" d="M7.81,12.13A2.11,2.11,0,0,1,5.71,10a2,2,0,0,1,2.1-2.11A2,2,0,0,1,9.92,10,2,2,0,0,1,7.81,12.13Z"/><path class="cls-1" d="M9.28,55.46a2.1,2.1,0,0,1-2.1-2.1,2,2,0,0,1,2.1-2.11,2.11,2.11,0,0,1,0,4.21Z"/><path class="cls-1" d="M16.63,52.61a1.44,1.44,0,1,1-1.43,1.44A1.44,1.44,0,0,1,16.63,52.61Z"/><path class="cls-1" d="M46.79,52.33a1.44,1.44,0,1,1-1.43,1.44A1.43,1.43,0,0,1,46.79,52.33Z"/><path class="cls-1" d="M17.56,4.49a1.44,1.44,0,1,1-1.44,1.44A1.45,1.45,0,0,1,17.56,4.49Z"/><path class="cls-1" d="M49.22,3.34a1.44,1.44,0,1,1-1.44,1.44A1.45,1.45,0,0,1,49.22,3.34Z"/></g><path class="cls-2" d="M26.05,44.84l.14-21.29-2.93,1.79L27,17.82l5.9.28L31.59,42.48Z"/></svg>