<svg id="Слой_1" data-name="Слой 1" xmlns="http://www.w3.org/2000/svg" viewBox="0 0 60 60"><defs><style>.cls-1{fill:#e95327;}.cls-2{font-size:30.5px;fill:#fff;font-family:BlockPaper, Block Paper;}</style></defs><g id="_885_Arrow_Forward_Repeat_Right" data-name="885, Arrow, Forward, Repeat, Right"><path class="cls-1" d="M27.39,9h27v6h-27A16.83,16.83,0,1,0,44,28.7h6.08A22.8,22.8,0,1,1,27.39,9Z"/><path class="cls-1" d="M53.18,43.88a3.44,3.44,0,1,1-3.43,3.44A3.45,3.45,0,0,1,53.18,43.88Z"/><path class="cls-1" d="M7.78,12.31a2.11,2.11,0,0,1-2.1-2.11,2,2,0,0,1,2.1-2.1,2,2,0,0,1,2.11,2.1A2,2,0,0,1,7.78,12.31Z"/><path class="cls-1" d="M9.25,55.63a2.09,2.09,0,0,1-2.1-2.1,2,2,0,0,1,2.1-2.1,2.1,2.1,0,0,1,0,4.2Z"/><path class="cls-1" d="M16.6,52.79a1.44,1.44,0,1,1-1.43,1.44A1.43,1.43,0,0,1,16.6,52.79Z"/><path class="cls-1" d="M46.76,52.5a1.44,1.44,0,1,1-1.43,1.44A1.44,1.44,0,0,1,46.76,52.5Z"/><path class="cls-1" d="M17.53,4.67a1.44,1.44,0,1,1-1.44,1.44A1.43,1.43,0,0,1,17.53,4.67Z"/><path class="cls-1" d="M49.19,3.52A1.44,1.44,0,1,1,47.75,5,1.44,1.44,0,0,1,49.19,3.52Z"/></g><text class="cls-2" transform="translate(16.99 41.57)">12</text></svg>