<svg id="Слой_1" data-name="Слой 1" xmlns="http://www.w3.org/2000/svg" viewBox="0 0 60 60"><defs><style>.cls-1{fill:#e95327;}.cls-2{fill:#fff;}</style></defs><g id="_885_Arrow_Forward_Repeat_Right" data-name="885, Arrow, Forward, Repeat, Right"><path class="cls-1" d="M27.42,8.18h27v6h-27A16.83,16.83,0,1,0,44,27.88h6.09a22.8,22.8,0,1,1-22.7-19.7Z"/><path class="cls-1" d="M53.21,43.06a3.43,3.43,0,1,1-3.43,3.43A3.45,3.45,0,0,1,53.21,43.06Z"/><path class="cls-1" d="M7.81,11.48a2.1,2.1,0,0,1-2.1-2.1,2,2,0,0,1,2.1-2.11A2,2,0,0,1,9.92,9.38,2,2,0,0,1,7.81,11.48Z"/><path class="cls-1" d="M9.28,54.81a2.1,2.1,0,0,1-2.1-2.1,2,2,0,0,1,2.1-2.11,2.11,2.11,0,0,1,0,4.21Z"/><path class="cls-1" d="M16.63,52A1.44,1.44,0,1,1,15.2,53.4,1.44,1.44,0,0,1,16.63,52Z"/><path class="cls-1" d="M46.79,51.68a1.44,1.44,0,1,1-1.43,1.44A1.43,1.43,0,0,1,46.79,51.68Z"/><path class="cls-1" d="M17.56,3.84a1.44,1.44,0,1,1-1.44,1.44A1.45,1.45,0,0,1,17.56,3.84Z"/><path class="cls-1" d="M49.22,2.69a1.44,1.44,0,1,1-1.44,1.44A1.45,1.45,0,0,1,49.22,2.69Z"/></g><path class="cls-2" d="M25,43.86,27.24,31.6l4.82-2,1.48-8.8L22.16,21.86,26,17.11l13.68-.36L37.77,29.36,34,31.08l-4.55.59,2.73,0L30,42Z"/></svg>