<svg id="Слой_1" data-name="Слой 1" xmlns="http://www.w3.org/2000/svg" viewBox="0 0 60 60"><defs><style>.cls-1{fill:#e95327;}.cls-2{font-size:36.57px;fill:#fff;font-family:BlockPaper, Block Paper;}</style></defs><g id="_885_Arrow_Forward_Repeat_Right" data-name="885, Arrow, Forward, Repeat, Right"><path class="cls-1" d="M27.51,8.82h27v6h-27a16.83,16.83,0,1,0,16.6,13.73H50.2A22.79,22.79,0,1,1,27.51,8.82Z"/><path class="cls-1" d="M53.3,43.71a3.43,3.43,0,1,1-3.44,3.43A3.45,3.45,0,0,1,53.3,43.71Z"/><path class="cls-1" d="M7.9,12.13A2.1,2.1,0,0,1,5.8,10,2,2,0,0,1,7.9,7.92,2,2,0,0,1,10,10,2,2,0,0,1,7.9,12.13Z"/><path class="cls-1" d="M9.37,55.46a2.11,2.11,0,0,1-2.11-2.1,2,2,0,0,1,2.11-2.11,2.11,2.11,0,0,1,0,4.21Z"/><path class="cls-1" d="M16.72,52.61a1.44,1.44,0,1,1-1.44,1.44A1.45,1.45,0,0,1,16.72,52.61Z"/><path class="cls-1" d="M46.88,52.33a1.44,1.44,0,1,1-1.44,1.44A1.44,1.44,0,0,1,46.88,52.33Z"/><path class="cls-1" d="M17.64,4.49A1.44,1.44,0,1,1,16.2,5.93,1.44,1.44,0,0,1,17.64,4.49Z"/><path class="cls-1" d="M49.3,3.34a1.44,1.44,0,1,1-1.44,1.44A1.44,1.44,0,0,1,49.3,3.34Z"/></g><text class="cls-2" transform="translate(21.55 44.35)">5</text></svg>