<svg id="Слой_1" data-name="Слой 1" xmlns="http://www.w3.org/2000/svg" viewBox="0 0 60 60"><defs><style>.cls-1{fill:#4f4495;}.cls-2{font-size:27.23px;fill:#fff;font-family:BlockPaper, Block Paper;}</style></defs><g id="_885_Arrow_Forward_Repeat_Right" data-name="885, Arrow, Forward, Repeat, Right"><path class="cls-1" d="M23.71,15.11h23.4v5.18H23.71A14.58,14.58,0,1,0,38.09,32.18h5.28A19.75,19.75,0,1,1,23.71,15.11Z"/><path class="cls-1" d="M52.48,42.63a3,3,0,1,1-3,3A3,3,0,0,1,52.48,42.63Z"/><polygon class="cls-1" points="48.35 25.18 48.35 10.89 57.27 17.99 48.35 25.18"/><path class="cls-1" d="M11.72,11.47A1.83,1.83,0,0,1,9.9,9.65a1.76,1.76,0,0,1,1.82-1.82,1.76,1.76,0,0,1,1.83,1.82A1.77,1.77,0,0,1,11.72,11.47Z"/><path class="cls-1" d="M53.72,31.22a1.25,1.25,0,1,1,0,2.49,1.25,1.25,0,0,1,0-2.49Z"/><path class="cls-1" d="M40.49,52.8A1.25,1.25,0,1,1,39.24,54,1.24,1.24,0,0,1,40.49,52.8Z"/><path class="cls-1" d="M20.16,4.85A1.25,1.25,0,1,1,18.92,6.1,1.25,1.25,0,0,1,20.16,4.85Z"/><path class="cls-1" d="M42.89,8.4a1.25,1.25,0,1,1-1.25,1.25A1.25,1.25,0,0,1,42.89,8.4Z"/></g><text class="cls-2" transform="translate(18.64 44.62)">3</text></svg>