<svg id="Слой_1" data-name="Слой 1" xmlns="http://www.w3.org/2000/svg" viewBox="0 0 60 60"><defs><style>.cls-1{fill:#e95327;}.cls-2{font-size:30.5px;fill:#fff;font-family:BlockPaper, Block Paper;}</style></defs><g id="_885_Arrow_Forward_Repeat_Right" data-name="885, Arrow, Forward, Repeat, Right"><path class="cls-1" d="M25,9H52v6H25A16.83,16.83,0,1,0,41.6,28.7h6.09A22.8,22.8,0,1,1,25,9Z"/><path class="cls-1" d="M50.78,43.88a3.44,3.44,0,1,1-3.43,3.44A3.44,3.44,0,0,1,50.78,43.88Z"/><path class="cls-1" d="M5.39,12.31A2.11,2.11,0,0,1,3.28,10.2,2,2,0,0,1,5.39,8.1a2,2,0,0,1,2.1,2.1A2,2,0,0,1,5.39,12.31Z"/><path class="cls-1" d="M6.85,55.63a2.1,2.1,0,0,1-2.1-2.1,2,2,0,0,1,2.1-2.1,2.1,2.1,0,1,1,0,4.2Z"/><path class="cls-1" d="M14.21,52.79a1.44,1.44,0,1,1-1.44,1.44A1.44,1.44,0,0,1,14.21,52.79Z"/><path class="cls-1" d="M44.37,52.5a1.44,1.44,0,1,1-1.44,1.44A1.45,1.45,0,0,1,44.37,52.5Z"/><path class="cls-1" d="M15.13,4.67a1.44,1.44,0,1,1-1.44,1.44A1.44,1.44,0,0,1,15.13,4.67Z"/><path class="cls-1" d="M46.79,3.52A1.44,1.44,0,1,1,45.35,5,1.43,1.43,0,0,1,46.79,3.52Z"/></g><text class="cls-2" transform="translate(13.59 42.57)">10</text></svg>