<svg id="Слой_1" data-name="Слой 1" xmlns="http://www.w3.org/2000/svg" viewBox="0 0 60 60"><defs><style>.cls-1{fill:#e95327;}.cls-2{fill:#fff;}</style></defs><g id="_885_Arrow_Forward_Repeat_Right" data-name="885, Arrow, Forward, Repeat, Right"><path class="cls-1" d="M28,9H55v6H28A16.83,16.83,0,1,0,44.6,28.7h6.09A22.8,22.8,0,1,1,28,9Z"/><path class="cls-1" d="M53.78,43.88a3.44,3.44,0,1,1-3.43,3.44A3.45,3.45,0,0,1,53.78,43.88Z"/><path class="cls-1" d="M8.39,12.31A2.11,2.11,0,0,1,6.28,10.2,2,2,0,0,1,8.39,8.1a2,2,0,0,1,2.1,2.1A2,2,0,0,1,8.39,12.31Z"/><path class="cls-1" d="M9.85,55.63a2.09,2.09,0,0,1-2.1-2.1,2,2,0,0,1,2.1-2.1,2.1,2.1,0,0,1,0,4.2Z"/><path class="cls-1" d="M17.21,52.79a1.44,1.44,0,1,1-1.44,1.44A1.43,1.43,0,0,1,17.21,52.79Z"/><path class="cls-1" d="M47.37,52.5a1.44,1.44,0,1,1-1.44,1.44A1.44,1.44,0,0,1,47.37,52.5Z"/><path class="cls-1" d="M18.13,4.67a1.44,1.44,0,1,1-1.44,1.44A1.44,1.44,0,0,1,18.13,4.67Z"/><path class="cls-1" d="M49.79,3.52A1.44,1.44,0,1,1,48.35,5,1.44,1.44,0,0,1,49.79,3.52Z"/></g><path class="cls-2" d="M22.42,41.81l.12-17.75-2.45,1.49,3.13-6.27,4.91.24L27,39.84Z"/><path class="cls-2" d="M31.65,41.81l.12-17.75-2.44,1.49,3.12-6.27,4.92.24-1.1,20.32Z"/></svg>