<svg id="Слой_1" data-name="Слой 1" xmlns="http://www.w3.org/2000/svg" viewBox="0 0 60 60"><defs><style>.cls-1{fill:#e95226;}</style></defs><g id="_237-Atom_Molecule_Science" data-name="237-Atom, Molecule, Science"><path class="cls-1" d="M8.23,9.09a1.27,1.27,0,1,1,0,2.53,1.27,1.27,0,1,1,0-2.53Z"/><path class="cls-1" d="M30.37,11.52a1.27,1.27,0,1,1-1.28,1.27A1.27,1.27,0,0,1,30.37,11.52Z"/><path class="cls-1" d="M40.21,6.65a1.27,1.27,0,1,1-1.28,1.27A1.27,1.27,0,0,1,40.21,6.65Z"/><path class="cls-1" d="M55,23.7a1.27,1.27,0,1,1,0,2.53,1.27,1.27,0,1,1,0-2.53Z"/><path class="cls-1" d="M47.59,49.23a1.27,1.27,0,1,1-1.28,1.26A1.27,1.27,0,0,1,47.59,49.23Z"/><path class="cls-1" d="M29.09,48.06a1.27,1.27,0,1,1-1.28,1.26A1.27,1.27,0,0,1,29.09,48.06Z"/><path class="cls-1" d="M9.41,31a1.27,1.27,0,1,1,0,2.53,1.27,1.27,0,1,1,0-2.53Z"/><path class="cls-1" d="M47.69,17.08a4.1,4.1,0,0,0,3-7,4.32,4.32,0,0,0-5.91,0,4.13,4.13,0,0,0-.39,5.36L31.16,28.47a5.83,5.83,0,0,0-3.74-1.26,5.71,5.71,0,0,0-3.74,1.36l-7-5.36A4,4,0,0,0,16.2,18a4.16,4.16,0,1,0-2.95,7,4.24,4.24,0,0,0,2.56-.88l7,5.36a6.23,6.23,0,0,0-1.27,3.6,5.8,5.8,0,0,0,1.27,3.61l-5.21,3.6A3.89,3.89,0,0,0,15,39.39a4.09,4.09,0,1,0,0,8.18A4.17,4.17,0,0,0,18,46.4a4.12,4.12,0,0,0,.5-5.26l5.21-3.7a6,6,0,0,0,3.84,1.36,6.43,6.43,0,0,0,3.74-1.27L34.8,41a4.12,4.12,0,0,0,.39,5.36,4.16,4.16,0,1,0,3-7,4.33,4.33,0,0,0-2.46.78l-3.54-3.51A5.63,5.63,0,0,0,33.42,33a6.26,6.26,0,0,0-1.28-3.71l13.19-13A3,3,0,0,0,47.69,17.08Z"/><path class="cls-1" d="M50.05,31.59a3,3,0,1,0,3.05,3A3.06,3.06,0,0,0,50.05,31.59Z"/><path class="cls-1" d="M11.28,51.08a2.44,2.44,0,1,0,2.46,2.43A2.43,2.43,0,0,0,11.28,51.08Z"/><path class="cls-1" d="M21.12,13.37a3.7,3.7,0,1,0-3.74-3.7A3.71,3.71,0,0,0,21.12,13.37Z"/></g></svg>