<svg id="Слой_1" data-name="Слой 1" xmlns="http://www.w3.org/2000/svg" viewBox="0 0 60 60"><defs><style>.cls-1{fill:#e0700e;}</style></defs><g id="_200_Planet_Saturn_Space" data-name="200, Planet, Saturn, Space"><path class="cls-1" d="M7.23,44.92a1.67,1.67,0,1,0,0,3.33,1.62,1.62,0,0,0,1.69-1.67A1.68,1.68,0,0,0,7.23,44.92Z"/><path class="cls-1" d="M11.67,15.83a2.72,2.72,0,1,0-2.75-2.72A2.75,2.75,0,0,0,11.67,15.83Z"/><path class="cls-1" d="M52.29,44.39a2.2,2.2,0,1,0,2.23,2.2A2.25,2.25,0,0,0,52.29,44.39Z"/><path class="cls-1" d="M47.23,9.77a1.15,1.15,0,1,1,0,2.29,1.15,1.15,0,1,1,0-2.29Z"/><path class="cls-1" d="M21.72,10.39a1.14,1.14,0,1,1-1.16,1.14A1.14,1.14,0,0,1,21.72,10.39Z"/><path class="cls-1" d="M8.39,21.81A1.14,1.14,0,1,1,7.23,23,1.15,1.15,0,0,1,8.39,21.81Z"/><path class="cls-1" d="M20.56,51.51a1.14,1.14,0,1,1-1.15,1.14A1.15,1.15,0,0,1,20.56,51.51Z"/><path class="cls-1" d="M43.94,51.51a1.14,1.14,0,1,1-1.16,1.14A1.14,1.14,0,0,1,43.94,51.51Z"/><path class="cls-1" d="M53.89,37.18a1.15,1.15,0,1,1,0,2.29,1.15,1.15,0,1,1,0-2.29Z"/></g><path class="cls-1" d="M52,42.23,47.84,17H14.44l-4.2,25.24H27.13v2.62H23.32v3H38.75v-3H34.94V42.23ZM34.94,28.49h6.32l.48,5.31H35.12Zm.41,12.06-.2-5.93h6.66l.54,5.93Zm14.83,0h-7l-.57-5.93h6.66Zm-1-6.75H42.53L42,28.49h6.32Zm-.93-6H41.94L41.48,23h6ZM46.71,18l.67,4.35h-6L41,18ZM28.18,18H33.9L34,22.3h-6ZM28,23h6l.13,4.79H27.89Zm-.16,5.53h6.32l.14,5.31H27.71ZM15.36,18h5.73l-.43,4.35h-6Zm-.78,5h6l-.47,4.79H13.84Zm4.27,17.59h-7l.92-5.93h6.66Zm-6-6.75.82-5.31H20l-.52,5.31Zm13.78,6.75h-7l.55-5.93h6.66Zm.24-6.75H20.31l.49-5.31h6.31Zm.22-6H20.86L21.31,23h6Zm.2-5.45h-6l.4-4.35h5.72Zm.18,18.25.17-5.93h6.66l.17,5.93ZM34.58,18h5.73l.39,4.35h-6Zm.34,9.8L34.75,23h6l.43,4.79Z"/><path class="cls-1" d="M19.41,5.9a1.67,1.67,0,1,0,0,3.34A1.63,1.63,0,0,0,21.1,7.57,1.68,1.68,0,0,0,19.41,5.9Z"/><path class="cls-1" d="M26.89,11.18a1.14,1.14,0,1,1-1.16,1.14A1.14,1.14,0,0,1,26.89,11.18Z"/><path class="cls-1" d="M35.67,7A1.14,1.14,0,1,1,34.52,8.1,1.15,1.15,0,0,1,35.67,7Z"/></svg>