<svg id="Слой_1" data-name="Слой 1" xmlns="http://www.w3.org/2000/svg" viewBox="0 0 60 60"><defs><style>.cls-1,.cls-3{fill:#40b1e6;}.cls-1,.cls-2{opacity:0.76;}</style></defs><path class="cls-1" d="M28.41,34.91h0a7,7,0,0,1-6-10.49l6-10.25,6,10.25A7,7,0,0,1,28.41,34.91Z"/><g class="cls-2"><path class="cls-3" d="M45.19,36.89a8.11,8.11,0,1,0,8.2,8.1A8.16,8.16,0,0,0,45.19,36.89Zm-5.65,6.72a.52.52,0,0,1-.31-.61,6.23,6.23,0,0,1,8-3.9.49.49,0,1,1-.31.92,5.32,5.32,0,0,0-6.73,3.29A.48.48,0,0,1,39.54,43.61Zm10.83-.53L44.18,49.2a.58.58,0,0,1-.69,0l-2.71-2.68a.58.58,0,0,1,0-.69.6.6,0,0,1,.7,0l2.4,2.37,5.8-5.73a.58.58,0,0,1,.69,0C50.61,42.54,50.61,42.85,50.37,43.08Z"/></g><path class="cls-1" d="M35.2,45a10,10,0,0,1,9.92-9.89,16.61,16.61,0,0,0-2.25-7.46L28.41,3,14,27.64A16.76,16.76,0,0,0,28.41,52.87h0a16.63,16.63,0,0,0,8.53-2.31A9.76,9.76,0,0,1,35.2,45Zm-6.79-4.75a10.55,10.55,0,0,1-9.1-15.88l9.1-15.52,9.1,15.52a10.55,10.55,0,0,1-9.1,15.88Z"/><g class="cls-2"><g id="_237-Atom_Molecule_Science" data-name="237-Atom, Molecule, Science"><path class="cls-3" d="M15.6,6.05a1.27,1.27,0,1,1-1.28,1.27A1.27,1.27,0,0,1,15.6,6.05Z"/><path class="cls-3" d="M37.74,8.49a1.27,1.27,0,1,1-1.28,1.26A1.27,1.27,0,0,1,37.74,8.49Z"/><path class="cls-3" d="M47.58,3.61A1.27,1.27,0,1,1,46.3,4.88,1.27,1.27,0,0,1,47.58,3.61Z"/><path class="cls-3" d="M54.37,50.34a1.27,1.27,0,1,1-1.28,1.27A1.28,1.28,0,0,1,54.37,50.34Z"/><path class="cls-3" d="M12.9,18.13a1.27,1.27,0,1,1-1.28,1.27A1.27,1.27,0,0,1,12.9,18.13Z"/><path class="cls-3" d="M37.74,51.61a3,3,0,1,0,3,3A3,3,0,0,0,37.74,51.61Z"/><path class="cls-3" d="M11.86,46.88a2.44,2.44,0,1,0,2.46,2.43A2.43,2.43,0,0,0,11.86,46.88Z"/><path class="cls-3" d="M47.11,24.37a3.71,3.71,0,1,0-3.74-3.71A3.72,3.72,0,0,0,47.11,24.37Z"/></g></g></svg>