<svg id="Слой_1" data-name="Слой 1" xmlns="http://www.w3.org/2000/svg" viewBox="0 0 100 100"><defs><style>.cls-1{fill:#fff;}</style></defs><g id="_156_Astronomy_Black_Hole_Planet" data-name="156, Astronomy, Black Hole, Planet"><path class="cls-1" d="M49,77.86A23,23,0,0,1,42,80.53a29.73,29.73,0,0,1-17.28-1.26,1,1,0,0,0-.63,1.89,33.52,33.52,0,0,0,11.62,2.2,29,29,0,0,0,6.92-.79c4.55-1.1,7.38-2.82,7.38-3A1,1,0,1,0,49,77.86Z"/><path class="cls-1" d="M50.05,21.77A23,23,0,0,1,57,19.1a29.75,29.75,0,0,1,17.29,1.25.93.93,0,0,0,1.25-.62.94.94,0,0,0-.62-1.26,31.43,31.43,0,0,0-18.54-1.41A31.07,31.07,0,0,0,49,20.2a1,1,0,0,0-.31,1.41A1,1,0,0,0,50.05,21.77Z"/><path class="cls-1" d="M19.89,50.36a.85.85,0,0,0,.78.48,1,1,0,0,0,.79-1.58,23,23,0,0,1-2.67-6.91A29.63,29.63,0,0,1,20,25.07a.94.94,0,0,0-.63-1.26.93.93,0,0,0-1.25.63A31.53,31.53,0,0,0,16.74,43,24.77,24.77,0,0,0,19.89,50.36Z"/><path class="cls-1" d="M30.1,70.48a.93.93,0,0,0-.79-1.1c-.16,0-12.1-2.52-18.07-16.19A.86.86,0,0,0,10,52.72.87.87,0,0,0,9.51,54a32.08,32.08,0,0,0,12.1,14.14A22.87,22.87,0,0,0,29,71.26,1.18,1.18,0,0,0,30.1,70.48Z"/><path class="cls-1" d="M29.15,30.41a.88.88,0,0,0,1-.79,21.52,21.52,0,0,1,3-6.75,28.7,28.7,0,0,1,13.2-11.31.87.87,0,0,0,.47-1.26.86.86,0,0,0-1.25-.47,31.94,31.94,0,0,0-14.15,12.1,22.78,22.78,0,0,0-3.14,7.38A.89.89,0,0,0,29.15,30.41Z"/><path class="cls-1" d="M70.16,69.22a.84.84,0,0,0-1.1.78,21.52,21.52,0,0,1-3,6.76,28.64,28.64,0,0,1-13.2,11.31,1,1,0,0,0,.79,1.73A32,32,0,0,0,67.81,77.7,22.78,22.78,0,0,0,71,70.32,1.19,1.19,0,0,0,70.16,69.22Z"/><path class="cls-1" d="M89.65,45.81a32,32,0,0,0-12.1-14.14,22.78,22.78,0,0,0-7.39-3.15,1,1,0,0,0-.31,1.89c.16,0,12.1,2.51,18.07,16.18a.86.86,0,0,0,1.25.47A1,1,0,0,0,89.65,45.81Z"/><path class="cls-1" d="M82.1,56.81c-1.1-4.56-2.82-7.39-3-7.39a1,1,0,0,0-1.73,1.1,23,23,0,0,1,2.67,6.91A29.68,29.68,0,0,1,78.8,74.72a1,1,0,0,0,1.89.63A30.33,30.33,0,0,0,82.1,56.81Z"/><path class="cls-1" d="M49.58,34.18A15.71,15.71,0,1,0,65.29,49.89,15.76,15.76,0,0,0,49.58,34.18Zm0,25.45a9.86,9.86,0,0,1-9.9-9.89.95.95,0,1,1,1.89,0,7.86,7.86,0,1,0,7.85-7.86.95.95,0,0,1,0-1.89,9.86,9.86,0,0,1,9.9,9.9A9.69,9.69,0,0,1,49.58,59.63Z"/><path class="cls-1" d="M77.39,48.16a27.18,27.18,0,0,0-6.76-16.49c-.62-.16-1.1-.32-1.1-.32a3.32,3.32,0,0,1-1.25-.78A1.62,1.62,0,0,1,68,29.15h0a27.53,27.53,0,0,0-16.34-6.91,10.07,10.07,0,0,0-1.1.63,1.84,1.84,0,0,1-2.67-.63A27.23,27.23,0,0,0,31.35,29c-.15.62-.31,1.1-.31,1.1a1.87,1.87,0,0,1-1.89,1.57h-.31A27.47,27.47,0,0,0,21.93,48a10.07,10.07,0,0,0,.63,1.1,1.88,1.88,0,0,1-.63,2.67h0a27.28,27.28,0,0,0,6.75,16.5c.63.15,1.1.31,1.1.31a3.38,3.38,0,0,1,1.26.79,1.6,1.6,0,0,1,.31,1.41h0A27.5,27.5,0,0,0,47.7,77.7a10.49,10.49,0,0,0,1.09-.63,1.89,1.89,0,0,1,2.68.63h0A27.23,27.23,0,0,0,68,71c.16-.63.32-1.1.32-1.1a2,2,0,0,1,2.35-1.57,27.51,27.51,0,0,0,6.92-16.34,12.5,12.5,0,0,0-.63-1.1A1.75,1.75,0,0,1,77.39,48.16ZM49.58,67.49A17.76,17.76,0,1,1,67.34,49.74,17.83,17.83,0,0,1,49.58,67.49Z"/><path class="cls-1" d="M12.19,82.26a3,3,0,1,0,0,6,2.89,2.89,0,0,0,3-3A3,3,0,0,0,12.19,82.26Z"/><path class="cls-1" d="M87.76,19.41a6,6,0,0,0,6-6,5.83,5.83,0,0,0-6-5.81,5.89,5.89,0,1,0,0,11.78Z"/><path class="cls-1" d="M90.75,65.45a2,2,0,1,1-2,2A2,2,0,0,1,90.75,65.45Z"/><path class="cls-1" d="M82.89,85.09a2,2,0,1,1-2,2A2,2,0,0,1,82.89,85.09Z"/><path class="cls-1" d="M35.75,91.06a2,2,0,1,1-2,2A2,2,0,0,1,35.75,91.06Z"/><path class="cls-1" d="M10.3,67.49a2,2,0,1,1-2,2A2,2,0,0,1,10.3,67.49Z"/><path class="cls-1" d="M10.3,22.24a2,2,0,1,1-2,2A2,2,0,0,1,10.3,22.24Z"/><path class="cls-1" d="M26,6.53a2,2,0,1,1-2,2A2,2,0,0,1,26,6.53Z"/><path class="cls-1" d="M69.22,6.53a2,2,0,1,1-2,2A2,2,0,0,1,69.22,6.53Z"/></g></svg>