<svg id="Слой_1" data-name="Слой 1" xmlns="http://www.w3.org/2000/svg" viewBox="0 0 100 100"><defs><style>.cls-1{fill:#fff;}</style></defs><g id="_234-Experiment_Lab_Science_Lab" data-name="234-Experiment, Lab, Science, Lab"><path class="cls-1" d="M86.34,19.43a3.84,3.84,0,1,0-3.87-3.83A3.81,3.81,0,0,0,86.34,19.43Z"/><path class="cls-1" d="M15.69,40.6a2.93,2.93,0,0,0,3-2.91,2.84,2.84,0,0,0-3-2.92,2.92,2.92,0,1,0,0,5.83Z"/><path class="cls-1" d="M74.72,83.7a8.68,8.68,0,0,0,17.35,0V59.78H74.72Z"/><path class="cls-1" d="M17.55,53a2,2,0,1,1-2,2A2,2,0,0,1,17.55,53Z"/><path class="cls-1" d="M19.57,8.85a2,2,0,1,1-2,2A2,2,0,0,1,19.57,8.85Z"/><path class="cls-1" d="M27.31,20.35a2,2,0,1,1-2,2A2,2,0,0,1,27.31,20.35Z"/><path class="cls-1" d="M64,14.68a2,2,0,1,1-2,2A2,2,0,0,1,64,14.68Z"/><path class="cls-1" d="M91.14,28a2,2,0,1,1-2,2A2,2,0,0,1,91.14,28Z"/><path class="cls-1" d="M66,58.7a2,2,0,1,1-2,2A2,2,0,0,1,66,58.7Z"/><path class="cls-1" d="M84.48,42.9a9.77,9.77,0,0,0-9.76-9.66A9.67,9.67,0,0,0,65,42.9v8.59a4.81,4.81,0,0,1-9.61,0V23.11a9,9,0,0,0-18,0l-.15,16H33.51V47.5a.54.54,0,0,1-.16.46l-24,38.66a4.06,4.06,0,0,0,.16,4,4.31,4.31,0,0,0,3.56,2H63.25a4.13,4.13,0,0,0,3.57-2,4.09,4.09,0,0,0,.15-4L43.27,48a.56.56,0,0,1-.15-.46V39.07H39.24v-16a7.13,7.13,0,0,1,14.25,0V51.49a6.82,6.82,0,0,0,13.64,0V42.9a7.75,7.75,0,0,1,15.49,0v9.21H74.87v5.82H92.38V52.11H84.63l-.15-9.21ZM39.24,41.37V74.19a.93.93,0,0,1-1.86,0V41.37h1.86Zm-8,21.32a2,2,0,1,1-2,2A2,2,0,0,1,31.19,62.69Zm-7.75,11.5a2,2,0,1,1-2,2A2,2,0,0,1,23.44,74.19Zm25.1-2a2,2,0,1,1-2-2A2,2,0,0,1,48.54,72.2ZM44.66,58.85a2,2,0,1,1-1.85,1.84A1.87,1.87,0,0,1,44.66,58.85ZM41.57,83.09a1.9,1.9,0,0,0,2.47,0,3.87,3.87,0,0,1,5.27,0,1.91,1.91,0,0,0,2.48,0,3.87,3.87,0,0,1,5.27,0,1.13,1.13,0,0,1,0,1.38,1.16,1.16,0,0,1-1.4,0,1.91,1.91,0,0,0-2.48,0,3.86,3.86,0,0,1-5.26,0,1.91,1.91,0,0,0-2.48,0,4.41,4.41,0,0,1-2.63,1.08,3.66,3.66,0,0,1-2.64-1.08,1.91,1.91,0,0,0-2.48,0,3.86,3.86,0,0,1-5.26,0,1.91,1.91,0,0,0-2.48,0,3.87,3.87,0,0,1-5.27,0,1.91,1.91,0,0,0-2.48,0,1.15,1.15,0,0,1-1.39,0,1.13,1.13,0,0,1,0-1.38,3.86,3.86,0,0,1,5.26,0,1.91,1.91,0,0,0,2.48,0,3.87,3.87,0,0,1,5.27,0,1.91,1.91,0,0,0,2.48,0A3.6,3.6,0,0,1,41.57,83.09Z"/></g></svg>