<svg id="Слой_1" data-name="Слой 1" xmlns="http://www.w3.org/2000/svg" viewBox="0 0 100 100"><defs><style>.cls-1{fill:#fff;}</style></defs><g id="_173_Space_Star_Universe" data-name="173, Space, Star, Universe"><path class="cls-1" d="M49.56,42a7,7,0,1,0-7-7A7.06,7.06,0,0,0,49.56,42Z"/><path class="cls-1" d="M69.41,57.87a3,3,0,0,0,3-3,2.92,2.92,0,0,0-3-3,3,3,0,0,0-3,3A2.92,2.92,0,0,0,69.41,57.87Z"/><path class="cls-1" d="M36.71,70.73a3,3,0,1,0,6,0,2.92,2.92,0,0,0-3-3A3.11,3.11,0,0,0,36.71,70.73Z"/><path class="cls-1" d="M15.75,81.69a3,3,0,1,0,3,3A2.92,2.92,0,0,0,15.75,81.69Z"/><path class="cls-1" d="M86.24,18.18a4,4,0,1,0-4-4A3.93,3.93,0,0,0,86.24,18.18Z"/><path class="cls-1" d="M29.72,7.23a2.07,2.07,0,1,1-2.06,2.06A2.06,2.06,0,0,1,29.72,7.23Z"/><path class="cls-1" d="M65.44,7.23a2.07,2.07,0,1,1-2.06,2.06A2.06,2.06,0,0,1,65.44,7.23Z"/><path class="cls-1" d="M91.16,31a2.07,2.07,0,1,1-2.07,2.07A2.07,2.07,0,0,1,91.16,31Z"/><path class="cls-1" d="M89.25,88.51a2.07,2.07,0,1,1-2.06,2.06A2.07,2.07,0,0,1,89.25,88.51Z"/><path class="cls-1" d="M53.53,88.51a2.07,2.07,0,1,1-2.06,2.06A2.07,2.07,0,0,1,53.53,88.51Z"/><path class="cls-1" d="M27.66,84.54a2.07,2.07,0,1,1-2.07,2.07A2.07,2.07,0,0,1,27.66,84.54Z"/><path class="cls-1" d="M11.78,64.7a2.07,2.07,0,1,1-2.06,2.06A2.06,2.06,0,0,1,11.78,64.7Z"/><path class="cls-1" d="M9.88,23.1a2.07,2.07,0,1,1-2.07,2.07A2.07,2.07,0,0,1,9.88,23.1Z"/><path class="cls-1" d="M20.83,39.3A32.71,32.71,0,0,0,68.14,79c-7.78-4-16.83-10.16-25.72-17.47A140.18,140.18,0,0,1,20.83,39.3Zm6.83,19.52a2.06,2.06,0,1,1,2.06-2.06A2.1,2.1,0,0,1,27.66,58.82ZM55.44,74.7a2.07,2.07,0,1,1-2.07,2.06A2.22,2.22,0,0,1,55.44,74.7Zm-10.8-4a4.92,4.92,0,1,1-4.92-4.92A4.94,4.94,0,0,1,44.64,70.73Z"/><path class="cls-1" d="M31,25.33a33.09,33.09,0,0,0-8.26,9.84C33.21,50.09,55.44,68.67,72,76.45A31.42,31.42,0,0,0,80.2,66.6a2,2,0,0,1,1.43-3A32.74,32.74,0,0,0,33.69,23.42,1.89,1.89,0,0,1,31,25.33ZM55.44,54.86a2.07,2.07,0,1,1,2.06-2.07A2.11,2.11,0,0,1,55.44,54.86Zm14-4.93a4.93,4.93,0,1,1-4.92,4.93A5,5,0,0,1,69.41,49.93ZM49.56,26.12A8.89,8.89,0,1,1,40.67,35,8.87,8.87,0,0,1,49.56,26.12Zm-14,7a2.06,2.06,0,1,1-2.06,2.06A2.1,2.1,0,0,1,35.59,33.11Z"/><path class="cls-1" d="M82.74,65A1,1,0,0,0,81,66.13c4.6,6.51,6.19,11.59,4.6,13.49s-6.82,1.11-14.13-2.22C55,69.62,32.42,50.73,21.94,35.65c-4.6-6.51-6.19-11.59-4.6-13.5S24.16,21,31.47,24.37a1,1,0,1,0,.79-1.74c-5.87-2.7-13.49-5.24-16.35-1.75-3,3.49.79,10.64,4.44,15.88,10.8,15.4,33.5,34.45,50.49,42.38,4.6,2.07,13.17,5.56,16.35,1.75C90.21,77.4,86.4,70.25,82.74,65Z"/></g></svg>