<svg id="Слой_1" data-name="Слой 1" xmlns="http://www.w3.org/2000/svg" viewBox="0 0 100 100"><defs><style>.cls-1{fill:#fff;}</style></defs><g id="_608_Checklist_Clipboard_Mobile_List" data-name="608, Checklist, Clipboard, Mobile, List"><rect class="cls-1" x="35.59" y="26.9" width="6.05" height="6.05"/><rect class="cls-1" x="35.59" y="39.96" width="6.05" height="6.05"/><path class="cls-1" d="M72.39,21H30.64V78.84H72.55V21ZM47.54,26.9h11a1,1,0,1,1,0,1.91h-11a1,1,0,1,1,0-1.91Zm-4,45.89a1,1,0,0,1-.95.95h-8a1,1,0,0,1-1-.95v-8a1,1,0,0,1,1-.95h8a1,1,0,0,1,.95.95Zm0-12.91a1,1,0,0,1-.95,1h-8a1,1,0,0,1-1-1v-8a1,1,0,0,1,1-1h8a1,1,0,0,1,.95,1Zm0-13.06a1,1,0,0,1-.95,1h-8a1,1,0,0,1-1-1v-8a1,1,0,0,1,1-1h8a1,1,0,0,1,.95,1Zm0-12.91a1,1,0,0,1-.95,1h-8a1,1,0,0,1-1-1v-8a1,1,0,0,1,1-1h8a1,1,0,0,1,.95,1ZM68.41,71.83H47.54a1,1,0,1,1,0-1.91H68.41a1,1,0,0,1,1,1A.91.91,0,0,1,68.41,71.83Zm-21.83-5.1a1,1,0,0,1,1-1h11a1,1,0,1,1,0,1.91h-11C47.06,67.85,46.58,67.37,46.58,66.73Zm21.83-8H47.54a1,1,0,0,1,0-1.92H68.41a1,1,0,0,1,1,1A.91.91,0,0,1,68.41,58.77ZM46.58,53.83a1,1,0,0,1,1-1h11a1,1,0,1,1,0,1.91h-11A1,1,0,0,1,46.58,53.83Zm21.83-8H47.54a1,1,0,1,1,0-1.91H68.41a1,1,0,0,1,1,.95A.91.91,0,0,1,68.41,45.86ZM46.58,40.92a1,1,0,0,1,1-1h11a1,1,0,0,1,0,1.92h-11A1,1,0,0,1,46.58,40.92Zm21.83-8H47.54a1,1,0,1,1,0-1.91H68.41a1,1,0,0,1,1,1A.91.91,0,0,1,68.41,33Z"/><path class="cls-1" d="M26.66,87.61a7.08,7.08,0,0,0,7,7H69.36a7.08,7.08,0,0,0,7-7V84.74H26.66Zm20.88,1.11h8a1,1,0,1,1,0,1.91h-8a1,1,0,1,1,0-1.91Z"/><path class="cls-1" d="M14.23,71.83a4.45,4.45,0,0,0-4.46,4.46,4.57,4.57,0,0,0,4.46,4.47,4.47,4.47,0,0,0,0-8.93Z"/><path class="cls-1" d="M26.66,22H19.49a1,1,0,0,0,0,1.91h7.17v3H17.42a1,1,0,1,0,0,1.91h9.24v3H15.51a1,1,0,1,0,0,1.91H26.66v3H13.44a1,1,0,1,0,0,1.91H26.66v3.19H11.52a1,1,0,0,0,0,1.91H26.66V82.67H76.53V17H26.66Zm1.91-1.91a1,1,0,0,1,1-1H73.35a1,1,0,0,1,1,1V79.8a1,1,0,0,1-1,1H29.69a1,1,0,0,1-1-1V20.05Z"/><rect class="cls-1" x="35.59" y="52.87" width="6.05" height="6.05"/><rect class="cls-1" x="35.59" y="65.78" width="6.05" height="6.06"/><path class="cls-1" d="M89.44,13a3,3,0,0,0-3,3,2.93,2.93,0,0,0,3,3,3,3,0,1,0,0-6.05Z"/><path class="cls-1" d="M69.36,5.07H33.67a7.08,7.08,0,0,0-7,7V15H76.53V12.08A7.2,7.2,0,0,0,69.36,5.07ZM55.5,11h-8a1,1,0,0,1-1-1,1,1,0,0,1,1-1h8a1,1,0,0,1,1,1A.91.91,0,0,1,55.5,11Z"/><path class="cls-1" d="M15.19,8.1a1.43,1.43,0,1,1-1.43,1.43A1.43,1.43,0,0,1,15.19,8.1Z"/><path class="cls-1" d="M19.17,51a1.44,1.44,0,1,1-1.43,1.43A1.43,1.43,0,0,1,19.17,51Z"/><path class="cls-1" d="M17.26,90.79a1.44,1.44,0,1,1-1.43,1.44A1.44,1.44,0,0,1,17.26,90.79Z"/><path class="cls-1" d="M83.86,28a1.44,1.44,0,1,1-1.43,1.44A1.44,1.44,0,0,1,83.86,28Z"/><path class="cls-1" d="M89,55.9a1.44,1.44,0,1,1-1.43,1.43A1.43,1.43,0,0,1,89,55.9Z"/><path class="cls-1" d="M85.94,80.76a1.43,1.43,0,1,1-1.44,1.43A1.43,1.43,0,0,1,85.94,80.76Z"/></g></svg>