<svg id="Слой_1" data-name="Слой 1" xmlns="http://www.w3.org/2000/svg" viewBox="0 0 100 100"><defs><style>.cls-1{fill:#fff;}</style></defs><g id="_695_Blood_Blood_Test_Test_Tube_Lab" data-name="695, Blood, Blood Test, Test Tube, Lab"><path class="cls-1" d="M17,51.39c2.76-1.29,8.78-3.06,12.84,1,3.9,3.86,10.73-.65,12.52-1.77V30H17Z"/><path class="cls-1" d="M43.3,21.93H15.82A3.08,3.08,0,0,0,12.73,25a3,3,0,0,0,3.09,3.06H43.3a3.06,3.06,0,1,0,0-6.12Z"/><path class="cls-1" d="M71.1,53.81c-3.58-3.54-9.76-1-11.55-.16V74.73a12.69,12.69,0,0,0,25.37,0V53C80.53,55.74,74.84,57.51,71.1,53.81Zm-8.46,7.73a3.58,3.58,0,1,1,3.58,3.54A3.6,3.6,0,0,1,62.64,61.54Zm6.51,16.74a1.45,1.45,0,1,1,1.46-1.45A1.36,1.36,0,0,1,69.15,78.28ZM79.88,65.56A2.61,2.61,0,1,1,77.28,63,2.66,2.66,0,0,1,79.88,65.56Z"/><path class="cls-1" d="M28.34,53.81c-3.58-3.54-9.75-1-11.54-.16V74.73a12.68,12.68,0,0,0,25.36,0V53C37.77,55.74,32.08,57.51,28.34,53.81Zm-8.45,7.73a3.58,3.58,0,1,1,3.57,3.54A3.59,3.59,0,0,1,19.89,61.54Zm6.66,16.74A1.45,1.45,0,1,1,28,76.83,1.45,1.45,0,0,1,26.55,78.28ZM37.28,65.56A2.6,2.6,0,1,1,34.68,63,2.66,2.66,0,0,1,37.28,65.56Z"/><path class="cls-1" d="M11.76,88.26a3.07,3.07,0,0,0-3.09,3.06,3,3,0,0,0,3.09,3.05,3.06,3.06,0,1,0,0-6.11Z"/><path class="cls-1" d="M59.55,51.39c2.77-1.29,8.78-3.06,12.85,1,3.9,3.86,10.73-.65,12.52-1.77V30H59.55Z"/><path class="cls-1" d="M88,14.85a4,4,0,1,0-4.07-4A4,4,0,0,0,88,14.85Z"/><path class="cls-1" d="M86.06,21.93H58.58A3.07,3.07,0,0,0,55.49,25a3,3,0,0,0,3.09,3.06H86.06a3.06,3.06,0,1,0,0-6.12Z"/><path class="cls-1" d="M90.61,85.36a1.45,1.45,0,1,1-1.47,1.45A1.45,1.45,0,0,1,90.61,85.36Z"/><path class="cls-1" d="M71.26,8.89a1.45,1.45,0,1,1-1.46,1.45A1.45,1.45,0,0,1,71.26,8.89Z"/><path class="cls-1" d="M28,8.89a1.45,1.45,0,1,1-1.46,1.45A1.46,1.46,0,0,1,28,8.89Z"/><path class="cls-1" d="M8.18,54.13a1.45,1.45,0,1,1-1.46,1.45A1.45,1.45,0,0,1,8.18,54.13Z"/><path class="cls-1" d="M51.91,46.08a1.45,1.45,0,1,1-1.46,1.45A1.46,1.46,0,0,1,51.91,46.08Z"/><path class="cls-1" d="M52.89,88.26a1.45,1.45,0,1,1-1.46,1.45A1.45,1.45,0,0,1,52.89,88.26Z"/></g></svg>